<svg width="281" height="80" viewBox="0 0 281 80" fill="none" xmlns="http://www.w3.org/2000/svg">
  <path d="M8.15569 23.4339L13.0655 25.5336C13.2136 25.5971 13.3663 25.6273 13.5175 25.6273C13.9649 25.6273 14.3912 25.3643 14.5771 24.9274C14.8281 24.3424 14.556 23.6652 13.971 23.4143L9.06117 21.3146C8.47616 21.0637 7.79895 21.3358 7.54801 21.9208C7.29708 22.5058 7.56918 23.183 8.15418 23.4339H8.15569Z" fill="#D02E7D"/>
  <path d="M16.1266 20.7249C16.3201 21.1497 16.7388 21.4022 17.1772 21.4022C17.3359 21.4022 17.4976 21.3689 17.6518 21.2994C18.2323 21.0363 18.4893 20.3531 18.2262 19.7741L16.1311 15.1515C15.8681 14.5726 15.1848 14.3141 14.6059 14.5771C14.0254 14.8401 13.7684 15.5234 14.0314 16.1023L16.1266 20.7249Z" fill="#D02E7D"/>
  <path d="M22.4076 20.9031C22.5406 20.953 22.6751 20.9756 22.8082 20.9756C23.2768 20.9756 23.7166 20.6884 23.889 20.2243L25.6228 15.5534C25.845 14.9563 25.5397 14.2927 24.9441 14.072C24.347 13.8513 23.6834 14.1551 23.4627 14.7522L21.7288 19.4232C21.5066 20.0203 21.812 20.6839 22.4076 20.9046V20.9031Z" fill="#D02E7D"/>
  <path d="M34.5321 47.298C33.9607 47.0184 33.2714 47.2557 32.9902 47.8271C32.9796 47.8483 32.5503 48.7099 31.6509 50.081C31.8943 50.1339 32.1406 50.1626 32.3886 50.1626C33.2759 50.1626 34.1647 49.824 34.8404 49.1483L34.9704 49.0183C35.0203 48.9215 35.0521 48.858 35.0611 48.8384C35.3393 48.267 35.102 47.5777 34.5306 47.298H34.5321Z" fill="#D02E7D"/>
  <path d="M32.2341 50.1606C31.9862 50.1606 31.7398 50.1318 31.4964 50.0789C30.1268 52.1665 27.6614 55.4392 23.9034 58.7497C23.4802 59.0173 20.3571 60.8539 16.7549 59.4012C16.3165 59.2244 15.8161 59.3332 15.4896 59.6748L11.7649 63.5794C10.9698 63.4298 9.39316 63.0428 7.77117 62.1358C4.95498 60.5592 3.23776 58.1572 2.66182 54.9888L6.39406 51.1976C6.54069 51.0494 6.64348 50.8635 6.69186 50.6609C6.74023 50.4614 7.8664 45.7058 7.05012 38.5738C7.03651 38.4605 7.00628 38.3486 6.96093 38.2428C6.88232 38.0629 4.99731 33.7865 2.58321 30.8886C2.56659 30.869 2.58321 30.8856 2.56508 30.8675C2.4638 30.7481 2.25972 30.4095 2.31263 30.1797C2.36856 29.9409 2.73438 29.6551 3.29066 29.4148C5.1258 28.6227 8.16571 29.3785 12.2184 37.4855C12.3832 37.815 12.6961 38.0463 13.0604 38.1067C13.4247 38.1672 13.7951 38.0493 14.0581 37.7908L31.1532 20.9647C31.1774 20.9405 31.2001 20.9164 31.2228 20.8907C31.2258 20.8876 31.5009 20.6095 31.9091 20.5868C32.4381 20.5551 32.9914 20.9677 33.3617 21.3169C33.7865 21.7175 33.9981 22.1166 34.0072 22.5383C34.0223 23.2065 33.528 23.8701 33.3391 24.0666L19.9943 37.0108C19.6708 37.3252 19.5605 37.7984 19.7101 38.2231C19.7146 38.2367 20.1848 39.635 19.9762 41.6153C19.6874 44.3589 18.2952 46.8138 15.8418 48.915C15.3581 49.3292 15.3022 50.0563 15.7148 50.54C16.129 51.0237 16.8561 51.0812 17.3399 50.667C20.5884 47.8871 21.8219 44.9031 22.2013 42.4739C21.8189 42.2879 21.4651 42.0385 21.1552 41.7286C19.6451 40.2185 19.6451 37.7621 21.1552 36.252L26.7483 30.6589C27.4769 29.9303 28.4504 29.5282 29.4859 29.5282C29.9379 29.5282 30.3763 29.6038 30.7889 29.7504L34.9535 25.7113C34.9535 25.7113 34.9626 25.7037 34.9656 25.6992C35.1062 25.5586 36.3382 24.2752 36.3125 22.5142C36.3019 21.781 36.054 20.6866 34.9414 19.639C33.9241 18.6821 32.8614 18.2287 31.7821 18.2861C30.5214 18.3556 29.7232 19.1205 29.5146 19.3458L13.5547 35.0562C11.8405 31.8984 10.0991 29.6355 8.36676 28.3173C5.86952 26.4172 3.73206 26.715 2.37914 27.3C1.06553 27.8669 0.28552 28.6726 0.0617968 29.6945C-0.23902 31.0685 0.646802 32.1751 0.823664 32.3791C2.77822 34.7297 4.42893 38.2413 4.78114 39.0152C5.40091 44.6461 4.73126 48.723 4.51509 49.8235L0.612034 53.79C0.361102 54.044 0.243194 54.4007 0.291566 54.7544C1.01111 60.0225 4.18858 62.7964 6.72814 64.1962C9.43397 65.6866 11.9645 65.9512 12.0703 65.9618C12.1081 65.9663 12.1459 65.9678 12.1837 65.9678C12.4966 65.9678 12.7989 65.8393 13.0181 65.6111L16.6415 61.8123C21.2943 63.2786 25.087 60.739 25.2548 60.6257C25.2926 60.6 25.3289 60.5712 25.3637 60.541C31.4329 55.214 34.2823 50.0517 34.8175 49.0208L34.6875 49.1508C34.0118 49.8265 33.1229 50.1651 32.2356 50.1651L32.2341 50.1606Z" fill="#D02E7D"/>
  <path d="M22.2014 42.4725C22.7214 42.725 23.2973 42.858 23.8929 42.858C23.9972 42.858 24.1 42.8534 24.2013 42.8444C24.2814 41.9722 24.6578 41.1649 25.2821 40.5406L30.2206 35.6021C30.9281 34.8947 31.8713 34.5046 32.8781 34.5046C32.9839 34.5046 33.0882 34.5092 33.191 34.5183C33.5886 33.1956 33.2666 31.7006 32.2235 30.6575C31.8124 30.2464 31.3226 29.9395 30.789 29.749L22.085 38.1915C22.2769 39.0547 22.4931 40.5981 22.1998 42.471L22.2014 42.4725ZM28.3779 32.2886C28.6712 31.9953 29.0657 31.8336 29.486 31.8336C29.9062 31.8336 30.3007 31.9953 30.594 32.2886C31.2047 32.8993 31.2047 33.8939 30.594 34.5046L25.0009 40.0977C24.7077 40.391 24.3131 40.5527 23.8929 40.5527C23.4726 40.5527 23.0781 40.391 22.7848 40.0977C22.1741 39.487 22.1741 38.4924 22.7848 37.8817L28.3779 32.2886Z" fill="#D02E7D"/>
  <path d="M26.7481 30.6595L21.1551 36.2525C19.6449 37.7627 19.6449 40.2191 21.1551 41.7292C21.4649 42.0391 21.8172 42.2885 22.2011 42.4745C22.4929 40.6015 22.2767 39.0582 22.0862 38.195L30.7903 29.7525C30.3776 29.6059 29.9392 29.5303 29.4872 29.5303C28.4502 29.5303 27.4783 29.9324 26.7496 30.661L26.7481 30.6595Z" fill="#D02E7D"/>
  <path d="M26.6319 41.7275C25.9758 42.3835 25.1217 42.7735 24.2027 42.8446C24.1921 42.961 24.186 43.0789 24.186 43.1983C24.186 44.2035 24.576 45.1468 25.2835 45.8558L25.4467 46.019C26.1542 46.7265 27.0975 47.1165 28.1042 47.1165C28.2871 47.1165 28.4685 47.1029 28.6469 47.0772C28.6182 46.8958 28.6 46.7114 28.6 46.5254C28.6 45.5973 28.9598 44.7266 29.6128 44.0735L33.8227 39.8636C34.4758 39.2106 35.3465 38.8508 36.2746 38.8508C36.4424 38.8508 36.6057 38.8659 36.7689 38.8901C36.9065 37.7791 36.5513 36.6196 35.7002 35.7686L35.537 35.6053C34.9036 34.972 34.0797 34.594 33.1924 34.5215C33.014 35.1125 32.692 35.6703 32.2249 36.1374L26.6319 41.7305V41.7275ZM33.9044 37.2334L34.0676 37.3966C34.633 37.9635 34.633 38.8841 34.0676 39.4494L29.1291 44.388C28.857 44.6601 28.4927 44.8097 28.1027 44.8097C27.7127 44.8097 27.3484 44.6601 27.0763 44.388L26.913 44.2247C26.6409 43.9526 26.4913 43.5883 26.4913 43.1983C26.4913 42.8083 26.6409 42.444 26.913 42.1719L31.8516 37.2334C32.1237 36.9613 32.488 36.8116 32.878 36.8116C33.268 36.8116 33.6323 36.9613 33.9044 37.2334Z" fill="#D02E7D"/>
  <path d="M30.2205 35.6038L25.282 40.5423C24.6577 41.1666 24.2813 41.9739 24.2012 42.8461C25.1202 42.775 25.9743 42.385 26.6304 41.729L32.2235 36.1359C32.6905 35.6688 33.0125 35.1125 33.1909 34.52C33.0866 34.5109 32.9838 34.5063 32.878 34.5063C31.8728 34.5063 30.9295 34.8964 30.2205 35.6038Z" fill="#D02E7D"/>
  <path d="M38.896 40.033L38.7252 39.8622C38.1901 39.3271 37.5068 38.993 36.7661 38.8872C36.6663 39.6884 36.3111 40.4654 35.6974 41.0791L30.7588 46.0176C30.1799 46.5966 29.4437 46.9624 28.644 47.0758C28.7574 47.7938 29.0885 48.4544 29.61 48.9759L29.7808 49.1467C30.2691 49.635 30.8662 49.9434 31.495 50.0794C32.3944 48.7083 32.8237 47.8482 32.8343 47.8255C33.114 47.2541 33.8048 47.0168 34.3762 47.2965C34.9476 47.5761 35.1849 48.2639 34.9068 48.8368C34.8962 48.8565 34.866 48.92 34.8161 49.0167L38.896 44.9368C39.549 44.2838 39.9088 43.4131 39.9088 42.4849C39.9088 41.5568 39.549 40.6861 38.896 40.033ZM37.2664 43.3072L33.0565 47.5172C32.603 47.9707 31.8654 47.9707 31.4119 47.5172L31.241 47.3464C31.0234 47.1287 30.9039 46.8369 30.9039 46.524C30.9039 46.2111 31.0234 45.9194 31.241 45.7017L35.451 41.4918C35.6686 41.2741 35.9604 41.1547 36.2733 41.1547C36.5862 41.1547 36.878 41.2741 37.0956 41.4918L37.2664 41.6626C37.4841 41.8803 37.6035 42.172 37.6035 42.4849C37.6035 42.7978 37.4841 43.0896 37.2664 43.3072Z" fill="#D02E7D"/>
  <path d="M33.8199 39.8625L29.61 44.0724C28.9569 44.7254 28.5972 45.5961 28.5972 46.5243C28.5972 46.7117 28.6153 46.8961 28.644 47.076C29.4437 46.9611 30.1799 46.5968 30.7588 46.0179L35.6973 41.0793C36.3111 40.4656 36.6678 39.6886 36.7661 38.8874C36.6043 38.8648 36.4396 38.8481 36.2718 38.8481C35.3436 38.8481 34.4729 39.2079 33.8199 39.8609V39.8625Z" fill="#D02E7D"/>
  <path d="M51.9481 53.3245C51.9284 53.4625 51.9087 53.5413 51.9087 53.6004C51.9087 53.9748 52.1454 54.1521 52.599 54.1521H58.22C58.792 54.1521 59.1273 53.8763 59.2456 53.3245L61.1588 44.3388H67.1545C67.2137 44.3388 67.2729 44.3388 67.3321 44.3388C72.9728 44.3388 77.6274 39.3139 77.6274 33.7767C77.6669 29.5597 74.9254 26.0521 70.5272 26.0521H58.5751C58.1017 26.0521 57.7072 26.3674 57.5692 26.8994L51.9481 53.3245ZM68.259 32.0623C69.7383 32.0623 70.5666 33.1658 70.5666 34.5255C70.5666 36.4369 68.8902 38.368 66.9179 38.368H62.4408L63.7819 32.0623H68.259Z" fill="#211815"/>
  <path d="M76.7088 53.3245C76.6891 53.4625 76.6694 53.5413 76.6694 53.5807C76.6694 53.9551 76.906 54.1521 77.3794 54.1521H96.5698C97.1221 54.1521 97.4574 53.8763 97.5757 53.3245L98.621 48.4967C98.6407 48.4375 98.6407 48.3784 98.6407 48.2799C98.6407 47.8661 98.4041 47.669 97.9307 47.669H85.2291L86.2744 42.8412H95.6428C96.2543 42.8412 96.6093 42.5653 96.7276 42.0136L97.5757 38.1119C97.5954 37.9739 97.6151 37.8951 97.6151 37.8557C97.6151 37.4419 97.3587 37.2448 96.8262 37.2448H87.4578L88.444 32.5746H100.791C101.343 32.5746 101.678 32.2987 101.796 31.747L102.822 26.8994C102.842 26.7615 102.861 26.6827 102.861 26.6236C102.861 26.2492 102.645 26.0521 102.191 26.0521H83.3554C82.7835 26.0521 82.4482 26.328 82.3298 26.8994L76.7088 53.3245Z" fill="#211815"/>
  <path d="M98.8562 53.3245C98.7378 53.5216 98.6787 53.6792 98.6787 53.7974C98.6787 54.0339 98.8562 54.1521 99.2309 54.1521H105.069C105.641 54.1521 106.075 53.8763 106.371 53.3245L108.442 49.6199H118.776L119.309 53.3245C119.388 53.8763 119.703 54.1521 120.275 54.1521H125.719C126.192 54.1521 126.429 53.9551 126.429 53.5413C126.429 53.4427 126.429 53.3836 126.409 53.3245L121.695 26.8994C121.597 26.328 121.281 26.0521 120.749 26.0521H116.114C115.542 26.0521 115.088 26.328 114.753 26.8994L98.8562 53.3245ZM116.686 34.9393L117.909 43.5309H111.873L116.686 34.9393Z" fill="#211815"/>
  <path d="M128.856 49.6396C130.848 52.3392 134.477 54.5068 138.244 54.5068C144.555 54.5068 149.151 51.3145 150.295 45.8167C150.433 45.1664 150.512 44.4964 150.512 43.8265C150.452 40.0233 147.928 38.2104 143.313 36.5157C140.63 35.5896 139.585 35.1166 139.486 33.954C139.486 33.8949 139.506 33.7767 139.526 33.619C139.822 32.2987 141.242 31.7273 142.879 31.7273C143.589 31.7273 144.18 31.8258 144.674 32.0032C145.719 32.4564 146.823 33.1067 147.316 33.6781C147.632 34.0131 147.928 34.1905 148.204 34.1905C148.401 34.1905 148.618 34.0919 148.875 33.8949L151.932 31.077C152.385 30.7026 152.602 30.3282 152.602 29.9735C152.602 29.7567 152.523 29.5597 152.346 29.3429C150.235 26.8994 146.646 25.4609 143.451 25.4609C137.416 25.4609 133.333 28.535 132.307 33.2446C132.169 33.8949 132.11 34.4663 132.11 34.9196C132.11 38.2892 134.595 40.6145 139.624 42.5062C141.577 43.2353 142.938 43.9053 142.938 45.1073C142.938 45.2453 142.938 45.3438 142.918 45.4029C142.524 47.1567 141.222 48.0434 139.033 48.0434C136.863 48.0434 135.345 46.5655 133.944 45.0876C133.688 44.792 133.431 44.6541 133.175 44.6541C132.958 44.6541 132.741 44.7526 132.524 44.93L128.994 47.9646C128.659 48.2405 128.481 48.5164 128.481 48.7922C128.481 49.009 128.599 49.2849 128.856 49.6396Z" fill="#211815"/>
  <path d="M158.86 53.3245C158.841 53.4625 158.821 53.5413 158.821 53.5807C158.821 53.9551 159.057 54.1521 159.531 54.1521H165.191C165.724 54.1521 166.059 53.8763 166.177 53.3245L168.446 42.6638L180.792 26.8994C180.93 26.7221 181.009 26.5447 181.009 26.4068C181.009 26.1703 180.832 26.0521 180.457 26.0521H173.593C173.061 26.0521 172.686 26.2886 172.272 26.8994L165.783 36.0428L163.002 26.8994C162.825 26.2886 162.608 26.0521 162.075 26.0521H156.277C155.803 26.0521 155.507 26.2689 155.507 26.6433C155.507 26.7418 155.527 26.8403 155.547 26.8994L161.128 42.7032L158.86 53.3245Z" fill="#211815"/>
  <path d="M180.846 53.3607C180.827 53.4986 180.807 53.5774 180.807 53.6168C180.807 53.991 181.043 54.188 181.515 54.188H191.508C200.301 54.188 208.426 47.2154 208.426 38.096C208.544 31.2811 202.937 26.0025 196.584 26.101H187.476C186.905 26.101 186.571 26.3767 186.453 26.9479L180.846 53.3607ZM201.108 38.6081C201.108 43.3353 196.702 47.4912 192.039 47.4912H189.403L192.512 32.7977H195.148C198.747 32.7977 201.108 35.2598 201.108 38.6081Z" fill="#D02E7D"/>
  <path d="M209.336 53.3607C209.317 53.4986 209.297 53.5774 209.297 53.6168C209.297 53.991 209.533 54.188 210.005 54.188H229.145C229.696 54.188 230.03 53.9122 230.148 53.3607L231.191 48.5351C231.211 48.476 231.211 48.4169 231.211 48.3184C231.211 47.9048 230.975 47.7079 230.503 47.7079H217.834L218.877 42.8823H228.221C228.83 42.8823 229.185 42.6065 229.303 42.055L230.148 38.1551C230.168 38.0173 230.188 37.9385 230.188 37.8991C230.188 37.4855 229.932 37.2885 229.401 37.2885H220.057L221.041 32.6205H233.355C233.906 32.6205 234.24 32.3447 234.358 31.7932L235.381 26.9479C235.401 26.81 235.42 26.7312 235.42 26.6722C235.42 26.2979 235.204 26.101 234.752 26.101H215.965C215.395 26.101 215.061 26.3767 214.943 26.9479L209.336 53.3607Z" fill="#D02E7D"/>
  <path d="M231.423 53.3607C231.305 53.5577 231.246 53.7152 231.246 53.8334C231.246 54.0698 231.423 54.188 231.797 54.188H237.619C238.19 54.188 238.623 53.9122 238.918 53.3607L240.983 49.6578H251.291L251.822 53.3607C251.901 53.9122 252.215 54.188 252.786 54.188H258.215C258.687 54.188 258.923 53.991 258.923 53.5774C258.923 53.4789 258.923 53.4198 258.904 53.3607L254.202 26.9479C254.104 26.3767 253.789 26.101 253.258 26.101H248.635C248.065 26.101 247.612 26.3767 247.278 26.9479L231.423 53.3607ZM249.206 34.984L250.425 43.5716H244.406L249.206 34.984Z" fill="#D02E7D"/>
  <path d="M261.054 53.3607C261.034 53.4986 261.014 53.5774 261.014 53.6365C261.014 54.0107 261.25 54.188 261.703 54.188H278.64C279.171 54.188 279.505 53.9122 279.623 53.3607L280.705 48.3184C280.725 48.1806 280.745 48.1018 280.745 48.0427C280.745 47.6685 280.508 47.4912 280.056 47.4912H269.591L273.938 26.9479C273.958 26.81 273.978 26.7312 273.978 26.6722C273.978 26.2979 273.761 26.101 273.309 26.101H267.663C267.191 26.101 266.798 26.4161 266.66 26.9479L261.054 53.3607Z" fill="#D02E7D"/>
  </svg>
