<svg xmlns="http://www.w3.org/2000/svg" xmlns:xlink="http://www.w3.org/1999/xlink" width="500" zoomAndPan="magnify" viewBox="0 0 375 374.999991" height="500" preserveAspectRatio="xMidYMid meet" version="1.0"><defs><g/><clipPath id="449d24f412"><path d="M 129.980469 96.417969 L 226.730469 96.417969 L 226.730469 193.167969 L 129.980469 193.167969 Z M 129.980469 96.417969 " clip-rule="nonzero"/></clipPath><clipPath id="0cbb6e66c4"><path d="M 148.582031 117 L 245 117 L 245 209.242188 L 148.582031 209.242188 Z M 148.582031 117 " clip-rule="nonzero"/></clipPath></defs><g clip-path="url(#449d24f412)"><path fill="#ff7f00" d="M 223.878906 142.761719 L 180.363281 99.25 C 178.597656 97.507812 176.179688 96.417969 173.519531 96.417969 L 139.65625 96.417969 C 134.3125 96.417969 129.980469 100.75 129.980469 106.09375 L 129.980469 139.957031 C 129.980469 142.640625 131.070312 145.058594 132.835938 146.800781 L 176.375 190.339844 C 178.113281 192.082031 180.535156 193.167969 183.195312 193.167969 C 185.855469 193.167969 188.296875 192.082031 190.039062 190.339844 L 223.902344 156.476562 C 225.644531 154.710938 226.730469 152.292969 226.730469 149.632812 C 226.730469 146.945312 225.644531 144.527344 223.878906 142.761719 Z M 146.914062 120.605469 C 142.898438 120.605469 139.65625 117.363281 139.65625 113.351562 C 139.65625 109.335938 142.898438 106.09375 146.914062 106.09375 C 150.929688 106.09375 154.167969 109.335938 154.167969 113.351562 C 154.167969 117.363281 150.929688 120.605469 146.914062 120.605469 Z M 146.914062 120.605469 " fill-opacity="1" fill-rule="nonzero"/></g><g clip-path="url(#0cbb6e66c4)"><path fill="#231f20" d="M 151.203125 117.015625 C 151.351562 117.015625 151.503906 117.03125 151.648438 117.054688 C 151.652344 117.054688 151.65625 117.054688 151.65625 117.054688 L 166.421875 119.574219 C 167.363281 119.734375 168.148438 120.378906 168.496094 121.265625 C 168.496094 121.269531 168.496094 121.269531 168.496094 121.273438 L 175.351562 138.824219 L 242.222656 140.488281 C 242.988281 140.507812 243.710938 140.855469 244.210938 141.433594 C 244.710938 142.011719 244.953125 142.78125 244.859375 143.546875 L 241.167969 174.050781 C 241.015625 175.328125 239.957031 176.34375 238.671875 176.445312 L 190.996094 180.230469 L 181.546875 187.65625 C 181.539062 187.664062 181.527344 187.671875 181.515625 187.679688 C 181.503906 187.6875 181.492188 187.691406 181.480469 187.695312 C 181.46875 187.703125 181.460938 187.714844 181.449219 187.722656 C 179.722656 189.007812 179.296875 190.757812 179.539062 191.730469 C 179.679688 192.285156 179.890625 192.695312 180.394531 193.007812 C 180.898438 193.320312 181.769531 193.550781 183.257812 193.464844 C 183.261719 193.464844 183.269531 193.464844 183.273438 193.464844 C 183.320312 193.460938 183.375 193.460938 183.421875 193.464844 C 183.429688 193.464844 183.441406 193.464844 183.449219 193.464844 L 240.308594 193.628906 L 240.316406 193.628906 C 241.808594 193.621094 243.066406 194.871094 243.0625 196.363281 C 243.054688 197.855469 241.792969 199.101562 240.296875 199.082031 L 240.289062 199.082031 L 236.132812 199.074219 C 237.679688 200.058594 238.714844 201.777344 238.714844 203.730469 C 238.714844 206.769531 236.222656 209.257812 233.179688 209.257812 C 230.140625 209.257812 227.648438 206.769531 227.648438 203.730469 C 227.648438 201.765625 228.6875 200.027344 230.246094 199.046875 L 183.421875 198.917969 C 185.109375 199.867188 186.257812 201.667969 186.257812 203.730469 C 186.257812 206.769531 183.769531 209.257812 180.726562 209.257812 C 177.683594 209.257812 175.195312 206.769531 175.195312 203.730469 C 175.195312 201.089844 177.070312 198.867188 179.558594 198.328125 C 177.207031 197.496094 175.398438 195.785156 174.28125 193.164062 C 174.265625 193.132812 174.25 193.101562 174.238281 193.066406 C 173.382812 189.640625 174.902344 185.917969 178.039062 183.496094 C 178.046875 183.488281 178.054688 183.476562 178.0625 183.46875 C 178.070312 183.464844 178.074219 183.453125 178.082031 183.445312 C 178.109375 183.414062 178.136719 183.382812 178.171875 183.355469 L 184.867188 178.109375 L 163.984375 124.6875 L 150.738281 122.433594 C 150.734375 122.433594 150.734375 122.433594 150.730469 122.433594 C 149.339844 122.210938 148.320312 120.914062 148.441406 119.507812 C 148.558594 118.097656 149.789062 116.996094 151.203125 117.015625 Z M 177.367188 143.035156 L 181.214844 152.894531 L 186.234375 152.894531 L 186.234375 143.257812 Z M 188.148438 143.308594 L 188.148438 152.894531 L 197.414062 152.894531 L 197.414062 143.539062 Z M 199.332031 143.582031 L 199.332031 152.894531 L 208.597656 152.894531 L 208.597656 143.8125 Z M 210.515625 143.863281 L 210.515625 152.894531 L 219.78125 152.894531 L 219.78125 144.09375 Z M 221.695312 144.144531 L 221.695312 152.894531 L 230.964844 152.894531 L 230.964844 144.375 Z M 232.878906 144.417969 L 232.878906 152.894531 L 239.671875 152.894531 L 240.675781 144.617188 Z M 239.441406 154.800781 L 232.878906 154.800781 L 232.878906 163.460938 L 238.394531 163.460938 Z M 230.964844 154.800781 L 221.695312 154.800781 L 221.695312 163.460938 L 230.964844 163.460938 Z M 219.78125 154.800781 L 210.515625 154.800781 L 210.515625 163.460938 L 219.78125 163.460938 Z M 208.597656 154.800781 L 199.332031 154.800781 L 199.332031 163.460938 L 208.597656 163.460938 Z M 197.414062 154.800781 L 188.148438 154.800781 L 188.148438 163.460938 L 197.414062 163.460938 Z M 186.234375 154.800781 L 181.953125 154.800781 L 185.335938 163.460938 L 186.234375 163.460938 Z M 238.164062 165.363281 L 232.878906 165.363281 L 232.878906 171.578125 L 237.457031 171.214844 Z M 230.960938 165.363281 L 221.695312 165.363281 L 221.695312 172.464844 L 230.960938 171.730469 Z M 219.78125 165.363281 L 210.511719 165.363281 L 210.511719 173.351562 L 219.78125 172.625 Z M 208.597656 165.363281 L 199.332031 165.363281 L 199.332031 174.25 L 208.597656 173.511719 Z M 197.414062 165.363281 L 188.148438 165.363281 L 188.148438 170.636719 L 189.90625 175.136719 C 190.136719 175.023438 190.382812 174.957031 190.636719 174.9375 L 197.414062 174.398438 Z M 186.230469 165.363281 L 186.089844 165.363281 L 186.230469 165.753906 Z M 233.175781 200.484375 C 231.367188 200.484375 229.925781 201.925781 229.925781 203.730469 C 229.925781 205.539062 231.367188 206.972656 233.175781 206.972656 C 234.984375 206.972656 236.425781 205.539062 236.425781 203.730469 C 236.425781 201.925781 234.984375 200.484375 233.175781 200.484375 Z M 180.722656 200.484375 C 178.914062 200.484375 177.472656 201.925781 177.472656 203.730469 C 177.472656 205.539062 178.914062 206.972656 180.722656 206.972656 C 182.53125 206.972656 183.976562 205.539062 183.976562 203.730469 C 183.976562 201.925781 182.53125 200.484375 180.722656 200.484375 Z M 233.175781 202.023438 C 234.15625 202.023438 234.941406 202.808594 234.941406 203.789062 C 234.941406 204.769531 234.15625 205.546875 233.175781 205.546875 C 232.195312 205.546875 231.410156 204.769531 231.410156 203.789062 C 231.410156 202.808594 232.195312 202.023438 233.175781 202.023438 Z M 180.722656 202.023438 C 181.707031 202.023438 182.492188 202.808594 182.492188 203.789062 C 182.492188 204.769531 181.707031 205.546875 180.722656 205.546875 C 179.742188 205.546875 178.957031 204.769531 178.957031 203.789062 C 178.957031 202.808594 179.742188 202.023438 180.722656 202.023438 Z M 180.722656 202.023438 " fill-opacity="1" fill-rule="nonzero"/></g><g fill="#231f20" fill-opacity="1"><g transform="translate(80.682271, 251.237693)"><g><path d="M 2.09375 -28.875 L 12.640625 -28.875 C 15.578125 -28.875 17.953125 -28.113281 19.765625 -26.59375 C 21.585938 -25.082031 22.5 -22.878906 22.5 -19.984375 C 22.5 -17.085938 21.578125 -14.816406 19.734375 -13.171875 C 17.890625 -11.523438 15.523438 -10.703125 12.640625 -10.703125 L 8.6875 -10.703125 L 8.6875 0 L 2.09375 0 Z M 8.6875 -15.953125 L 10.53125 -15.953125 C 12 -15.953125 13.207031 -16.25 14.15625 -16.84375 C 15.101562 -17.445312 15.578125 -18.425781 15.578125 -19.78125 C 15.578125 -21.15625 15.101562 -22.140625 14.15625 -22.734375 C 13.207031 -23.328125 12 -23.625 10.53125 -23.625 L 8.6875 -23.625 Z M 8.6875 -15.953125 "/></g></g></g><g fill="#231f20" fill-opacity="1"><g transform="translate(103.987007, 251.237693)"><g><path d="M 18.625 -28.875 L 18.625 -23.09375 L 8.6875 -23.09375 L 8.6875 -17.359375 L 18.203125 -17.359375 L 18.203125 -11.578125 L 8.6875 -11.578125 L 8.6875 -5.78125 L 18.625 -5.78125 L 18.625 0 L 2.09375 0 L 2.09375 -28.875 Z M 18.625 -28.875 "/></g></g></g><g fill="#231f20" fill-opacity="1"><g transform="translate(124.282427, 251.237693)"><g><path d="M 16.765625 -28.875 L 28.421875 0 L 21.34375 0 L 19.21875 -5.78125 L 8.21875 -5.78125 L 6.09375 0 L -0.984375 0 L 10.671875 -28.875 Z M 16.96875 -11.546875 L 13.75 -19.953125 L 13.6875 -19.953125 L 10.46875 -11.546875 Z M 16.96875 -11.546875 "/></g></g></g><g fill="#231f20" fill-opacity="1"><g transform="translate(151.716236, 251.237693)"><g><path d="M 12.734375 -29.40625 C 14.296875 -29.40625 15.820312 -29.175781 17.3125 -28.71875 C 18.8125 -28.257812 19.925781 -27.8125 20.65625 -27.375 L 21.703125 -26.671875 L 19.046875 -21.421875 C 18.828125 -21.554688 18.53125 -21.734375 18.15625 -21.953125 C 17.789062 -22.179688 17.09375 -22.484375 16.0625 -22.859375 C 15.039062 -23.234375 14.082031 -23.421875 13.1875 -23.421875 C 12.09375 -23.421875 11.25 -23.1875 10.65625 -22.71875 C 10.0625 -22.25 9.765625 -21.617188 9.765625 -20.828125 C 9.765625 -20.429688 9.90625 -20.0625 10.1875 -19.71875 C 10.46875 -19.382812 10.945312 -19.023438 11.625 -18.640625 C 12.300781 -18.253906 12.894531 -17.941406 13.40625 -17.703125 C 13.914062 -17.472656 14.707031 -17.125 15.78125 -16.65625 C 17.644531 -15.863281 19.238281 -14.785156 20.5625 -13.421875 C 21.882812 -12.054688 22.546875 -10.507812 22.546875 -8.78125 C 22.546875 -7.125 22.242188 -5.675781 21.640625 -4.4375 C 21.046875 -3.207031 20.226562 -2.238281 19.1875 -1.53125 C 18.15625 -0.832031 17.007812 -0.316406 15.75 0.015625 C 14.488281 0.359375 13.125 0.53125 11.65625 0.53125 C 10.394531 0.53125 9.15625 0.398438 7.9375 0.140625 C 6.726562 -0.117188 5.710938 -0.441406 4.890625 -0.828125 C 4.078125 -1.210938 3.34375 -1.585938 2.6875 -1.953125 C 2.039062 -2.328125 1.566406 -2.644531 1.265625 -2.90625 L 0.8125 -3.296875 L 4.09375 -8.8125 C 4.375 -8.582031 4.757812 -8.285156 5.25 -7.921875 C 5.738281 -7.566406 6.609375 -7.082031 7.859375 -6.46875 C 9.109375 -5.863281 10.210938 -5.5625 11.171875 -5.5625 C 13.941406 -5.5625 15.328125 -6.507812 15.328125 -8.40625 C 15.328125 -8.800781 15.226562 -9.164062 15.03125 -9.5 C 14.832031 -9.84375 14.484375 -10.179688 13.984375 -10.515625 C 13.484375 -10.859375 13.039062 -11.128906 12.65625 -11.328125 C 12.269531 -11.523438 11.640625 -11.828125 10.765625 -12.234375 C 9.890625 -12.640625 9.238281 -12.945312 8.8125 -13.15625 C 7.0625 -14.019531 5.707031 -15.097656 4.75 -16.390625 C 3.800781 -17.691406 3.328125 -19.085938 3.328125 -20.578125 C 3.328125 -23.171875 4.28125 -25.289062 6.1875 -26.9375 C 8.101562 -28.582031 10.285156 -29.40625 12.734375 -29.40625 Z M 12.734375 -29.40625 "/></g></g></g><g fill="#231f20" fill-opacity="1"><g transform="translate(175.230925, 251.237693)"><g><path d="M -1.046875 -28.875 L 6.859375 -28.875 L 12.875 -19.640625 L 18.90625 -28.875 L 26.8125 -28.875 L 16.171875 -12.953125 L 16.171875 0 L 9.59375 0 L 9.59375 -12.953125 Z M -1.046875 -28.875 "/></g></g></g><g fill="#231f20" fill-opacity="1"><g transform="translate(200.985108, 251.237693)"><g><path d="M 2.09375 -28.875 L 10.46875 -28.875 C 14.476562 -28.875 17.90625 -27.503906 20.75 -24.765625 C 23.601562 -22.023438 25.03125 -18.585938 25.03125 -14.453125 C 25.03125 -10.296875 23.609375 -6.847656 20.765625 -4.109375 C 17.929688 -1.367188 14.5 0 10.46875 0 L 2.09375 0 Z M 8.6875 -5.875 L 9.6875 -5.875 C 12.09375 -5.875 14.0625 -6.6875 15.59375 -8.3125 C 17.125 -9.9375 17.898438 -11.972656 17.921875 -14.421875 C 17.921875 -16.867188 17.15625 -18.910156 15.625 -20.546875 C 14.09375 -22.179688 12.113281 -23 9.6875 -23 L 8.6875 -23 Z M 8.6875 -5.875 "/></g></g></g><g fill="#231f20" fill-opacity="1"><g transform="translate(226.809272, 251.237693)"><g><path d="M 18.625 -28.875 L 18.625 -23.09375 L 8.6875 -23.09375 L 8.6875 -17.359375 L 18.203125 -17.359375 L 18.203125 -11.578125 L 8.6875 -11.578125 L 8.6875 -5.78125 L 18.625 -5.78125 L 18.625 0 L 2.09375 0 L 2.09375 -28.875 Z M 18.625 -28.875 "/></g></g></g><g fill="#231f20" fill-opacity="1"><g transform="translate(247.104692, 251.237693)"><g><path d="M 16.765625 -28.875 L 28.421875 0 L 21.34375 0 L 19.21875 -5.78125 L 8.21875 -5.78125 L 6.09375 0 L -0.984375 0 L 10.671875 -28.875 Z M 16.96875 -11.546875 L 13.75 -19.953125 L 13.6875 -19.953125 L 10.46875 -11.546875 Z M 16.96875 -11.546875 "/></g></g></g><g fill="#231f20" fill-opacity="1"><g transform="translate(274.53849, 251.237693)"><g><path d="M 8.6875 -28.875 L 8.6875 -5.78125 L 18.625 -5.78125 L 18.625 0 L 2.09375 0 L 2.09375 -28.875 Z M 8.6875 -28.875 "/></g></g></g><g fill="#231f20" fill-opacity="1"><g transform="translate(112.414552, 273.787717)"><g><path d="M 4.6875 0.125 C 3.875 0.125 3.226562 -0.0234375 2.75 -0.328125 C 2.269531 -0.628906 1.972656 -0.910156 1.859375 -1.171875 L 1.8125 -1.171875 C 1.84375 -0.578125 1.859375 -0.265625 1.859375 -0.234375 C 1.859375 -0.078125 1.773438 0 1.609375 0 L 0.984375 0 C 0.828125 0 0.75 -0.078125 0.75 -0.234375 L 0.75 -2.9375 C 0.75 -3.09375 0.828125 -3.171875 0.984375 -3.171875 L 1.6875 -3.171875 C 1.851562 -3.171875 1.9375 -3.09375 1.9375 -2.9375 L 1.9375 -2.578125 C 2.0625 -2.210938 2.316406 -1.878906 2.703125 -1.578125 C 3.160156 -1.222656 3.726562 -1.046875 4.40625 -1.046875 C 5.75 -1.046875 6.421875 -1.515625 6.421875 -2.453125 C 6.421875 -2.773438 6.234375 -3.035156 5.859375 -3.234375 C 5.492188 -3.429688 5.039062 -3.59375 4.5 -3.71875 C 3.96875 -3.851562 3.4375 -4.003906 2.90625 -4.171875 C 2.382812 -4.335938 1.9375 -4.609375 1.5625 -4.984375 C 1.195312 -5.367188 1.015625 -5.847656 1.015625 -6.421875 C 1.015625 -7.203125 1.296875 -7.820312 1.859375 -8.28125 C 2.421875 -8.75 3.140625 -8.984375 4.015625 -8.984375 C 5.203125 -8.984375 6.050781 -8.632812 6.5625 -7.9375 L 6.609375 -7.9375 C 6.578125 -8.375 6.5625 -8.597656 6.5625 -8.609375 C 6.5625 -8.765625 6.640625 -8.84375 6.796875 -8.84375 L 7.375 -8.84375 C 7.53125 -8.84375 7.609375 -8.765625 7.609375 -8.609375 L 7.609375 -6.109375 C 7.609375 -5.953125 7.53125 -5.875 7.375 -5.875 L 6.671875 -5.875 C 6.503906 -5.875 6.421875 -5.953125 6.421875 -6.109375 L 6.421875 -6.359375 C 6.421875 -6.679688 6.234375 -7 5.859375 -7.3125 C 5.484375 -7.632812 4.992188 -7.796875 4.390625 -7.796875 C 3.785156 -7.796875 3.316406 -7.664062 2.984375 -7.40625 C 2.648438 -7.15625 2.484375 -6.828125 2.484375 -6.421875 C 2.484375 -6.023438 2.671875 -5.71875 3.046875 -5.5 C 3.429688 -5.28125 3.890625 -5.101562 4.421875 -4.96875 C 4.960938 -4.84375 5.503906 -4.703125 6.046875 -4.546875 C 6.585938 -4.390625 7.046875 -4.128906 7.421875 -3.765625 C 7.796875 -3.410156 7.984375 -2.914062 7.984375 -2.28125 C 7.984375 -1.644531 7.710938 -1.082031 7.171875 -0.59375 C 6.628906 -0.113281 5.800781 0.125 4.6875 0.125 Z M 4.6875 0.125 "/></g></g></g><g fill="#231f20" fill-opacity="1"><g transform="translate(121.162529, 273.787717)"><g><path d="M 10.265625 0 L 8.546875 0 C 8.035156 0 7.78125 -0.25 7.78125 -0.75 L 7.78125 -5.484375 C 7.78125 -6.179688 7.609375 -6.722656 7.265625 -7.109375 C 6.929688 -7.492188 6.441406 -7.6875 5.796875 -7.6875 C 5.304688 -7.6875 4.929688 -7.609375 4.671875 -7.453125 C 4.410156 -7.304688 4.210938 -7.175781 4.078125 -7.0625 C 3.953125 -6.945312 3.847656 -6.835938 3.765625 -6.734375 C 3.617188 -6.535156 3.5 -6.335938 3.40625 -6.140625 L 3.40625 -1.203125 L 4.359375 -1.203125 C 4.515625 -1.203125 4.59375 -1.128906 4.59375 -0.984375 L 4.59375 -0.21875 C 4.59375 -0.0703125 4.515625 0 4.359375 0 L 0.921875 0 C 0.765625 0 0.6875 -0.0703125 0.6875 -0.21875 L 0.6875 -0.984375 C 0.6875 -1.128906 0.765625 -1.203125 0.921875 -1.203125 L 1.90625 -1.203125 L 1.90625 -11.71875 L 0.921875 -11.71875 C 0.765625 -11.71875 0.6875 -11.789062 0.6875 -11.9375 L 0.6875 -12.703125 C 0.6875 -12.847656 0.765625 -12.921875 0.921875 -12.921875 L 3.1875 -12.921875 C 3.332031 -12.921875 3.40625 -12.847656 3.40625 -12.703125 L 3.40625 -8.6875 C 3.40625 -8.289062 3.378906 -7.925781 3.328125 -7.59375 L 3.359375 -7.59375 C 3.953125 -8.519531 4.890625 -8.984375 6.171875 -8.984375 C 7.128906 -8.984375 7.878906 -8.703125 8.421875 -8.140625 C 8.960938 -7.578125 9.238281 -6.8125 9.25 -5.84375 L 9.25 -1.203125 L 10.265625 -1.203125 C 10.421875 -1.203125 10.5 -1.128906 10.5 -0.984375 L 10.5 -0.21875 C 10.5 -0.0703125 10.421875 0 10.265625 0 Z M 10.265625 0 "/></g></g></g><g fill="#231f20" fill-opacity="1"><g transform="translate(132.340499, 273.787717)"><g><path d="M 8.375 -1.125 C 7.539062 -0.289062 6.46875 0.125 5.15625 0.125 C 3.851562 0.125 2.78125 -0.289062 1.9375 -1.125 C 1.101562 -1.957031 0.6875 -3.066406 0.6875 -4.453125 C 0.6875 -5.835938 1.109375 -6.9375 1.953125 -7.75 C 2.804688 -8.570312 3.878906 -8.984375 5.171875 -8.984375 C 6.460938 -8.984375 7.53125 -8.570312 8.375 -7.75 C 9.21875 -6.925781 9.640625 -5.828125 9.640625 -4.453125 C 9.640625 -3.078125 9.21875 -1.96875 8.375 -1.125 Z M 2.203125 -4.4375 C 2.203125 -3.457031 2.488281 -2.660156 3.0625 -2.046875 C 3.632812 -1.441406 4.335938 -1.140625 5.171875 -1.140625 C 6.003906 -1.140625 6.707031 -1.441406 7.28125 -2.046875 C 7.863281 -2.660156 8.15625 -3.457031 8.15625 -4.4375 C 8.15625 -5.425781 7.863281 -6.21875 7.28125 -6.8125 C 6.695312 -7.414062 5.992188 -7.71875 5.171875 -7.71875 C 4.359375 -7.71875 3.660156 -7.414062 3.078125 -6.8125 C 2.492188 -6.21875 2.203125 -5.425781 2.203125 -4.4375 Z M 2.203125 -4.4375 "/></g></g></g><g fill="#231f20" fill-opacity="1"><g transform="translate(142.690467, 273.787717)"><g><path d="M 4.53125 4.046875 L 0.921875 4.046875 C 0.765625 4.046875 0.6875 3.972656 0.6875 3.828125 L 0.6875 3.0625 C 0.6875 2.914062 0.765625 2.84375 0.921875 2.84375 L 1.921875 2.84375 L 1.921875 -7.65625 L 0.953125 -7.65625 C 0.796875 -7.65625 0.71875 -7.722656 0.71875 -7.859375 L 0.71875 -8.640625 C 0.71875 -8.785156 0.796875 -8.859375 0.953125 -8.859375 L 3.0625 -8.859375 C 3.21875 -8.859375 3.296875 -8.785156 3.296875 -8.640625 L 3.28125 -7.21875 L 3.296875 -7.21875 C 3.523438 -7.707031 3.894531 -8.125 4.40625 -8.46875 C 4.914062 -8.8125 5.539062 -8.984375 6.28125 -8.984375 C 7.488281 -8.984375 8.460938 -8.570312 9.203125 -7.75 C 9.953125 -6.925781 10.328125 -5.832031 10.328125 -4.46875 C 10.328125 -3.113281 9.960938 -2.007812 9.234375 -1.15625 C 8.503906 -0.300781 7.523438 0.125 6.296875 0.125 C 5.554688 0.125 4.9375 -0.046875 4.4375 -0.390625 C 3.9375 -0.734375 3.578125 -1.148438 3.359375 -1.640625 L 3.3125 -1.640625 C 3.34375 -1.253906 3.359375 -0.976562 3.359375 -0.8125 L 3.359375 2.84375 L 4.53125 2.84375 C 4.6875 2.84375 4.765625 2.914062 4.765625 3.0625 L 4.765625 3.828125 C 4.765625 3.972656 4.6875 4.046875 4.53125 4.046875 Z M 3.328125 -4.390625 C 3.328125 -3.347656 3.597656 -2.546875 4.140625 -1.984375 C 4.691406 -1.421875 5.351562 -1.140625 6.125 -1.140625 C 6.90625 -1.140625 7.554688 -1.441406 8.078125 -2.046875 C 8.597656 -2.648438 8.859375 -3.445312 8.859375 -4.4375 C 8.859375 -5.425781 8.597656 -6.21875 8.078125 -6.8125 C 7.554688 -7.414062 6.90625 -7.71875 6.125 -7.71875 C 5.34375 -7.71875 4.679688 -7.421875 4.140625 -6.828125 C 3.597656 -6.242188 3.328125 -5.429688 3.328125 -4.390625 Z M 3.328125 -4.390625 "/></g></g></g><g fill="#231f20" fill-opacity="1"><g transform="translate(153.724436, 273.787717)"><g/></g></g><g fill="#231f20" fill-opacity="1"><g transform="translate(159.358419, 273.787717)"><g><path d="M 3.0625 0 L 2.140625 0 C 1.992188 0 1.921875 -0.0703125 1.921875 -0.21875 L 1.921875 -11.71875 L 0.921875 -11.71875 C 0.765625 -11.71875 0.6875 -11.789062 0.6875 -11.9375 L 0.6875 -12.703125 C 0.6875 -12.847656 0.765625 -12.921875 0.921875 -12.921875 L 3.125 -12.921875 C 3.28125 -12.921875 3.359375 -12.847656 3.359375 -12.703125 L 3.359375 -7.921875 L 3.3125 -7.21875 L 3.359375 -7.21875 C 3.566406 -7.707031 3.921875 -8.125 4.421875 -8.46875 C 4.929688 -8.8125 5.554688 -8.984375 6.296875 -8.984375 C 7.515625 -8.984375 8.488281 -8.566406 9.21875 -7.734375 C 9.957031 -6.898438 10.328125 -5.800781 10.328125 -4.4375 C 10.328125 -3.070312 9.953125 -1.96875 9.203125 -1.125 C 8.453125 -0.289062 7.476562 0.125 6.28125 0.125 C 5.519531 0.125 4.890625 -0.0507812 4.390625 -0.40625 C 3.890625 -0.757812 3.53125 -1.1875 3.3125 -1.6875 L 3.296875 -1.6875 L 3.296875 -0.21875 C 3.296875 -0.0703125 3.21875 0 3.0625 0 Z M 3.328125 -4.453125 C 3.328125 -3.453125 3.585938 -2.648438 4.109375 -2.046875 C 4.628906 -1.441406 5.289062 -1.140625 6.09375 -1.140625 C 6.90625 -1.140625 7.566406 -1.441406 8.078125 -2.046875 C 8.597656 -2.660156 8.859375 -3.460938 8.859375 -4.453125 C 8.859375 -5.441406 8.59375 -6.234375 8.0625 -6.828125 C 7.53125 -7.421875 6.867188 -7.71875 6.078125 -7.71875 C 5.296875 -7.71875 4.640625 -7.421875 4.109375 -6.828125 C 3.585938 -6.242188 3.328125 -5.453125 3.328125 -4.453125 Z M 3.328125 -4.453125 "/></g></g></g><g fill="#231f20" fill-opacity="1"><g transform="translate(170.392388, 273.787717)"><g><path d="M 8.6875 -4.25 L 2.21875 -4.25 C 2.257812 -3.25 2.570312 -2.476562 3.15625 -1.9375 C 3.738281 -1.40625 4.394531 -1.140625 5.125 -1.140625 C 5.863281 -1.140625 6.492188 -1.289062 7.015625 -1.59375 C 7.535156 -1.90625 7.882812 -2.210938 8.0625 -2.515625 C 8.15625 -2.640625 8.265625 -2.660156 8.390625 -2.578125 L 8.875 -2.09375 C 8.945312 -2.019531 8.984375 -1.953125 8.984375 -1.890625 C 8.984375 -1.835938 8.953125 -1.769531 8.890625 -1.6875 C 8.835938 -1.601562 8.726562 -1.472656 8.5625 -1.296875 C 8.394531 -1.117188 8.15625 -0.914062 7.84375 -0.6875 C 7.539062 -0.457031 7.144531 -0.265625 6.65625 -0.109375 C 6.175781 0.046875 5.660156 0.125 5.109375 0.125 C 3.847656 0.125 2.796875 -0.285156 1.953125 -1.109375 C 1.109375 -1.941406 0.6875 -3.054688 0.6875 -4.453125 C 0.6875 -5.847656 1.101562 -6.953125 1.9375 -7.765625 C 2.78125 -8.578125 3.8125 -8.984375 5.03125 -8.984375 C 6.25 -8.984375 7.207031 -8.585938 7.90625 -7.796875 C 8.601562 -7.015625 8.953125 -5.957031 8.953125 -4.625 C 8.953125 -4.570312 8.953125 -4.523438 8.953125 -4.484375 C 8.953125 -4.328125 8.863281 -4.25 8.6875 -4.25 Z M 7.453125 -5.34375 C 7.410156 -6.09375 7.175781 -6.6875 6.75 -7.125 C 6.320312 -7.570312 5.742188 -7.796875 5.015625 -7.796875 C 4.296875 -7.796875 3.675781 -7.585938 3.15625 -7.171875 C 2.644531 -6.765625 2.34375 -6.15625 2.25 -5.34375 Z M 7.453125 -5.34375 "/></g></g></g><g fill="#231f20" fill-opacity="1"><g transform="translate(180.076355, 273.787717)"><g><path d="M 6.703125 -0.921875 C 6.742188 -0.867188 6.765625 -0.816406 6.765625 -0.765625 C 6.765625 -0.710938 6.726562 -0.648438 6.65625 -0.578125 C 6.132812 -0.109375 5.472656 0.125 4.671875 0.125 C 3.867188 0.125 3.210938 -0.132812 2.703125 -0.65625 C 2.191406 -1.175781 1.9375 -1.9375 1.9375 -2.9375 L 1.9375 -7.65625 L 0.9375 -7.65625 C 0.769531 -7.65625 0.6875 -7.734375 0.6875 -7.890625 L 0.6875 -8.625 C 0.6875 -8.78125 0.769531 -8.859375 0.9375 -8.859375 L 1.9375 -8.859375 L 1.9375 -10.671875 C 1.9375 -10.835938 2.023438 -10.921875 2.203125 -10.921875 L 3.203125 -10.921875 C 3.359375 -10.921875 3.4375 -10.835938 3.4375 -10.671875 L 3.4375 -8.859375 L 5.71875 -8.859375 C 5.882812 -8.859375 5.96875 -8.78125 5.96875 -8.625 L 5.96875 -7.890625 C 5.96875 -7.734375 5.882812 -7.65625 5.71875 -7.65625 L 3.4375 -7.65625 L 3.4375 -2.96875 C 3.4375 -2.363281 3.570312 -1.910156 3.84375 -1.609375 C 4.113281 -1.304688 4.472656 -1.15625 4.921875 -1.15625 C 5.367188 -1.15625 5.707031 -1.269531 5.9375 -1.5 C 6.0625 -1.601562 6.171875 -1.59375 6.265625 -1.46875 Z M 6.703125 -0.921875 "/></g></g></g><g fill="#231f20" fill-opacity="1"><g transform="translate(187.294338, 273.787717)"><g><path d="M 6.703125 -0.921875 C 6.742188 -0.867188 6.765625 -0.816406 6.765625 -0.765625 C 6.765625 -0.710938 6.726562 -0.648438 6.65625 -0.578125 C 6.132812 -0.109375 5.472656 0.125 4.671875 0.125 C 3.867188 0.125 3.210938 -0.132812 2.703125 -0.65625 C 2.191406 -1.175781 1.9375 -1.9375 1.9375 -2.9375 L 1.9375 -7.65625 L 0.9375 -7.65625 C 0.769531 -7.65625 0.6875 -7.734375 0.6875 -7.890625 L 0.6875 -8.625 C 0.6875 -8.78125 0.769531 -8.859375 0.9375 -8.859375 L 1.9375 -8.859375 L 1.9375 -10.671875 C 1.9375 -10.835938 2.023438 -10.921875 2.203125 -10.921875 L 3.203125 -10.921875 C 3.359375 -10.921875 3.4375 -10.835938 3.4375 -10.671875 L 3.4375 -8.859375 L 5.71875 -8.859375 C 5.882812 -8.859375 5.96875 -8.78125 5.96875 -8.625 L 5.96875 -7.890625 C 5.96875 -7.734375 5.882812 -7.65625 5.71875 -7.65625 L 3.4375 -7.65625 L 3.4375 -2.96875 C 3.4375 -2.363281 3.570312 -1.910156 3.84375 -1.609375 C 4.113281 -1.304688 4.472656 -1.15625 4.921875 -1.15625 C 5.367188 -1.15625 5.707031 -1.269531 5.9375 -1.5 C 6.0625 -1.601562 6.171875 -1.59375 6.265625 -1.46875 Z M 6.703125 -0.921875 "/></g></g></g><g fill="#231f20" fill-opacity="1"><g transform="translate(194.512321, 273.787717)"><g><path d="M 8.6875 -4.25 L 2.21875 -4.25 C 2.257812 -3.25 2.570312 -2.476562 3.15625 -1.9375 C 3.738281 -1.40625 4.394531 -1.140625 5.125 -1.140625 C 5.863281 -1.140625 6.492188 -1.289062 7.015625 -1.59375 C 7.535156 -1.90625 7.882812 -2.210938 8.0625 -2.515625 C 8.15625 -2.640625 8.265625 -2.660156 8.390625 -2.578125 L 8.875 -2.09375 C 8.945312 -2.019531 8.984375 -1.953125 8.984375 -1.890625 C 8.984375 -1.835938 8.953125 -1.769531 8.890625 -1.6875 C 8.835938 -1.601562 8.726562 -1.472656 8.5625 -1.296875 C 8.394531 -1.117188 8.15625 -0.914062 7.84375 -0.6875 C 7.539062 -0.457031 7.144531 -0.265625 6.65625 -0.109375 C 6.175781 0.046875 5.660156 0.125 5.109375 0.125 C 3.847656 0.125 2.796875 -0.285156 1.953125 -1.109375 C 1.109375 -1.941406 0.6875 -3.054688 0.6875 -4.453125 C 0.6875 -5.847656 1.101562 -6.953125 1.9375 -7.765625 C 2.78125 -8.578125 3.8125 -8.984375 5.03125 -8.984375 C 6.25 -8.984375 7.207031 -8.585938 7.90625 -7.796875 C 8.601562 -7.015625 8.953125 -5.957031 8.953125 -4.625 C 8.953125 -4.570312 8.953125 -4.523438 8.953125 -4.484375 C 8.953125 -4.328125 8.863281 -4.25 8.6875 -4.25 Z M 7.453125 -5.34375 C 7.410156 -6.09375 7.175781 -6.6875 6.75 -7.125 C 6.320312 -7.570312 5.742188 -7.796875 5.015625 -7.796875 C 4.296875 -7.796875 3.675781 -7.585938 3.15625 -7.171875 C 2.644531 -6.765625 2.34375 -6.15625 2.25 -5.34375 Z M 7.453125 -5.34375 "/></g></g></g><g fill="#231f20" fill-opacity="1"><g transform="translate(204.196288, 273.787717)"><g><path d="M 4.359375 0 L 0.921875 0 C 0.765625 0 0.6875 -0.0703125 0.6875 -0.21875 L 0.6875 -0.984375 C 0.6875 -1.128906 0.765625 -1.203125 0.921875 -1.203125 L 1.90625 -1.203125 L 1.90625 -7.65625 L 0.921875 -7.65625 C 0.765625 -7.65625 0.6875 -7.722656 0.6875 -7.859375 L 0.6875 -8.640625 C 0.6875 -8.785156 0.765625 -8.859375 0.921875 -8.859375 L 3.03125 -8.859375 C 3.1875 -8.859375 3.265625 -8.785156 3.265625 -8.640625 L 3.265625 -6.390625 L 3.3125 -6.390625 C 3.34375 -6.578125 3.46875 -6.835938 3.6875 -7.171875 C 3.90625 -7.515625 4.140625 -7.796875 4.390625 -8.015625 C 4.648438 -8.242188 5.023438 -8.445312 5.515625 -8.625 C 6.003906 -8.800781 6.550781 -8.890625 7.15625 -8.890625 C 7.3125 -8.890625 7.390625 -8.8125 7.390625 -8.65625 L 7.390625 -7.703125 C 7.390625 -7.546875 7.3125 -7.46875 7.15625 -7.46875 L 6.78125 -7.46875 C 5.75 -7.46875 4.925781 -7.132812 4.3125 -6.46875 C 3.707031 -5.8125 3.40625 -5.066406 3.40625 -4.234375 L 3.40625 -1.203125 L 4.359375 -1.203125 C 4.515625 -1.203125 4.59375 -1.128906 4.59375 -0.984375 L 4.59375 -0.21875 C 4.59375 -0.0703125 4.515625 0 4.359375 0 Z M 4.359375 0 "/></g></g></g><g fill="#231f20" fill-opacity="1"><g transform="translate(211.774267, 273.787717)"><g/></g></g><g fill="#231f20" fill-opacity="1"><g transform="translate(217.408251, 273.787717)"><g><path d="M 10.109375 0 L 8.546875 0 C 8.273438 0 8.078125 -0.0546875 7.953125 -0.171875 C 7.828125 -0.285156 7.765625 -0.476562 7.765625 -0.75 L 7.765625 -1.765625 L 7.734375 -1.765625 C 7.546875 -1.265625 7.1875 -0.820312 6.65625 -0.4375 C 6.132812 -0.0625 5.492188 0.125 4.734375 0.125 C 3.535156 0.125 2.5625 -0.289062 1.8125 -1.125 C 1.0625 -1.96875 0.6875 -3.070312 0.6875 -4.4375 C 0.6875 -5.800781 1.0625 -6.898438 1.8125 -7.734375 C 2.5625 -8.566406 3.539062 -8.984375 4.75 -8.984375 C 5.5 -8.984375 6.117188 -8.8125 6.609375 -8.46875 C 7.097656 -8.125 7.453125 -7.707031 7.671875 -7.21875 L 7.6875 -7.21875 C 7.675781 -7.457031 7.671875 -7.65625 7.671875 -7.8125 L 7.671875 -11.71875 L 6.65625 -11.71875 C 6.5 -11.71875 6.421875 -11.789062 6.421875 -11.9375 L 6.421875 -12.703125 C 6.421875 -12.847656 6.5 -12.921875 6.65625 -12.921875 L 8.890625 -12.921875 C 9.035156 -12.921875 9.109375 -12.847656 9.109375 -12.703125 L 9.109375 -1.203125 L 10.109375 -1.203125 C 10.253906 -1.203125 10.328125 -1.128906 10.328125 -0.984375 L 10.328125 -0.21875 C 10.328125 -0.0703125 10.253906 0 10.109375 0 Z M 2.15625 -4.453125 C 2.15625 -3.460938 2.414062 -2.660156 2.9375 -2.046875 C 3.457031 -1.441406 4.117188 -1.140625 4.921875 -1.140625 C 5.734375 -1.140625 6.394531 -1.441406 6.90625 -2.046875 C 7.425781 -2.648438 7.6875 -3.453125 7.6875 -4.453125 C 7.6875 -5.460938 7.421875 -6.257812 6.890625 -6.84375 C 6.367188 -7.425781 5.71875 -7.71875 4.9375 -7.71875 C 4.15625 -7.71875 3.492188 -7.421875 2.953125 -6.828125 C 2.421875 -6.242188 2.15625 -5.453125 2.15625 -4.453125 Z M 2.15625 -4.453125 "/></g></g></g><g fill="#231f20" fill-opacity="1"><g transform="translate(228.424218, 273.787717)"><g><path d="M 8.6875 -4.25 L 2.21875 -4.25 C 2.257812 -3.25 2.570312 -2.476562 3.15625 -1.9375 C 3.738281 -1.40625 4.394531 -1.140625 5.125 -1.140625 C 5.863281 -1.140625 6.492188 -1.289062 7.015625 -1.59375 C 7.535156 -1.90625 7.882812 -2.210938 8.0625 -2.515625 C 8.15625 -2.640625 8.265625 -2.660156 8.390625 -2.578125 L 8.875 -2.09375 C 8.945312 -2.019531 8.984375 -1.953125 8.984375 -1.890625 C 8.984375 -1.835938 8.953125 -1.769531 8.890625 -1.6875 C 8.835938 -1.601562 8.726562 -1.472656 8.5625 -1.296875 C 8.394531 -1.117188 8.15625 -0.914062 7.84375 -0.6875 C 7.539062 -0.457031 7.144531 -0.265625 6.65625 -0.109375 C 6.175781 0.046875 5.660156 0.125 5.109375 0.125 C 3.847656 0.125 2.796875 -0.285156 1.953125 -1.109375 C 1.109375 -1.941406 0.6875 -3.054688 0.6875 -4.453125 C 0.6875 -5.847656 1.101562 -6.953125 1.9375 -7.765625 C 2.78125 -8.578125 3.8125 -8.984375 5.03125 -8.984375 C 6.25 -8.984375 7.207031 -8.585938 7.90625 -7.796875 C 8.601562 -7.015625 8.953125 -5.957031 8.953125 -4.625 C 8.953125 -4.570312 8.953125 -4.523438 8.953125 -4.484375 C 8.953125 -4.328125 8.863281 -4.25 8.6875 -4.25 Z M 7.453125 -5.34375 C 7.410156 -6.09375 7.175781 -6.6875 6.75 -7.125 C 6.320312 -7.570312 5.742188 -7.796875 5.015625 -7.796875 C 4.296875 -7.796875 3.675781 -7.585938 3.15625 -7.171875 C 2.644531 -6.765625 2.34375 -6.15625 2.25 -5.34375 Z M 7.453125 -5.34375 "/></g></g></g><g fill="#231f20" fill-opacity="1"><g transform="translate(238.108185, 273.787717)"><g><path d="M 9.515625 0 L 7.953125 0 C 7.441406 0 7.1875 -0.25 7.1875 -0.75 L 7.1875 -1.671875 L 7.140625 -1.671875 C 6.265625 -0.460938 5.097656 0.140625 3.640625 0.140625 C 2.773438 0.140625 2.066406 -0.0820312 1.515625 -0.53125 C 0.960938 -0.976562 0.6875 -1.585938 0.6875 -2.359375 C 0.6875 -3.335938 1.113281 -4.054688 1.96875 -4.515625 C 2.832031 -4.984375 4.015625 -5.21875 5.515625 -5.21875 L 7.015625 -5.21875 L 7.015625 -5.4375 C 7.015625 -6.9375 6.238281 -7.6875 4.6875 -7.6875 C 3.945312 -7.6875 3.414062 -7.613281 3.09375 -7.46875 C 2.769531 -7.332031 2.539062 -7.222656 2.40625 -7.140625 C 2.269531 -7.054688 2.164062 -6.992188 2.09375 -6.953125 C 1.90625 -6.804688 1.769531 -6.789062 1.6875 -6.90625 L 1.1875 -7.546875 C 1.101562 -7.640625 1.113281 -7.734375 1.21875 -7.828125 C 1.425781 -8.085938 1.847656 -8.347656 2.484375 -8.609375 C 3.117188 -8.859375 3.867188 -8.984375 4.734375 -8.984375 C 7.253906 -8.984375 8.515625 -7.78125 8.515625 -5.375 L 8.515625 -1.203125 L 9.515625 -1.203125 C 9.660156 -1.203125 9.734375 -1.128906 9.734375 -0.984375 L 9.734375 -0.21875 C 9.734375 -0.0703125 9.660156 0 9.515625 0 Z M 7.015625 -4.140625 L 5.59375 -4.140625 C 4.894531 -4.140625 4.316406 -4.101562 3.859375 -4.03125 C 3.410156 -3.957031 3.023438 -3.800781 2.703125 -3.5625 C 2.390625 -3.320312 2.234375 -2.988281 2.234375 -2.5625 C 2.234375 -2.144531 2.40625 -1.800781 2.75 -1.53125 C 3.09375 -1.269531 3.539062 -1.140625 4.09375 -1.140625 C 5.25 -1.140625 6.222656 -1.65625 7.015625 -2.6875 Z M 7.015625 -4.140625 "/></g></g></g><g fill="#231f20" fill-opacity="1"><g transform="translate(248.548149, 273.787717)"><g><path d="M 4.359375 0 L 0.921875 0 C 0.765625 0 0.6875 -0.0703125 0.6875 -0.21875 L 0.6875 -0.984375 C 0.6875 -1.128906 0.765625 -1.203125 0.921875 -1.203125 L 1.90625 -1.203125 L 1.90625 -11.71875 L 0.921875 -11.71875 C 0.765625 -11.71875 0.6875 -11.789062 0.6875 -11.9375 L 0.6875 -12.703125 C 0.6875 -12.847656 0.765625 -12.921875 0.921875 -12.921875 L 2.921875 -12.921875 C 3.242188 -12.921875 3.40625 -12.769531 3.40625 -12.46875 L 3.40625 -1.203125 L 4.359375 -1.203125 C 4.515625 -1.203125 4.59375 -1.128906 4.59375 -0.984375 L 4.59375 -0.21875 C 4.59375 -0.0703125 4.515625 0 4.359375 0 Z M 4.359375 0 "/></g></g></g><g fill="#231f20" fill-opacity="1"><g transform="translate(253.822135, 273.787717)"><g><path d="M 4.6875 0.125 C 3.875 0.125 3.226562 -0.0234375 2.75 -0.328125 C 2.269531 -0.628906 1.972656 -0.910156 1.859375 -1.171875 L 1.8125 -1.171875 C 1.84375 -0.578125 1.859375 -0.265625 1.859375 -0.234375 C 1.859375 -0.078125 1.773438 0 1.609375 0 L 0.984375 0 C 0.828125 0 0.75 -0.078125 0.75 -0.234375 L 0.75 -2.9375 C 0.75 -3.09375 0.828125 -3.171875 0.984375 -3.171875 L 1.6875 -3.171875 C 1.851562 -3.171875 1.9375 -3.09375 1.9375 -2.9375 L 1.9375 -2.578125 C 2.0625 -2.210938 2.316406 -1.878906 2.703125 -1.578125 C 3.160156 -1.222656 3.726562 -1.046875 4.40625 -1.046875 C 5.75 -1.046875 6.421875 -1.515625 6.421875 -2.453125 C 6.421875 -2.773438 6.234375 -3.035156 5.859375 -3.234375 C 5.492188 -3.429688 5.039062 -3.59375 4.5 -3.71875 C 3.96875 -3.851562 3.4375 -4.003906 2.90625 -4.171875 C 2.382812 -4.335938 1.9375 -4.609375 1.5625 -4.984375 C 1.195312 -5.367188 1.015625 -5.847656 1.015625 -6.421875 C 1.015625 -7.203125 1.296875 -7.820312 1.859375 -8.28125 C 2.421875 -8.75 3.140625 -8.984375 4.015625 -8.984375 C 5.203125 -8.984375 6.050781 -8.632812 6.5625 -7.9375 L 6.609375 -7.9375 C 6.578125 -8.375 6.5625 -8.597656 6.5625 -8.609375 C 6.5625 -8.765625 6.640625 -8.84375 6.796875 -8.84375 L 7.375 -8.84375 C 7.53125 -8.84375 7.609375 -8.765625 7.609375 -8.609375 L 7.609375 -6.109375 C 7.609375 -5.953125 7.53125 -5.875 7.375 -5.875 L 6.671875 -5.875 C 6.503906 -5.875 6.421875 -5.953125 6.421875 -6.109375 L 6.421875 -6.359375 C 6.421875 -6.679688 6.234375 -7 5.859375 -7.3125 C 5.484375 -7.632812 4.992188 -7.796875 4.390625 -7.796875 C 3.785156 -7.796875 3.316406 -7.664062 2.984375 -7.40625 C 2.648438 -7.15625 2.484375 -6.828125 2.484375 -6.421875 C 2.484375 -6.023438 2.671875 -5.71875 3.046875 -5.5 C 3.429688 -5.28125 3.890625 -5.101562 4.421875 -4.96875 C 4.960938 -4.84375 5.503906 -4.703125 6.046875 -4.546875 C 6.585938 -4.390625 7.046875 -4.128906 7.421875 -3.765625 C 7.796875 -3.410156 7.984375 -2.914062 7.984375 -2.28125 C 7.984375 -1.644531 7.710938 -1.082031 7.171875 -0.59375 C 6.628906 -0.113281 5.800781 0.125 4.6875 0.125 Z M 4.6875 0.125 "/></g></g></g></svg>