<svg class='logo' id="_圖層_1" xmlns="http://www.w3.org/2000/svg" viewBox="0 0 1812.3 343" height="60px">
  <defs>
    <style>.cls-1{fill:none;}.cls-2{fill:#d02e7d;}.cls-3{fill:#211815;}</style>
  </defs>
  <g>
    <g>
      <path class="cls-2" d="M1157.55,300.74c-2.92,0-5.24-.07-6.99-.22-1.74-.15-3.86-.67-6.36-1.56-2.5-.89-4.53-2.22-6.08-4-1.56-1.78-2.59-3.93-3.08-6.45-.49-2.52-.67-4.62-.53-6.3,.14-1.68,.45-3.9,.94-6.67l28.35-160.76c.49-2.77,.96-4.99,1.41-6.67,.45-1.68,1.37-3.78,2.75-6.3,1.38-2.52,3.17-4.67,5.35-6.45,2.19-1.78,4.69-3.11,7.5-4s5.11-1.41,6.91-1.56c1.79-.15,4.15-.22,7.06-.22h54.01c15.19,0,27.67,2.45,37.42,7.34,9.75,4.89,17.84,12.73,24.27,23.5,5,8.21,7.37,17.52,7.09,27.96-.28,10.43-2.25,26.03-5.91,46.79-3.66,20.76-7.19,36.36-10.59,46.79-3.4,10.43-9.05,19.75-16.95,27.95-10.23,10.78-21.08,18.61-32.56,23.5-11.48,4.89-24.81,7.34-40.01,7.34h-54.01Zm47.92-174.4l-24.27,137.62h33.09c14.36,0,25.95-4.35,34.77-13.05,4.65-4.55,8.18-10.55,10.59-18.02,2.41-7.46,5.17-20.04,8.29-37.74,3.12-17.7,4.79-30.28,5.02-37.74,.22-7.46-1.19-13.47-4.24-18.02-5.75-8.7-15.81-13.05-30.17-13.05h-33.09Z" />
      <path class="cls-2" d="M1332.54,300.74c-2.92,0-5.24-.07-6.99-.22-1.74-.15-3.86-.67-6.36-1.56-2.5-.89-4.53-2.22-6.08-4-1.56-1.78-2.59-3.93-3.08-6.45-.49-2.52-.67-4.62-.53-6.3,.14-1.68,.45-3.9,.94-6.67l28.35-160.76c.49-2.77,.96-4.99,1.41-6.67,.45-1.68,1.37-3.78,2.75-6.3,1.38-2.52,3.17-4.67,5.35-6.45,2.19-1.78,4.69-3.11,7.5-4s5.11-1.41,6.91-1.56c1.79-.15,4.15-.22,7.06-.22h95.22c8.12,0,13.65,.79,16.6,2.37,2.57,1.39,4.43,3.51,5.59,6.38,1.16,2.87,1.43,6.08,.8,9.64-.63,3.56-2.03,6.77-4.2,9.64-2.17,2.87-4.78,4.99-7.84,6.38-3.51,1.58-9.32,2.37-17.43,2.37h-78.05l-8.73,49.53h63.07c8.12,0,13.65,.79,16.6,2.37,2.57,1.39,4.43,3.51,5.59,6.38,1.16,2.87,1.43,6.08,.8,9.64-.63,3.56-2.03,6.77-4.2,9.64-2.17,2.87-4.78,4.99-7.84,6.38-3.51,1.58-9.32,2.37-17.43,2.37h-63.07l-9.05,51.31h78.05c8.12,0,13.65,.79,16.6,2.37,2.57,1.38,4.43,3.51,5.59,6.38,1.16,2.87,1.43,6.08,.8,9.64s-2.03,6.77-4.2,9.64c-2.17,2.87-4.78,4.99-7.84,6.38-3.51,1.58-9.32,2.37-17.43,2.37h-95.22Z" />
      <path class="cls-2" d="M1610.94,107.36l35.66,161.65c.91,4.25,1.47,7.61,1.66,10.08,.19,2.47-.27,5.19-1.36,8.16-1.1,2.97-3.12,5.73-6.07,8.3-4.91,4.25-10.49,6.38-16.74,6.38-4.68,0-8.46-1.28-11.34-3.86-1.61-1.48-2.84-3.24-3.68-5.26-.84-2.03-1.77-5.46-2.79-10.31l-3.96-19.13h-86.79l-10.71,19.13c-2.73,4.84-4.87,8.28-6.42,10.31-1.56,2.03-3.4,3.78-5.53,5.26-3.79,2.57-8.02,3.86-12.7,3.86-6.24,0-11.07-2.13-14.49-6.38-2.04-2.57-3.09-5.34-3.14-8.3-.05-2.97,.46-5.68,1.52-8.16,1.06-2.47,2.8-5.83,5.21-10.08l92.66-161.65c3.87-6.62,7.66-11.27,11.36-13.94,4.55-3.36,10.05-5.04,16.5-5.04s11.36,1.68,14.72,5.04c2.75,2.67,4.9,7.32,6.44,13.94Zm-32.38,44.64l-43.34,76.67h59.63l-16.3-76.67Z" />
      <path class="cls-2" d="M1688.29,300.74c-2.92,0-5.24-.07-6.99-.22-1.74-.15-3.86-.67-6.36-1.56-2.5-.89-4.53-2.22-6.08-4-1.56-1.78-2.59-3.93-3.08-6.45-.49-2.52-.67-4.62-.53-6.3,.14-1.68,.45-3.9,.94-6.67l28.08-159.27c.89-5.04,1.71-8.7,2.48-10.97,.76-2.27,1.99-4.65,3.67-7.12,2.19-2.97,5.13-5.34,8.83-7.12,3.69-1.78,7.62-2.67,11.79-2.67s7.78,.89,10.85,2.67c3.07,1.78,5.17,4.15,6.32,7.12,.81,2.47,1.2,4.84,1.16,7.12-.04,2.28-.5,5.93-1.39,10.97l-26.04,147.7h75.71c8.12,0,13.65,.79,16.6,2.37,2.57,1.38,4.43,3.51,5.59,6.38,1.16,2.87,1.43,6.08,.8,9.64s-2.03,6.77-4.2,9.64c-2.17,2.87-4.78,4.99-7.84,6.38-3.51,1.58-9.32,2.37-17.43,2.37h-92.88Z" />
    </g>
    <g>
      <path class="cls-3" d="M288.52,292.14c-.81-2.47-1.2-4.84-1.16-7.12,.03-2.27,.5-5.93,1.39-10.97l28.08-159.27c.49-2.77,.96-4.99,1.41-6.67,.45-1.68,1.37-3.78,2.75-6.3,1.38-2.52,3.17-4.67,5.35-6.45,2.19-1.78,4.69-3.11,7.5-4s5.11-1.41,6.91-1.56c1.79-.15,4.15-.22,7.06-.22h59.94c22.37,0,39.08,6.33,50.12,18.98,11.04,12.66,14.92,28.28,11.64,46.86-3.28,18.59-12.67,34.21-28.17,46.86-15.5,12.66-34.44,18.98-56.81,18.98h-42.77l-9.31,52.79c-.89,5.04-1.72,8.7-2.48,10.97-.77,2.28-1.99,4.65-3.68,7.12-2.19,2.97-5.13,5.34-8.83,7.12-3.7,1.78-7.63,2.67-11.79,2.67s-7.78-.89-10.85-2.67c-3.07-1.78-5.18-4.15-6.32-7.12Zm59.73-107.66h40.27c9.78,0,18.06-2.67,24.83-8.01,6.77-5.34,10.92-12.36,12.46-21.06,1.53-8.7-.14-15.72-5.03-21.06-4.89-5.34-12.22-8.01-22-8.01h-40.27l-10.25,58.13Z" />
      <path class="cls-3" d="M475.73,300.74c-2.92,0-5.24-.07-6.99-.22-1.74-.15-3.86-.67-6.36-1.56-2.5-.89-4.53-2.22-6.08-4-1.56-1.78-2.59-3.93-3.08-6.45-.49-2.52-.67-4.62-.53-6.3,.14-1.68,.45-3.9,.94-6.67l28.35-160.76c.49-2.77,.96-4.99,1.41-6.67,.45-1.68,1.37-3.78,2.75-6.3,1.38-2.52,3.17-4.67,5.35-6.45,2.19-1.78,4.69-3.11,7.5-4s5.11-1.41,6.91-1.56c1.79-.15,4.15-.22,7.06-.22h95.22c8.12,0,13.65,.79,16.6,2.37,2.57,1.39,4.43,3.51,5.59,6.38,1.16,2.87,1.43,6.08,.8,9.64-.63,3.56-2.03,6.77-4.2,9.64-2.17,2.87-4.78,4.99-7.84,6.38-3.51,1.58-9.32,2.37-17.43,2.37h-78.05l-8.73,49.53h63.07c8.12,0,13.65,.79,16.6,2.37,2.57,1.39,4.43,3.51,5.59,6.38,1.16,2.87,1.43,6.08,.8,9.64-.63,3.56-2.03,6.77-4.2,9.64-2.17,2.87-4.78,4.99-7.84,6.38-3.51,1.58-9.32,2.37-17.43,2.37h-63.07l-9.05,51.31h78.05c8.12,0,13.65,.79,16.6,2.37,2.57,1.38,4.43,3.51,5.59,6.38,1.16,2.87,1.43,6.08,.8,9.64s-2.03,6.77-4.2,9.64c-2.17,2.87-4.78,4.99-7.84,6.38-3.51,1.58-9.32,2.37-17.43,2.37h-95.22Z" />
      <path class="cls-3" d="M754.12,107.36l35.66,161.65c.91,4.25,1.47,7.61,1.66,10.08,.19,2.47-.27,5.19-1.36,8.16-1.1,2.97-3.12,5.73-6.07,8.3-4.91,4.25-10.49,6.38-16.74,6.38-4.68,0-8.46-1.28-11.34-3.86-1.61-1.48-2.84-3.24-3.68-5.26-.84-2.03-1.77-5.46-2.79-10.31l-3.96-19.13h-86.79l-10.71,19.13c-2.73,4.84-4.87,8.28-6.42,10.31-1.56,2.03-3.4,3.78-5.53,5.26-3.79,2.57-8.02,3.86-12.7,3.86-6.24,0-11.07-2.13-14.49-6.38-2.04-2.57-3.09-5.34-3.14-8.3-.05-2.97,.46-5.68,1.52-8.16,1.06-2.47,2.8-5.83,5.21-10.08l92.66-161.65c3.87-6.62,7.66-11.27,11.36-13.94,4.55-3.36,10.05-5.04,16.5-5.04s11.36,1.68,14.72,5.04c2.75,2.67,4.9,7.32,6.44,13.94Zm-32.38,44.64l-43.34,76.67h59.63l-16.3-76.67Z" />
      <path class="cls-3" d="M895.22,214.58l-25.88-3.71c-18.37-2.67-31.69-8.55-39.97-17.65-8.89-9.79-11.76-23.58-8.63-41.38,3.36-19.08,13.06-34.53,29.09-46.34,16.03-11.81,35.91-17.72,59.63-17.72,18,0,34.16,3.41,48.46,10.23,10.94,5.24,15.66,12.11,14.16,20.61-.8,4.55-3.22,8.8-7.24,12.75-4.1,3.76-8.75,5.64-13.95,5.64-4.37,0-9.5-1.58-15.4-4.75-10.06-5.54-21.28-8.3-33.66-8.3-10.93,0-19.79,2.45-26.58,7.34-6.79,4.89-10.83,10.95-12.1,18.17-1.24,7.02-.06,12.41,3.55,16.16,4.16,4.15,10.55,6.87,19.17,8.16l25.44,3.56c18.78,2.67,32.02,8.16,39.71,16.46,9.65,10.19,12.75,25.06,9.3,44.64-2.34,13.25-8.04,24.77-17.1,34.55-9.06,9.79-20.2,17.15-33.4,22.1-13.2,4.95-27.66,7.42-43.38,7.42-11.86,0-21.71-.82-29.54-2.45-7.83-1.63-15.77-4.42-23.81-8.38-7.09-3.46-12.1-6.94-15.02-10.46-2.92-3.51-3.88-8.08-2.89-13.72,.92-5.24,3.69-9.74,8.31-13.5,3.76-3.06,8.09-4.6,12.99-4.6,4.27,0,9.81,1.88,16.65,5.63,7.4,4.06,13.95,6.9,19.65,8.53,5.7,1.63,12.55,2.45,20.56,2.45,12.7,0,22.86-2.32,30.5-6.97,7.63-4.65,12.19-11.17,13.68-19.58,1.34-7.61,.14-13.5-3.6-17.65-3.24-3.46-9.48-5.88-18.7-7.27Z" />
      <path class="cls-3" d="M1039.44,299.25c-3.7,1.78-7.63,2.67-11.79,2.67s-7.78-.89-10.85-2.67c-3.07-1.78-5.18-4.15-6.32-7.12-.81-2.47-1.2-4.84-1.16-7.12,.04-2.27,.5-5.93,1.39-10.97l9.88-56.06-33.48-95.21c-1.49-4.55-2.44-7.83-2.87-9.86-.42-2.03-.38-4.18,.12-6.45,.66-3.16,2.23-6.15,4.7-8.97,2.47-2.82,5.63-5.07,9.46-6.75,3.61-1.58,7.13-2.37,10.56-2.37,3.75,0,6.94,1.04,9.6,3.11,1.73,1.39,3.09,2.99,4.07,4.82,.98,1.83,2.23,4.92,3.75,9.27l23.67,68.51,47.83-68.51c3.05-4.35,5.39-7.44,7.02-9.27,1.62-1.83,3.54-3.43,5.77-4.82,3.38-2.08,6.95-3.11,10.7-3.11,3.43,0,6.68,.79,9.73,2.37,3.24,1.68,5.6,3.93,7.08,6.75,1.48,2.82,1.99,5.81,1.54,8.97-.3,2.28-1.01,4.43-2.15,6.45-1.14,2.03-3.25,5.32-6.34,9.86l-67.05,95.21-9.88,56.06c-.89,5.04-1.72,8.7-2.48,10.97-.77,2.28-1.99,4.65-3.67,7.12-2.19,2.97-5.13,5.34-8.83,7.12Z" />
    </g>
  </g>
  <g>
    <path class="cls-2" d="M52.92,62.42l32.48,13.89c.98,.42,1.99,.62,2.99,.62,2.96,0,5.78-1.74,7.01-4.63,1.66-3.87-.14-8.35-4.01-10.01l-32.48-13.89c-3.87-1.66-8.35,.14-10.01,4.01s.14,8.35,4.01,10.01Zm35.48,6.88l-32.48-13.89,32.48,13.89Z" />
    <path class="cls-2" d="M105.65,44.5c1.28,2.81,4.05,4.48,6.95,4.48,1.05,0,2.12-.22,3.14-.68,3.84-1.74,5.54-6.26,3.8-10.09l-13.86-30.58c-1.74-3.83-6.26-5.54-10.09-3.8-3.84,1.74-5.54,6.26-3.8,10.09l13.86,30.58Zm6.94-3.15l-13.86-30.57,13.86,30.57Z" />
    <path class="cls-2" d="M147.2,45.68c.88,.33,1.77,.48,2.65,.48,3.1,0,6.01-1.9,7.15-4.97l11.47-30.9c1.47-3.95-.55-8.34-4.49-9.8-3.95-1.46-8.34,.55-9.8,4.5l-11.47,30.9c-1.47,3.95,.55,8.34,4.49,9.8Zm14.13-38.05l-11.47,30.9,11.47-30.9Z" />
    <path class="cls-2" d="M227.41,220.29c-3.78-1.85-8.34-.28-10.2,3.5-.07,.14-2.91,5.84-8.86,14.91,1.61,.35,3.24,.54,4.88,.54,5.87,0,11.75-2.24,16.22-6.71l.86-.86c.33-.64,.54-1.06,.6-1.19,1.84-3.78,.27-8.34-3.51-10.19Z" />
    <g>
      <path class="cls-1" d="M227.41,220.29c-3.78-1.85-8.34-.28-10.2,3.5-.07,.14-2.91,5.84-8.86,14.91,1.61,.35,3.24,.54,4.88,.54,5.87,0,11.75-2.24,16.22-6.71l.86-.86c.33-.64,.54-1.06,.6-1.19,1.84-3.78,.27-8.34-3.51-10.19Z" />
      <path class="cls-1" d="M150.73,172.66c1.94,1.94,4.55,3.01,7.33,3.01s5.39-1.07,7.33-3.01l37-37c4.04-4.04,4.04-10.62,0-14.66-1.94-1.94-4.55-3.01-7.33-3.01s-5.39,1.07-7.33,3.01l-37,37c-4.04,4.04-4.04,10.62,0,14.66Z" />
      <path class="cls-1" d="M178.04,186.38c-1.8,1.8-2.79,4.21-2.79,6.79s.99,4.99,2.79,6.79l1.08,1.08c1.8,1.8,4.21,2.79,6.79,2.79s4.99-.99,6.79-2.79l32.67-32.67c3.74-3.75,3.74-9.84,0-13.58l-1.08-1.08c-1.8-1.8-4.21-2.79-6.79-2.79s-4.99,.99-6.79,2.79l-32.67,32.67Z" />
      <path class="cls-1" d="M168.33,211.82l-1.08-1.08c-4.68-4.68-7.26-10.92-7.26-17.58,0-.79,.04-1.56,.11-2.34-.68,.05-1.36,.09-2.04,.09-3.95,0-7.75-.89-11.19-2.55-2.51,16.06-10.67,35.8-32.16,54.2-3.2,2.74-8.01,2.36-10.75-.84-2.74-3.2-2.36-8.01,.84-10.75,16.24-13.89,25.44-30.14,27.35-48.29,1.38-13.1-1.73-22.35-1.76-22.44-1-2.81-.26-5.94,1.88-8.02l88.28-85.63c1.25-1.31,4.52-5.69,4.42-10.11-.06-2.79-1.46-5.43-4.27-8.08-2.45-2.31-6.11-5.04-9.61-4.83-2.69,.15-4.52,1.99-4.54,2.01-.14,.17-.3,.33-.46,.49l-113.08,111.31c-1.74,1.71-4.19,2.49-6.6,2.09-2.41-.4-4.48-1.93-5.57-4.11-26.81-53.63-46.92-58.63-59.06-53.39-3.68,1.59-6.1,3.48-6.47,5.06-.35,1.52,1,3.76,1.67,4.55,.11,.12,.02,.02,.12,.14,15.97,19.16,28.43,47.45,28.96,48.65,.3,.7,.5,1.44,.59,2.19,5.39,47.18-2.05,78.65-2.37,79.96-.33,1.34-1.01,2.57-1.97,3.55l-24.69,25.08c3.81,20.96,15.16,36.85,33.8,47.28,10.72,6,21.15,8.56,26.42,9.55l24.64-25.83c2.16-2.26,5.47-2.98,8.37-1.81,23.83,9.6,44.5-2.55,47.29-4.31,24.86-21.9,41.17-43.55,50.23-57.36-4.16-.9-8.12-2.94-11.34-6.17,0,0,0,0,0,0l-1.13-1.13c-3.45-3.45-5.64-7.82-6.39-12.57-1.18,.17-2.38,.26-3.59,.26-6.65,0-12.89-2.58-17.58-7.26Z" />
      <path class="cls-1" d="M245.39,181.88c-1.44-1.44-3.37-2.23-5.44-2.23s-4,.79-5.44,2.23l-27.85,27.85c-1.44,1.44-2.23,3.37-2.23,5.44s.79,4,2.23,5.44l1.13,1.13c3,3,7.88,3,10.88,0l27.85-27.85c1.44-1.44,2.23-3.37,2.23-5.44s-.79-4-2.23-5.44l-1.13-1.13Z" />
      <path class="cls-2" d="M213.24,239.23c-1.64,0-3.27-.19-4.88-.54-9.06,13.81-25.37,35.46-50.23,57.36-2.8,1.77-23.46,13.92-47.29,4.31-2.9-1.17-6.21-.45-8.37,1.81l-24.64,25.83c-5.26-.99-15.69-3.55-26.42-9.55-18.63-10.43-29.99-26.32-33.8-47.28l24.69-25.08c.97-.98,1.65-2.21,1.97-3.55,.32-1.32,7.77-32.78,2.37-79.96-.09-.75-.29-1.49-.59-2.19-.52-1.19-12.99-29.48-28.96-48.65-.11-.13,0-.02-.12-.14-.67-.79-2.02-3.03-1.67-4.55,.37-1.58,2.79-3.47,6.47-5.06,12.14-5.24,32.25-.24,59.06,53.39,1.09,2.18,3.16,3.71,5.57,4.11,2.41,.4,4.86-.38,6.6-2.09L206.09,46.09c.16-.16,.31-.32,.46-.49,.02-.02,1.84-1.86,4.54-2.01,3.5-.21,7.16,2.52,9.61,4.83,2.81,2.65,4.21,5.29,4.27,8.08,.1,4.42-3.17,8.81-4.42,10.11l-88.28,85.63c-2.14,2.08-2.87,5.21-1.88,8.02,.03,.09,3.14,9.34,1.76,22.44-1.91,18.15-11.12,34.39-27.35,48.29-3.2,2.74-3.57,7.55-.84,10.75,2.74,3.2,7.55,3.58,10.75,.84,21.49-18.39,29.65-38.13,32.16-54.2-2.53-1.23-4.87-2.88-6.92-4.93-9.99-9.99-9.99-26.24,0-36.23l37-37c4.82-4.82,11.26-7.48,18.11-7.48,2.99,0,5.89,.5,8.62,1.47l27.55-26.72s.06-.05,.08-.08c.93-.93,9.08-9.42,8.91-21.07-.07-4.85-1.71-12.09-9.07-19.02-6.73-6.33-13.76-9.33-20.9-8.95-8.34,.46-13.62,5.52-15,7.01l-105.58,103.93c-11.34-20.89-22.86-35.86-34.32-44.58-16.52-12.57-30.66-10.6-39.61-6.73-8.69,3.75-13.85,9.08-15.33,15.84-1.99,9.09,3.87,16.41,5.04,17.76,12.93,15.55,23.85,38.78,26.18,43.9,4.1,37.25-.33,64.22-1.76,71.5l-25.82,26.24c-1.66,1.68-2.44,4.04-2.12,6.38,4.76,34.85,25.78,53.2,42.58,62.46,17.9,9.86,34.64,11.61,35.34,11.68,.25,.03,.5,.04,.75,.04,2.07,0,4.07-.85,5.52-2.36l23.97-25.13c30.78,9.7,55.87-7.1,56.98-7.85,.25-.17,.49-.36,.72-.56,40.15-35.24,59-69.39,62.54-76.21l-.86,.86c-4.47,4.47-10.35,6.71-16.22,6.71Z" />
      <path class="cls-2" d="M146.87,188.37c3.44,1.67,7.25,2.55,11.19,2.55,.69,0,1.37-.03,2.04-.09,.53-5.77,3.02-11.11,7.15-15.24l32.67-32.67c4.68-4.68,10.92-7.26,17.58-7.26,.7,0,1.39,.03,2.07,.09,2.63-8.75,.5-18.64-6.4-25.54-2.72-2.72-5.96-4.75-9.49-6.01l-57.58,55.85c1.27,5.71,2.7,15.92,.76,28.31Zm40.86-67.37c1.94-1.94,4.55-3.01,7.33-3.01s5.39,1.07,7.33,3.01c4.04,4.04,4.04,10.62,0,14.66l-37,37c-1.94,1.94-4.55,3.01-7.33,3.01s-5.39-1.07-7.33-3.01c-4.04-4.04-4.04-10.62,0-14.66l37-37Z" />
      <path class="cls-2" d="M176.95,110.22l-37,37c-9.99,9.99-9.99,26.24,0,36.23,2.05,2.05,4.38,3.7,6.92,4.93,1.93-12.39,.5-22.6-.76-28.31l57.58-55.85c-2.73-.97-5.63-1.47-8.62-1.47-6.86,0-13.29,2.66-18.11,7.48Z" />
      <path class="cls-2" d="M176.18,183.44c-4.34,4.34-9.99,6.92-16.07,7.39-.07,.77-.11,1.55-.11,2.34,0,6.65,2.58,12.89,7.26,17.58l1.08,1.08c4.68,4.68,10.92,7.26,17.58,7.26,1.21,0,2.41-.09,3.59-.26-.19-1.2-.31-2.42-.31-3.65,0-6.14,2.38-11.9,6.7-16.22l27.85-27.85c4.32-4.32,10.08-6.7,16.22-6.7,1.11,0,2.19,.1,3.27,.26,.91-7.35-1.44-15.02-7.07-20.65l-1.08-1.08c-4.19-4.19-9.64-6.69-15.51-7.17-1.18,3.91-3.31,7.6-6.4,10.69l-37,37Zm48.11-29.73l1.08,1.08c3.74,3.75,3.74,9.84,0,13.58l-32.67,32.67c-1.8,1.8-4.21,2.79-6.79,2.79s-4.99-.99-6.79-2.79l-1.08-1.08c-1.8-1.8-2.79-4.21-2.79-6.79s.99-4.99,2.79-6.79l32.67-32.67c1.8-1.8,4.21-2.79,6.79-2.79s4.99,.99,6.79,2.79Z" />
      <path class="cls-2" d="M199.92,142.93l-32.67,32.67c-4.13,4.13-6.62,9.47-7.15,15.24,6.08-.47,11.73-3.05,16.07-7.39l37-37c3.09-3.09,5.22-6.77,6.4-10.69-.69-.06-1.37-.09-2.07-.09-6.65,0-12.89,2.58-17.58,7.26Z" />
      <path class="cls-2" d="M257.31,172.23l-1.13-1.13c-3.54-3.54-8.06-5.75-12.96-6.45-.66,5.3-3.01,10.44-7.07,14.5l-32.67,32.67c-3.83,3.83-8.7,6.25-13.99,7,.75,4.75,2.94,9.12,6.39,12.57l1.13,1.13s0,0,0,0c3.23,3.23,7.18,5.27,11.34,6.17,5.95-9.07,8.79-14.76,8.86-14.91,1.85-3.78,6.42-5.35,10.2-3.5,3.78,1.85,5.35,6.4,3.51,10.19-.07,.13-.27,.55-.6,1.19l26.99-26.99c4.32-4.32,6.7-10.08,6.7-16.22s-2.38-11.9-6.7-16.22Zm-10.78,21.66l-27.85,27.85c-3,3-7.88,3-10.88,0l-1.13-1.13c-1.44-1.44-2.23-3.37-2.23-5.44s.79-4,2.23-5.44l27.85-27.85c1.44-1.44,3.37-2.23,5.44-2.23s4,.79,5.44,2.23l1.13,1.13c1.44,1.44,2.23,3.37,2.23,5.44s-.79,4-2.23,5.44Z" />
      <path class="cls-2" d="M223.73,171.1l-27.85,27.85c-4.32,4.32-6.7,10.08-6.7,16.22,0,1.24,.12,2.46,.31,3.65,5.29-.76,10.16-3.17,13.99-7l32.67-32.67c4.06-4.06,6.42-9.2,7.07-14.5-1.07-.15-2.16-.26-3.27-.26-6.14,0-11.9,2.38-16.22,6.7Z" />
    </g>
  </g>
</svg>