<?xml version="1.0" encoding="UTF-8"?>
<svg width="12px" height="12px" viewBox="0 0 12 12" version="1.1" xmlns="http://www.w3.org/2000/svg" xmlns:xlink="http://www.w3.org/1999/xlink">
    <!-- Generator: Sketch 54.1 (76490) - https://sketchapp.com -->
    <title>icon/12px/halfstar</title>
    <desc>Created with Sketch.</desc>
    <g id="icon/12px/halfstar" stroke="none" stroke-width="1" fill="none" fill-rule="evenodd">
        <g id="Group" transform="translate(1.000000, 1.500000)" fill="#04844B" fill-rule="nonzero">
            <polygon id="Path" points="5.01097364 7.28463422 2.0691633 8.7603099 2.61226675 5.66706666 0.211404678 3.49206666 3.5066633 3.02179639 4.95924951 0.202201792 4.96355985 0.214363955"></polygon>
            <path d="M7.17907709,5.69341801 C7.34933571,6.59544504 7.52174951,7.49949909 7.69200813,8.40152612 C7.71571502,8.52720179 7.73942192,8.6549045 7.76312882,8.78058017 C7.86873226,8.70355314 7.97433571,8.62855314 8.07993916,8.55152612 C7.20493916,8.12585044 6.33209433,7.70017477 5.45709433,7.27449909 C5.34502537,7.21976936 5.23511157,7.16098558 5.12088744,7.1103099 C4.9678702,7.04341801 4.82347364,7.14882341 4.69200813,7.21368828 C4.18769778,7.46706666 3.68123226,7.72044504 3.17692192,7.97382341 C2.77174951,8.17652612 2.36657709,8.38125585 1.96140468,8.58395855 C2.06700813,8.66098558 2.17261157,8.73598558 2.27821502,8.8130126 C2.43769778,7.89882341 2.59933571,6.98666125 2.75881847,6.07247206 C2.7803702,5.9549045 2.80192192,5.83936395 2.82131847,5.72179639 C2.84718054,5.55558017 2.70709433,5.47044504 2.59502537,5.36706666 C2.18338744,4.99409368 1.76959433,4.61909368 1.3579564,4.24612071 C1.02605985,3.94612071 0.696318471,3.64612071 0.364421919,3.34612071 C0.332094333,3.45963422 0.301921919,3.57112071 0.269594333,3.68463422 C1.23726675,3.54882341 2.20493916,3.41098558 3.17476675,3.27314774 C3.30192192,3.2549045 3.43769778,3.24882341 3.56269778,3.21841801 C3.69847364,3.18395855 3.74804261,3.01976936 3.80407709,2.91436395 C4.05192192,2.43395855 4.30192192,1.95152612 4.54976675,1.47112071 C4.75019778,1.08193152 4.95062882,0.692742333 5.15105985,0.305580171 C5.02605985,0.305580171 4.90321502,0.305580171 4.77821502,0.305580171 C4.7803702,0.309634225 4.78252537,0.313688279 4.78468054,0.317742333 C4.77390468,0.283282874 4.76528399,0.248823414 4.75450813,0.216390982 C4.75450813,0.329904495 4.86873226,0.477877468 4.91830123,0.573147738 C5.03683571,0.796120711 5.1553702,1.01909368 5.27605985,1.24206666 C5.54761157,1.75287747 5.8191633,2.26368828 6.0928702,2.77247206 C6.15105985,2.88193152 6.20278399,2.99949909 6.26959433,3.1049045 C6.34718054,3.22247206 6.5066633,3.21436395 6.63597364,3.2326072 C7.20278399,3.3076072 7.76959433,3.38058017 8.33855985,3.45558017 C8.79330123,3.51436395 9.24804261,3.57517477 9.70493916,3.63395855 C9.67261157,3.52044504 9.64243916,3.40895855 9.61011157,3.29544504 C8.91614606,3.94003963 8.22218054,4.58463422 7.52821502,5.22720179 C7.43123226,5.31639098 7.33424951,5.4076072 7.23726675,5.49679639 C7.03899088,5.68125585 7.34502537,5.96706666 7.54114606,5.7826072 C8.23511157,5.1380126 8.92907709,4.49341801 9.62304261,3.85085044 C9.72002537,3.76166125 9.81700813,3.67044504 9.91399088,3.58125585 C10.0174392,3.48395855 9.98511157,3.26503963 9.8191633,3.24274233 C8.85364606,3.11706666 7.88812882,2.99139098 6.92261157,2.86368828 C6.78683571,2.84544504 6.65321502,2.82922882 6.51743916,2.81098558 C6.56054261,2.84139098 6.60364606,2.87382341 6.64674951,2.90422882 C6.21355985,2.08936395 5.77821502,1.27652612 5.34502537,0.461661252 C5.28252537,0.346120711 5.22218054,0.230580171 5.15968054,0.113012603 C5.1704564,0.147472063 5.17907709,0.181931522 5.18985295,0.214363955 C5.18985295,0.171796387 5.17261157,0.135309901 5.15321502,0.0988234141 C5.08209433,-0.0309063157 4.85149088,-0.0349603697 4.7803702,0.0988234141 C4.35364606,0.923823414 3.92907709,1.74882341 3.50235295,2.57382341 C3.44200813,2.68936395 3.38381847,2.8049045 3.32347364,2.92044504 C3.36657709,2.89003963 3.40968054,2.8576072 3.45278399,2.82720179 C2.48942192,2.96503963 1.52605985,3.10287747 0.560542609,3.24071531 C0.424766747,3.25895855 0.291146057,3.27922882 0.155370195,3.29747206 C-0.00842290821,3.32179639 -0.0472160117,3.53868828 0.060542609,3.63598558 C0.763128816,4.27247206 1.46571502,4.90693152 2.16830123,5.54341801 C2.26743916,5.6326072 2.36442192,5.72179639 2.46355985,5.81098558 C2.4441633,5.74612071 2.42692192,5.67922882 2.40752537,5.61436395 C2.24804261,6.51841801 2.09071502,7.42449909 1.93123226,8.32855314 C1.90968054,8.45422882 1.88597364,8.58193152 1.86442192,8.7076072 C1.83424951,8.8799045 2.00450813,9.02585044 2.18123226,8.93666125 C3.04114606,8.5049045 3.90105985,8.07314774 4.76097364,7.64139098 C4.8816633,7.58058017 5.00235295,7.51976936 5.12304261,7.46098558 C5.04976675,7.46098558 4.97864606,7.46098558 4.9053702,7.46098558 C5.77174951,7.8826072 6.63597364,8.30422882 7.50235295,8.72585044 C7.62304261,8.78463422 7.74373226,8.84341801 7.86657709,8.90220179 C8.04330123,8.98733693 8.21571502,8.84747206 8.18338744,8.67314774 C8.01312882,7.77112071 7.84071502,6.86706666 7.6704564,5.96503963 C7.64674951,5.83936395 7.62304261,5.71166125 7.59933571,5.58598558 C7.57993916,5.47855314 7.43985295,5.41774233 7.33424951,5.44409368 C7.20924951,5.47449909 7.15968054,5.58395855 7.17907709,5.69341801 Z" id="Path"></path>
        </g>
    </g>
</svg>