<svg width="37" height="40" viewBox="0 0 37 40" fill="none" xmlns="http://www.w3.org/2000/svg">
<path opacity="0.5" d="M18.8793 39.6957C28.4289 39.6957 36.1703 37.7772 36.1703 35.4106C36.1703 33.044 28.4289 31.1255 18.8793 31.1255C9.32981 31.1255 1.58838 33.044 1.58838 35.4106C1.58838 37.7772 9.32981 39.6957 18.8793 39.6957Z" fill="#B8CBCD"/>
<path d="M18.4992 36.43C28.1154 36.43 35.9109 28.6345 35.9109 19.0182C35.9109 9.40196 28.1154 1.60645 18.4992 1.60645C8.88292 1.60645 1.0874 9.40196 1.0874 19.0182C1.0874 28.6345 8.88292 36.43 18.4992 36.43Z" fill="#B9E3ED"/>
<path d="M18.501 30.208C24.7115 30.208 29.7461 25.1734 29.7461 18.9629C29.7461 12.7524 24.7115 7.71777 18.501 7.71777C12.2905 7.71777 7.25586 12.7524 7.25586 18.9629C7.25586 25.1734 12.2905 30.208 18.501 30.208Z" fill="white"/>
<path d="M31.3329 19.6902C31.7336 19.6902 32.0584 19.3654 32.0584 18.9647C32.0584 18.5641 31.7336 18.2393 31.3329 18.2393C30.9322 18.2393 30.6074 18.5641 30.6074 18.9647C30.6074 19.3654 30.9322 19.6902 31.3329 19.6902Z" fill="#324654"/>
<path d="M5.57901 19.6902C5.97968 19.6902 6.3045 19.3654 6.3045 18.9647C6.3045 18.5641 5.97968 18.2393 5.57901 18.2393C5.17833 18.2393 4.85352 18.5641 4.85352 18.9647C4.85352 19.3654 5.17833 19.6902 5.57901 19.6902Z" fill="#324654"/>
<path d="M18.6361 32.3841C19.0368 32.3841 19.3616 32.0593 19.3616 31.6586C19.3616 31.2579 19.0368 30.9331 18.6361 30.9331C18.2355 30.9331 17.9106 31.2579 17.9106 31.6586C17.9106 32.0593 18.2355 32.3841 18.6361 32.3841Z" fill="#324654"/>
<path d="M13.3279 13.4478C13.4025 13.4265 13.4719 13.4105 13.5359 13.3998C13.5999 13.3785 13.6639 13.3625 13.7279 13.3518C13.8025 13.3305 13.8932 13.3198 13.9999 13.3198C14.1172 13.3091 14.2239 13.3145 14.3199 13.3358C14.4265 13.3465 14.5225 13.3785 14.6079 13.4318C14.7039 13.4745 14.7732 13.5438 14.8159 13.6398C14.8585 13.7465 14.8852 13.8745 14.8959 14.0238C14.9172 14.1625 14.9279 14.3065 14.9279 14.4558C14.9279 14.6051 14.9225 14.7545 14.9119 14.9038C14.9119 15.0425 14.9119 15.1705 14.9119 15.2878V23.4638C14.9119 23.5811 14.9119 23.7038 14.9119 23.8318C14.9225 23.9491 14.9225 24.0718 14.9119 24.1998C14.9012 24.3278 14.8692 24.4505 14.8159 24.5678C14.7625 24.6745 14.6825 24.7651 14.5759 24.8398C14.4265 24.9571 14.2239 25.0158 13.9679 25.0158C13.7225 25.0265 13.5092 24.9998 13.3279 24.9358C13.1359 24.8718 13.0185 24.7491 12.9759 24.5678C12.9439 24.3865 12.9279 24.2051 12.9279 24.0238C12.8532 22.6158 12.8159 21.2398 12.8159 19.8958C12.8265 18.5411 12.8319 17.1491 12.8319 15.7198C12.8105 15.7731 12.7359 15.8211 12.6079 15.8638C12.4905 15.9065 12.3519 15.9438 12.1919 15.9758C12.0425 16.0078 11.8985 16.0345 11.7599 16.0558C11.6212 16.0771 11.5305 16.0878 11.4879 16.0878C11.2105 16.1198 10.9545 16.0931 10.7199 16.0078C10.4959 15.9118 10.3679 15.6985 10.3359 15.3678C10.2932 15.0265 10.3679 14.7598 10.5599 14.5678C10.7625 14.3758 11.0185 14.2318 11.3279 14.1358C11.6692 14.0185 11.9999 13.9011 12.3199 13.7838C12.6505 13.6558 12.9865 13.5438 13.3279 13.4478Z" fill="#324654"/>
<path d="M23.938 13.8318C24.0126 13.9491 24.0606 14.0985 24.082 14.2798C24.1353 14.6531 24.1566 15.0371 24.146 15.4318C24.146 15.8158 24.1513 16.1945 24.162 16.5678C24.162 17.0051 24.162 17.4371 24.162 17.8638C24.1726 18.2905 24.178 18.7225 24.178 19.1598V20.5198H24.866C24.9833 20.5198 25.106 20.5358 25.234 20.5678C25.362 20.5891 25.4793 20.6318 25.586 20.6958C25.6926 20.7598 25.7833 20.8398 25.858 20.9358C25.9326 21.0318 25.9753 21.1491 25.986 21.2878C25.986 21.6291 25.8793 21.8638 25.666 21.9918C25.4526 22.1091 25.1966 22.1785 24.898 22.1998C24.8766 22.1998 24.8286 22.2051 24.754 22.2158C24.69 22.2158 24.6153 22.2158 24.53 22.2158C24.4446 22.2158 24.3646 22.2158 24.29 22.2158C24.226 22.2158 24.1886 22.2051 24.178 22.1838V23.2718C24.178 23.3891 24.178 23.5225 24.178 23.6718C24.178 23.8211 24.1673 23.9705 24.146 24.1198C24.1246 24.2585 24.082 24.3918 24.018 24.5198C23.9646 24.6478 23.8793 24.7491 23.762 24.8238C23.7086 24.8558 23.6393 24.8825 23.554 24.9038C23.4793 24.9145 23.394 24.9251 23.298 24.9358C23.202 24.9465 23.106 24.9518 23.01 24.9518C22.9246 24.9411 22.85 24.9251 22.786 24.9038C22.594 24.8398 22.4713 24.7065 22.418 24.5038C22.3646 24.2905 22.3273 24.0931 22.306 23.9118C22.306 23.8798 22.306 23.7785 22.306 23.6078C22.306 23.4265 22.306 23.2398 22.306 23.0478C22.306 22.8451 22.3006 22.6638 22.29 22.5038C22.2793 22.3438 22.2633 22.2638 22.242 22.2638H19.426C19.1166 22.2638 18.7913 22.2585 18.45 22.2478C18.1086 22.2371 17.8153 22.1411 17.57 21.9598C17.378 21.8211 17.266 21.6665 17.234 21.4958C17.202 21.3145 17.2126 21.1385 17.266 20.9678C17.33 20.7865 17.4206 20.6105 17.538 20.4398C17.6553 20.2691 17.7673 20.1145 17.874 19.9758C18.2793 19.4318 18.6686 18.8771 19.042 18.3118C19.426 17.7465 19.81 17.1865 20.194 16.6318C20.4073 16.3438 20.626 16.0665 20.85 15.7998C21.0846 15.5331 21.3033 15.2558 21.506 14.9678C21.6553 14.7438 21.8153 14.5145 21.986 14.2798C22.1673 14.0451 22.3913 13.8638 22.658 13.7358C22.914 13.6185 23.1593 13.5598 23.394 13.5598C23.6286 13.5598 23.81 13.6505 23.938 13.8318ZM22.354 16.7118L19.698 20.4558H22.354V16.7118Z" fill="#324654"/>
<path d="M18.5093 5.85301C27.3817 5.85301 34.695 12.505 35.748 21.0923C35.834 20.3918 35.8833 19.6809 35.8833 18.9575C35.8833 9.3622 28.105 1.5835 18.5089 1.5835C8.9136 1.5835 1.13525 9.3622 1.13525 18.9575C1.13525 19.6809 1.18459 20.3922 1.27056 21.0923C2.32361 12.505 9.63727 5.85301 18.5093 5.85301Z" fill="#A1D2DB"/>
<path fill-rule="evenodd" clip-rule="evenodd" d="M18.5 2.27803C9.48464 2.27803 2.17647 9.58621 2.17647 18.6016C2.17647 27.6169 9.48464 34.9251 18.5 34.9251C27.5154 34.9251 34.8235 27.6169 34.8235 18.6016C34.8235 18.0005 35.3108 17.5133 35.9118 17.5133C36.5128 17.5133 37 18.0005 37 18.6016C37 28.819 28.7174 37.1016 18.5 37.1016C8.28261 37.1016 0 28.819 0 18.6016C0 8.38417 8.28261 0.101562 18.5 0.101562C22.7643 0.101562 26.6946 1.54588 29.8237 3.97086C30.2988 4.33902 30.3854 5.02258 30.0173 5.49764C29.6491 5.9727 28.9655 6.05936 28.4905 5.6912C25.7294 3.5514 22.2647 2.27803 18.5 2.27803Z" fill="#324654"/>
<path fill-rule="evenodd" clip-rule="evenodd" d="M30.6077 0C31.4362 0 32.1077 0.671573 32.1077 1.5V6.62994C32.1077 7.45837 31.4362 8.12994 30.6077 8.12994H25.5293C24.7009 8.12994 24.0293 7.45837 24.0293 6.62994C24.0293 5.80151 24.7009 5.12994 25.5293 5.12994H29.1077V1.5C29.1077 0.671573 29.7793 0 30.6077 0Z" fill="#324654"/>
<path d="M18.6361 6.99346C19.0368 6.99346 19.3616 6.66865 19.3616 6.26797C19.3616 5.86729 19.0368 5.54248 18.6361 5.54248C18.2355 5.54248 17.9106 5.86729 17.9106 6.26797C17.9106 6.66865 18.2355 6.99346 18.6361 6.99346Z" fill="#324654"/>
</svg>
