<svg width="36" height="36" viewBox="0 0 36 36" fill="none" xmlns="http://www.w3.org/2000/svg">
<path opacity="0.5" d="M18 36.0004C27.9411 36.0004 36 33.6741 36 30.8044C36 27.9347 27.9411 25.6084 18 25.6084C8.05887 25.6084 0 27.9347 0 30.8044C0 33.6741 8.05887 36.0004 18 36.0004Z" fill="#B8CBCD"/>
<path d="M33.108 16.5603C33.999 17.0166 34.4947 18.0134 34.3688 19.0221L34.079 21.2835L33.4316 26.3356H1.07471L1.53762 21.2835L3.08661 4.37834C3.25764 2.52896 4.75183 1.1167 6.53839 1.1167H23.6089C25.6659 1.1167 27.4687 2.52175 28.0465 4.57529L31.1204 15.5275L33.108 16.5603Z" fill="#B9E3ED"/>
<path d="M33.108 16.5603C33.999 17.0166 34.4947 18.0134 34.3688 19.0221L34.079 21.2835L33.4316 26.3356H1.07471L1.53762 21.2835L3.08661 4.37834C3.25764 2.52896 4.75183 1.1167 6.53839 1.1167H23.6089C25.6659 1.1167 27.4687 2.52175 28.0465 4.57529L31.1204 15.5275L33.108 16.5603Z" fill="#B9E3ED"/>
<g style="mix-blend-mode:darken">
<path d="M34.079 20.4189C33.4316 24.3277 33.4316 23.5167 33.4316 23.5167H1.07471L1.5376 20.4189C1.5376 20.4189 14.5076 20.4189 34.079 20.4189Z" fill="#9EC4CE"/>
<path d="M34.079 20.4189C33.4316 24.3277 33.4316 23.5167 33.4316 23.5167H1.07471L1.5376 20.4189C1.5376 20.4189 14.5076 20.4189 34.079 20.4189Z" fill="#9EC4CE"/>
</g>
<path d="M1.62549 20.3314H34.1996L34.3683 19.0224C34.4446 18.4087 34.2689 17.8143 33.9373 17.3291H1.90052L1.62549 20.3314Z" fill="white"/>
<path d="M10.8048 24.6303C11.8217 25.6871 11.66 27.5845 10.435 28.8575C9.21009 30.1304 7.38423 30.2985 6.3673 29.2417C5.35037 28.185 5.51216 26.2875 6.7371 25.0146C7.96203 23.7416 9.78789 23.5735 10.8048 24.6303Z" fill="#CFD8DC"/>
<path d="M34.2058 20.3311L33.8938 22.7329H30.7737L31.1204 20.3311H34.2058Z" fill="white"/>
<path d="M28.4279 5.9209L31.1204 15.5281H25.0766C23.6795 15.5281 22.6036 14.2672 22.7781 12.8261L23.4819 6.97769C23.5524 6.37724 24.0481 5.9209 24.6259 5.9209H28.4279Z" fill="white"/>
<path d="M31.1203 15.5274L28.6057 6.55908C26.0333 6.75363 23.9139 8.78795 23.5892 11.4864L23.3558 13.4294C23.2807 14.0515 23.4505 14.6339 23.7695 15.1035C24.1393 15.3665 24.5853 15.5286 25.0753 15.5286L31.1203 15.5274Z" fill="#ECEFF1"/>
<path d="M28.1388 24.6303C29.1557 25.6871 28.9939 27.5845 27.769 28.8575C26.5441 30.1304 24.7182 30.2985 23.7013 29.2417C22.6844 28.185 22.8461 26.2875 24.0711 25.0146C25.296 23.7416 27.1219 23.5735 28.1388 24.6303Z" fill="#CFD8DC"/>
<path fill-rule="evenodd" clip-rule="evenodd" d="M2.57935 16.7287C2.57935 16.2661 2.94019 15.8911 3.38532 15.8911H19.5637C20.0089 15.8911 20.3697 16.2661 20.3697 16.7287C20.3697 17.1912 20.0089 17.5662 19.5637 17.5662H3.38532C2.94019 17.5662 2.57935 17.1912 2.57935 16.7287Z" fill="#324654"/>
<path fill-rule="evenodd" clip-rule="evenodd" d="M0.268311 4.7194C0.268311 4.25683 0.629156 3.88184 1.07428 3.88184H9.16349C9.60862 3.88184 9.96946 4.25683 9.96946 4.7194C9.96946 5.18197 9.60862 5.55696 9.16349 5.55696H1.07428C0.629156 5.55696 0.268311 5.18197 0.268311 4.7194Z" fill="#324654"/>
<path fill-rule="evenodd" clip-rule="evenodd" d="M1.50561 21.6208C2.09645 21.6791 2.52992 22.2242 2.47379 22.8382L2.25619 25.2185H3.38584C3.97934 25.2185 4.46046 25.7185 4.46046 26.3352C4.46046 26.952 3.97934 27.452 3.38584 27.452H1.07463C0.771945 27.452 0.483294 27.3193 0.279634 27.0866C0.0759751 26.8539 -0.0238055 26.5428 0.00482089 26.2296L0.334167 22.6269C0.390297 22.0129 0.91477 21.5625 1.50561 21.6208Z" fill="#324654"/>
<path fill-rule="evenodd" clip-rule="evenodd" d="M10.4006 26.3355C10.4006 25.7187 10.8818 25.2188 11.4753 25.2188H20.7201C21.3136 25.2188 21.7947 25.7187 21.7947 26.3355C21.7947 26.9523 21.3136 27.4523 20.7201 27.4523H11.4753C10.8818 27.4523 10.4006 26.9523 10.4006 26.3355Z" fill="#324654"/>
<path fill-rule="evenodd" clip-rule="evenodd" d="M10.0451 25.4203C9.57072 24.9274 8.43687 24.828 7.4971 25.8046C6.55732 26.7812 6.65296 27.9595 7.1273 28.4524C7.60165 28.9454 8.7355 29.0448 9.67527 28.0682C10.615 27.0915 10.5194 25.9132 10.0451 25.4203ZM5.97735 24.2253C7.48744 22.656 10.0053 22.2203 11.5648 23.841C13.1243 25.4616 12.7051 28.0782 11.195 29.6475C9.68492 31.2168 7.16707 31.6524 5.60755 30.0318C4.04803 28.4111 4.46725 25.7946 5.97735 24.2253Z" fill="#324654"/>
<path fill-rule="evenodd" clip-rule="evenodd" d="M30.3234 20.2065C30.3826 19.7965 30.7215 19.4932 31.1204 19.4932H34.2059C34.4384 19.4932 34.6597 19.5976 34.8127 19.7795C34.9658 19.9615 35.0357 20.2033 35.0046 20.4428L34.6926 22.8446C34.6386 23.2601 34.2973 23.5701 33.8939 23.5701H30.7737C30.5391 23.5701 30.3161 23.4638 30.163 23.2791C30.0099 23.0943 29.9419 22.8494 29.9767 22.6083L30.3234 20.2065ZM31.8145 21.1683L31.7096 21.895H33.1894L33.2838 21.1683H31.8145Z" fill="#324654"/>
<path fill-rule="evenodd" clip-rule="evenodd" d="M22.6814 6.87474C22.8004 5.85462 23.6403 5.08252 24.6254 5.08252H28.4273C28.7857 5.08252 29.101 5.32836 29.2012 5.68587L31.8937 15.2931C31.9646 15.5461 31.9168 15.8191 31.7646 16.0299C31.6124 16.2408 31.3735 16.3648 31.1199 16.3648H25.0761C23.1958 16.3648 21.7442 14.664 21.9779 12.7214L22.6814 6.87474ZM24.6254 6.75765C24.4557 6.75765 24.3023 6.89705 24.2816 7.07667L24.2811 7.0808L23.5774 12.9291C23.4644 13.8686 24.1622 14.6897 25.0761 14.6897H30.0457L27.8226 6.75765H24.6254Z" fill="#324654"/>
<path fill-rule="evenodd" clip-rule="evenodd" d="M2.31104 1.11675C2.31104 0.499986 2.79216 0 3.38566 0H23.6087C26.1436 0 28.3661 1.73287 29.0776 4.26193L32.0204 14.7468L33.5828 15.5586C33.5839 15.5592 33.5849 15.5597 33.586 15.5602C34.8972 16.2336 35.6177 17.696 35.4342 19.1659L35.4337 19.1696L34.4965 26.4831C34.4254 27.0379 33.97 27.4524 33.4313 27.4524H28.8089C28.2154 27.4524 27.7343 26.9524 27.7343 26.3356C27.7343 25.7189 28.2154 25.2189 28.8089 25.2189H32.4903L33.3028 18.8785C33.3029 18.878 33.3029 18.8774 33.303 18.8769C33.3706 18.331 33.1009 17.8019 32.6327 17.562L32.6271 17.5592L30.6395 16.5264C30.3719 16.3874 30.1722 16.1387 30.0885 15.8402L27.0148 4.88875C27.0147 4.88861 27.0148 4.8889 27.0148 4.88875C27.0147 4.88866 27.0146 4.88813 27.0146 4.88803C26.5703 3.3104 25.1875 2.2335 23.6087 2.2335H3.38566C2.79216 2.2335 2.31104 1.73351 2.31104 1.11675Z" fill="#324654"/>
<path fill-rule="evenodd" clip-rule="evenodd" d="M27.379 25.4203C26.9047 24.9274 25.7709 24.828 24.8311 25.8046C23.8913 26.7812 23.9869 27.9595 24.4613 28.4524C24.9356 28.9454 26.0695 29.0448 27.0093 28.0682C27.949 27.0915 27.8534 25.9132 27.379 25.4203ZM23.3113 24.2253C24.8214 22.656 27.3393 22.2203 28.8988 23.841C30.4583 25.4616 30.0391 28.0782 28.529 29.6475C27.0189 31.2168 24.5011 31.6524 22.9415 30.0318C21.382 28.4111 21.8012 25.7946 23.3113 24.2253Z" fill="#324654"/>
<path fill-rule="evenodd" clip-rule="evenodd" d="M0.268311 20.3307C0.268311 19.8682 0.629156 19.4932 1.07428 19.4932H27.6531C28.0983 19.4932 28.4591 19.8682 28.4591 20.3307C28.4591 20.7933 28.0983 21.1683 27.6531 21.1683H1.07428C0.629156 21.1683 0.268311 20.7933 0.268311 20.3307Z" fill="#324654"/>
<path fill-rule="evenodd" clip-rule="evenodd" d="M12.8649 12.5812C13.1543 12.6492 13.3359 12.9482 13.2705 13.249L13.0151 14.4234C12.9497 14.7242 12.6621 14.913 12.3726 14.845C12.0832 14.777 11.9015 14.4781 11.9669 14.1773L12.2223 13.0028C12.2877 12.702 12.5754 12.5133 12.8649 12.5812Z" fill="#324654"/>
<path fill-rule="evenodd" clip-rule="evenodd" d="M14.0204 2.97381C14.3098 3.04179 14.4915 3.34073 14.426 3.64153L14.1707 4.81601C14.1053 5.11681 13.8176 5.30555 13.5281 5.23758C13.2387 5.16961 13.0571 4.87066 13.1225 4.56986L13.3779 3.39538C13.4433 3.09459 13.7309 2.90584 14.0204 2.97381Z" fill="#324654"/>
<path fill-rule="evenodd" clip-rule="evenodd" d="M10.6436 5.88221C10.886 4.87078 11.761 4.16113 12.7642 4.16113H14.5646C15.9868 4.16113 17.0299 5.55116 16.6852 6.98413L16.6192 7.25729C16.5469 7.55639 16.255 7.73797 15.9672 7.66287C15.6794 7.58777 15.5047 7.28442 15.5769 6.98532L15.6427 6.71328C15.8177 5.98474 15.2871 5.27788 14.5646 5.27788H12.7642C12.2537 5.27788 11.8091 5.63914 11.6862 6.1525L11.6859 6.15379C11.577 6.60399 11.7396 7.07931 12.0972 7.3578L14.9677 9.59508C15.6714 10.1431 15.9899 11.0776 15.7769 11.9631C15.5334 12.9735 14.6603 13.6842 13.6563 13.6842H11.8559C10.4343 13.6842 9.39153 12.2955 9.73474 10.8633L9.79787 10.5925C9.86775 10.2928 10.1582 10.1087 10.4466 10.1813C10.735 10.2539 10.9122 10.5558 10.8423 10.8555L10.7778 11.132C10.6025 11.8607 11.1333 12.5674 11.8559 12.5674H13.6563C14.1661 12.5674 14.6103 12.2068 14.7344 11.6922M10.6436 5.88221C10.4292 6.76956 10.7496 7.70371 11.4526 8.25132L14.3231 10.4886C14.6802 10.7667 14.8425 11.2423 14.7344 11.6922" fill="#324654"/>
</svg>
