<svg width="36" height="36" viewBox="0 0 36 36" fill="none" xmlns="http://www.w3.org/2000/svg">
<path opacity="0.5" d="M14.0657 35.745C21.8339 35.745 28.1313 34.1844 28.1313 32.2592C28.1313 30.3341 21.8339 28.7734 14.0657 28.7734C6.29742 28.7734 0 30.3341 0 32.2592C0 34.1844 6.29742 35.745 14.0657 35.745Z" fill="#B8CBCD"/>
<path d="M13.2985 33.2737L1.82275 21.7976L17.6802 5.93994H28.0328C28.7009 6.00752 29.137 6.45309 29.2131 7.12027V17.4481L13.2985 33.2737Z" fill="#FFBAB0"/>
<path fill-rule="evenodd" clip-rule="evenodd" d="M17.0542 5.31398C17.2202 5.14796 17.4454 5.05469 17.6802 5.05469H28.0328C28.0626 5.05469 28.0923 5.05619 28.1219 5.05918C28.6358 5.11116 29.1101 5.31636 29.4727 5.68111C29.834 6.04444 30.0352 6.51643 30.0927 7.0199C30.0965 7.05322 30.0984 7.08673 30.0984 7.12026V17.4481C30.0984 17.6838 30.0044 17.9097 29.8373 18.0758L13.9227 33.9014C13.5767 34.2454 13.0175 34.2447 12.6725 33.8996L1.19677 22.4236C0.851074 22.0779 0.851075 21.5174 1.19678 21.1717L17.0542 5.31398ZM18.0468 6.82518L3.07466 21.7976L13.3002 32.0235L28.3279 17.08V7.17942C28.3054 7.04245 28.2563 6.96874 28.2172 6.92938C28.1791 6.89105 28.1103 6.84458 27.9799 6.82518H18.0468Z" fill="#783741"/>
<path d="M22.4264 14.7923C23.5672 14.7923 24.492 13.8675 24.492 12.7267C24.492 11.5859 23.5672 10.6611 22.4264 10.6611C21.2856 10.6611 20.3608 11.5859 20.3608 12.7267C20.3608 13.8675 21.2856 14.7923 22.4264 14.7923Z" fill="white"/>
<path fill-rule="evenodd" clip-rule="evenodd" d="M22.4262 11.2511C21.6114 11.2511 20.9508 11.9117 20.9508 12.7265C20.9508 13.5414 21.6114 14.2019 22.4262 14.2019C23.2411 14.2019 23.9017 13.5414 23.9017 12.7265C23.9017 11.9117 23.2411 11.2511 22.4262 11.2511ZM19.7705 12.7265C19.7705 11.2598 20.9595 10.0708 22.4262 10.0708C23.893 10.0708 25.082 11.2598 25.082 12.7265C25.082 14.1933 23.893 15.3823 22.4262 15.3823C20.9595 15.3823 19.7705 14.1933 19.7705 12.7265Z" fill="#783741"/>
<path fill-rule="evenodd" clip-rule="evenodd" d="M12.1433 17.1525C11.4667 17.1525 10.9181 17.701 10.9181 18.3777C10.9181 19.0543 11.4667 19.6029 12.1433 19.6029C12.8199 19.6029 13.3685 19.0543 13.3685 18.3777C13.3685 17.701 12.8199 17.1525 12.1433 17.1525ZM9.73779 18.3777C9.73779 17.0492 10.8148 15.9722 12.1433 15.9722C13.4718 15.9722 14.5488 17.0492 14.5488 18.3777C14.5488 19.7062 13.4718 20.7832 12.1433 20.7832C10.8148 20.7832 9.73779 19.7062 9.73779 18.3777Z" fill="#783741"/>
<path fill-rule="evenodd" clip-rule="evenodd" d="M17.0701 22.0797C16.3934 22.0797 15.8449 22.6283 15.8449 23.3049C15.8449 23.9816 16.3934 24.5301 17.0701 24.5301C17.7467 24.5301 18.2952 23.9816 18.2952 23.3049C18.2952 22.6283 17.7467 22.0797 17.0701 22.0797ZM14.6646 23.3049C14.6646 21.9764 15.7415 20.8994 17.0701 20.8994C18.3986 20.8994 19.4756 21.9764 19.4756 23.3049C19.4756 24.6334 18.3986 25.7104 17.0701 25.7104C15.7415 25.7104 14.6646 24.6334 14.6646 23.3049Z" fill="#783741"/>
<path fill-rule="evenodd" clip-rule="evenodd" d="M18.7837 16.6641C19.0142 16.8945 19.0142 17.2682 18.7837 17.4987L11.2638 25.0186C11.0333 25.249 10.6597 25.249 10.4292 25.0186C10.1987 24.7881 10.1987 24.4144 10.4292 24.1839L17.9491 16.6641C18.1795 16.4336 18.5532 16.4336 18.7837 16.6641Z" fill="#783741"/>
<path fill-rule="evenodd" clip-rule="evenodd" d="M27.9324 2.38215C27.1415 2.88094 26.4449 3.73559 25.9038 5.0882C25.2345 6.76153 25.0271 7.66699 24.84 8.60443C24.8201 8.70418 24.8004 8.80464 24.7803 8.90663C24.6039 9.8049 24.4043 10.821 23.8583 12.5015C23.7072 12.9665 23.2077 13.221 22.7428 13.0699C22.2778 12.9188 22.0233 12.4194 22.1744 11.9544C22.6872 10.3763 22.87 9.44624 23.0433 8.56385C23.0634 8.46154 23.0834 8.35987 23.1038 8.2579C23.3078 7.23563 23.543 6.22306 24.26 4.43065C24.8993 2.83244 25.8 1.63376 26.988 0.884572C28.1804 0.132654 29.5689 -0.107704 31.0716 0.0425009L31.0716 0.0425047C32.8283 0.218175 34.0856 1.11122 34.8835 2.26373C35.6651 3.39259 36 4.75537 36 5.93975C36 9.81319 32.7864 11.779 29.5156 12.9684C29.0561 13.1355 28.5482 12.8985 28.3811 12.439C28.214 11.9795 28.4511 11.4716 28.9105 11.3045C32.1315 10.1332 34.2295 8.55811 34.2295 5.93975C34.2295 5.05855 33.9742 4.06068 33.4278 3.27151C32.8979 2.50599 32.0896 1.92363 30.8955 1.80421M27.9324 2.38215C28.719 1.8861 29.6911 1.68383 30.8955 1.80421Z" fill="#783741"/>
</svg>
