<svg width="540" height="268" viewBox="0 0 540 268" fill="none" xmlns="http://www.w3.org/2000/svg">
<path d="M145.231 223.201L30.2469 223.141C30.2469 223.141 19.2299 220.912 22.6439 211.815C26.0579 202.718 34.3009 207.683 34.3009 207.683C34.3009 207.683 22.1789 175.948 32.8859 160.083C43.5929 144.217 61.5959 117.067 50.1489 95.3699C38.7019 73.6729 -2.26006 61.5879 11.0069 29.9329C24.2739 -1.72207 56.8599 -3.58407 74.5499 5.49293C92.2399 14.5709 100.386 28.7689 100.386 28.7689C100.386 28.7689 102.248 -2.18806 121.8 12.9409C141.352 28.0699 130.179 61.8199 130.179 61.8199C130.179 61.8199 146.065 46.9229 154.182 60.6559C162.299 74.3889 145.075 106.044 124.36 122.337C103.644 138.63 85.7219 165.979 86.8859 184.018C88.0499 202.057 103.877 202.173 108.532 199.729C113.187 197.285 116.097 190.186 119.239 193.91C122.381 197.634 119.006 201.94 119.006 201.94C119.006 201.94 129.946 197.052 133.437 203.453C136.928 209.854 131.459 215.44 131.459 215.44C131.459 215.44 138.093 211.716 142.98 215.789C147.868 219.864 145.231 223.201 145.231 223.201Z" fill="#FFD9C6"/>
<path d="M202.179 223.141C202.179 223.141 194.731 220.252 195.817 215.597C196.903 210.942 200.472 211.815 200.472 211.815C200.472 211.815 176.886 200.545 179.989 184.407C183.092 168.269 199.696 165.631 214.282 162.838C228.868 160.045 232.127 143.131 223.127 135.838C214.127 128.545 205.825 134.907 197.912 129.204C189.998 123.501 195.352 115.588 195.352 115.588C195.352 115.588 179.189 110.93 176.499 94.196C173.808 77.462 199.077 73.924 199.077 73.924C199.077 73.924 193.18 17.752 245.474 17.441C297.767 17.131 275.165 63.993 266.915 81.062C258.665 98.131 251.449 126.035 272.63 133.148C293.811 140.261 295.581 110.351 317.972 117.625C340.363 124.899 322.441 141.987 322.441 141.987C322.441 141.987 330.122 138.152 327.562 149.797C325.002 161.442 306.886 160.269 304.538 172.144C302.191 184.019 313.083 191.7 313.083 191.7C313.083 191.7 313.363 186.318 321.742 185.517C330.121 184.717 329.23 191.7 329.23 191.7C329.23 191.7 334.311 188.674 340.595 191.7C346.879 194.726 347.112 199.148 347.112 199.148C347.112 199.148 347.112 192.32 351.146 191.079C355.18 189.838 357.198 191.545 357.198 191.545C357.198 191.545 369.468 143.803 422.293 136.013C475.118 128.222 487.887 157.252 484.883 177.269C481.879 197.286 475.595 203.338 475.595 203.338C475.595 203.338 485.604 200.778 494.681 207.062C503.759 213.346 503.351 221.027 503.351 221.027L202.179 223.141Z" fill="#FFD9C6"/>
<path d="M538.903 267.243H8.51785C8.18885 267.243 7.92285 266.977 7.92285 266.648C7.92285 266.319 8.18885 266.053 8.51785 266.053H538.903C539.232 266.053 539.498 266.319 539.498 266.648C539.498 266.977 539.232 267.243 538.903 267.243Z" fill="#2D4352"/>
<path d="M211.453 238.635C208.372 238.635 205.396 237.668 202.132 235.711C199.858 234.578 196.015 236.077 192.926 237.512C192.631 237.653 192.274 237.522 192.136 237.224C191.998 236.925 192.127 236.572 192.424 236.434C195.963 234.788 199.955 233.295 202.703 234.669C208.192 237.96 212.79 238.275 218.607 235.776C218.907 235.645 219.259 235.785 219.388 236.087C219.518 236.389 219.379 236.739 219.077 236.868C216.346 238.041 213.867 238.635 211.453 238.635Z" fill="#2D4352"/>
<path d="M271.771 252.713C270.296 252.713 269.365 252.026 268.384 251.303C267.607 250.729 266.803 250.135 265.585 249.76C262.814 248.906 257.578 251.446 257.526 251.472C257.234 251.613 256.875 251.495 256.73 251.199C256.586 250.904 256.708 250.547 257.003 250.403C257.234 250.29 262.724 247.636 265.935 248.623C267.347 249.058 268.274 249.742 269.092 250.345C270.096 251.085 270.829 251.632 272.109 251.508C273.212 251.413 274.563 250.697 275.993 249.94C277.783 248.992 279.812 247.919 281.899 247.784C285.753 247.534 287.313 249.184 287.378 249.255C287.601 249.495 287.586 249.872 287.344 250.095C287.104 250.319 286.728 250.304 286.504 250.061C286.497 250.053 285.212 248.771 281.975 248.971C280.142 249.089 278.315 250.056 276.55 250.991C275.01 251.807 273.555 252.577 272.212 252.693C272.06 252.707 271.912 252.713 271.771 252.713Z" fill="#2D4352"/>
<path d="M279.493 255.14C279.257 255.14 279.034 254.998 278.941 254.766C278.819 254.46 278.967 254.115 279.272 253.993C279.445 253.922 283.542 252.314 287.042 252.911C288.35 253.136 289.073 253.411 289.6 253.612C290.374 253.905 290.558 253.976 291.954 253.408C292.456 253.204 292.887 253.018 293.276 252.85C294.891 252.154 295.866 251.734 298.295 251.526C301.335 251.268 302.624 252.1 302.761 252.195C303.031 252.384 303.097 252.755 302.909 253.025C302.718 253.295 302.349 253.357 302.08 253.171C302.078 253.169 301.002 252.489 298.398 252.711C296.16 252.903 295.303 253.272 293.747 253.942C293.351 254.113 292.914 254.301 292.403 254.509C290.646 255.225 290.172 255.1 289.178 254.724C288.696 254.54 288.036 254.291 286.841 254.085C283.679 253.538 279.755 255.082 279.715 255.097C279.642 255.126 279.566 255.14 279.493 255.14Z" fill="#2D4352"/>
<path d="M230.731 246.174C230.495 246.174 230.272 246.032 230.179 245.8C230.057 245.494 230.205 245.149 230.51 245.027C230.683 244.956 234.78 243.348 238.28 243.945C239.588 244.17 240.311 244.445 240.838 244.646C241.612 244.939 241.796 245.01 243.192 244.442C243.694 244.238 244.125 244.052 244.514 243.884C246.129 243.188 247.104 242.768 249.533 242.56C252.573 242.302 253.862 243.134 253.999 243.229C254.269 243.418 254.335 243.789 254.147 244.058C253.956 244.328 253.587 244.39 253.318 244.204C253.316 244.202 252.24 243.522 249.636 243.744C247.398 243.936 246.541 244.305 244.985 244.975C244.589 245.146 244.152 245.334 243.641 245.542C241.884 246.258 241.41 246.133 240.416 245.757C239.934 245.573 239.274 245.324 238.079 245.118C234.917 244.571 230.993 246.115 230.953 246.13C230.88 246.16 230.805 246.174 230.731 246.174Z" fill="#2D4352"/>
<path d="M361.861 242.51C361.79 242.51 361.719 242.51 361.647 242.509C359.267 242.47 357.262 241.484 355.495 240.615C354.281 240.018 353.133 239.454 352.01 239.256C350.446 238.983 348.665 239.838 346.77 240.742C345.443 241.375 344.071 242.03 342.694 242.325C340.596 242.775 339.331 242.331 337.731 241.766C336.68 241.397 335.488 240.976 333.747 240.702C329.616 240.043 326.166 242.222 326.132 242.244C325.856 242.422 325.487 242.342 325.311 242.065C325.133 241.789 325.212 241.421 325.489 241.244C325.642 241.143 329.33 238.803 333.934 239.527C335.781 239.819 337.082 240.278 338.128 240.646C339.66 241.186 340.675 241.545 342.446 241.162C343.686 240.897 344.994 240.272 346.258 239.669C348.24 238.724 350.287 237.746 352.217 238.086C353.508 238.313 354.728 238.913 356.021 239.549C357.757 240.403 359.553 241.286 361.666 241.321C365.298 241.426 367.952 239.772 367.98 239.756C368.261 239.585 368.627 239.674 368.797 239.954C368.969 240.234 368.882 240.6 368.602 240.771C368.484 240.842 365.719 242.51 361.861 242.51Z" fill="#2D4352"/>
<path d="M462.781 243.884C462.682 243.884 462.582 243.883 462.479 243.879C460.641 243.813 459.975 243.562 459.134 243.242C458.811 243.12 458.451 242.983 457.964 242.837C456.684 242.456 453.08 243.438 451.8 243.85C451.49 243.952 451.153 243.779 451.052 243.467C450.951 243.154 451.123 242.82 451.435 242.719C451.94 242.555 456.434 241.137 458.306 241.699C458.825 241.855 459.211 242 459.556 242.131C460.353 242.432 460.879 242.632 462.521 242.69C463.742 242.736 464.502 242.456 465.303 242.161C466.019 241.898 466.759 241.627 467.818 241.565C470.11 241.422 471.603 242.161 471.666 242.191C471.96 242.336 472.08 242.691 471.936 242.986C471.792 243.279 471.436 243.403 471.141 243.259C471.129 243.253 469.841 242.65 467.888 242.752C467.004 242.803 466.378 243.033 465.713 243.278C464.901 243.576 464.064 243.884 462.781 243.884Z" fill="#2D4352"/>
<path d="M448.266 257.732C447.45 257.732 446.881 257.615 444.784 257.101C442.233 256.478 440.49 257.56 440.417 257.606C440.139 257.781 439.773 257.7 439.597 257.426C439.42 257.149 439.498 256.784 439.774 256.606C439.862 256.548 442.005 255.196 445.068 255.946C447.641 256.576 447.741 256.57 448.963 256.523L449.269 256.51C450.657 256.459 451.63 255.826 451.639 255.819C451.913 255.634 452.281 255.713 452.464 255.986C452.645 256.26 452.57 256.63 452.297 256.811C452.246 256.845 451.032 257.636 449.314 257.7L449.011 257.712C448.721 257.724 448.484 257.732 448.266 257.732Z" fill="#2D4352"/>
<path d="M410.081 64.815C400.975 54.718 359.398 91.084 307.569 137.827C268.092 173.432 234.059 204.784 224.102 222.169C232.37 220.547 239.809 222.068 248.421 222.362C252.957 222.517 257.521 221.51 261.991 221.913C264.87 222.172 267.543 222.789 270.279 223.201C291.301 212.658 316.502 196.076 340.546 174.391C392.374 127.647 419.187 74.912 410.081 64.815Z" fill="#BFAD49"/>
<path d="M409.995 64.6021C409.71 64.2861 409.394 64.016 409.046 63.79C409.399 64.025 409.717 64.2931 409.995 64.6021Z" fill="#D95735"/>
<path d="M409.995 64.6021C419.101 74.6991 384.468 120.777 332.64 167.521C306.808 190.819 281.583 209.881 261.646 221.896C261.761 221.905 261.876 221.904 261.991 221.914C264.733 222.161 267.289 222.731 269.889 223.141C290.971 212.606 316.3 195.967 340.46 174.178C392.288 127.434 419.101 74.6981 409.995 64.6021Z" fill="#D95735"/>
<path d="M408.917 63.717C408.702 63.587 408.475 63.474 408.237 63.376C408.471 63.483 408.708 63.586 408.917 63.717Z" fill="#D95735"/>
<path d="M351.144 103.097C351.144 103.097 343.604 136.769 317.969 157.252C292.334 177.735 262.386 182.7 262.386 182.7C262.386 182.7 245.277 141.209 278.073 110.463C308.937 81.528 351.144 103.097 351.144 103.097Z" fill="#4AA29A"/>
<path d="M302.032 150.58L295.515 155.002L288.532 149.692L279.92 131.648L281.084 126.45L274.8 118.614L278.99 126.761L277.438 145.149L271.852 151.977L269.292 147.167L274.801 161.676C274.801 161.676 270.541 180.81 270.678 180.772C270.815 180.734 272.445 180.275 272.445 180.275L275.887 161.133L272.473 152.909L278.99 146.47L294.662 156.013L296.476 170.891L299.103 169.539L295.749 155.935L302.033 151.901L311.755 161.875L313.08 160.943L302.032 150.58ZM278.368 144.8L279.648 134.714L286.67 149.261L278.368 144.8Z" fill="#FEF4E8"/>
<path d="M262.211 92.6621C262.211 92.6621 263.578 96.3571 263.462 97.9861C263.346 99.6151 264.219 103.776 264.219 103.776L258.982 101.768C258.982 101.768 260.059 104.707 262.386 106.918C264.714 109.129 267.041 109.944 265.761 112.621C264.481 115.298 260.698 114.541 258.982 112.621C257.265 110.701 257.149 110.002 257.149 110.002C257.149 110.002 257.615 114.192 259.651 116.694C261.688 119.196 267.798 120.244 267.798 120.244L265.952 125.723L270.067 122.222L271.438 129.787L273.442 121.408L275.828 124.55L276.526 119.72L282.81 120.651L277.689 117.101L280.715 111.573L277.456 111.922L278.368 108.605C278.368 108.605 276.176 110.874 275.361 110.525C274.546 110.176 276.292 102.669 276.292 102.669C276.292 102.669 273.79 107.615 270.822 106.684C267.854 105.753 266.05 101.68 265.934 98.6541C265.819 95.6291 262.211 92.6621 262.211 92.6621Z" fill="#EAA535"/>
<path d="M268.698 108.132C268.698 108.132 269.18 109.435 269.139 110.01C269.098 110.585 269.406 112.052 269.406 112.052L267.559 111.344C267.559 111.344 267.939 112.38 268.76 113.16C269.581 113.94 270.402 114.227 269.95 115.171C269.499 116.115 268.165 115.848 267.559 115.171C266.954 114.494 266.913 114.247 266.913 114.247C266.913 114.247 267.077 115.725 267.795 116.607C268.513 117.489 270.668 117.859 270.668 117.859L270.017 119.791L271.468 118.556L271.951 121.224L272.658 118.269L273.499 119.377L273.745 117.674L275.961 118.002L274.155 116.75L275.222 114.801L274.073 114.924L274.395 113.754C274.395 113.754 273.622 114.554 273.335 114.431C273.048 114.308 273.663 111.661 273.663 111.661C273.663 111.661 272.781 113.405 271.734 113.077C270.687 112.749 270.051 111.312 270.01 110.245C269.969 109.178 268.698 108.132 268.698 108.132Z" fill="#D95735"/>
<path d="M268.146 91.032C268.146 91.032 269.775 95.047 269.717 98.946C269.659 102.845 270.648 103.368 270.648 103.368C270.648 103.368 270.357 102.03 270.997 100.458C271.638 98.888 271.754 92.254 268.146 91.032Z" fill="#EAA535"/>
<path d="M305.871 224.309C303.604 224.309 301.084 224.187 298.899 223.787L297.249 223.479C292.672 222.615 289.648 222.043 284.047 222.931C277.282 224 273.266 224.247 270.192 223.79C268.907 223.599 267.864 223.426 266.84 223.256C265.354 223.009 263.949 222.775 261.912 222.504C259.453 222.175 257.162 222.388 254.509 222.632C253.519 222.723 252.492 222.818 251.407 222.888C248.127 223.101 244.966 222.83 241.911 222.57C241.219 222.511 240.528 222.452 239.841 222.398C236.2 222.116 227.847 221.787 225.256 222.563C224.244 222.867 223.742 223.077 223.375 223.23C222.695 223.513 222.444 223.595 221.193 223.604C220.275 223.602 219.687 223.509 218.986 223.389C218.13 223.244 217.063 223.064 214.97 223.021C211.293 222.945 208.007 223.676 207.975 223.683C207.65 223.759 207.335 223.554 207.264 223.235C207.191 222.914 207.392 222.596 207.712 222.524C207.851 222.491 211.178 221.764 214.993 221.832C217.176 221.877 218.29 222.066 219.185 222.218C219.858 222.332 220.421 222.419 221.184 222.415C222.257 222.407 222.371 222.36 222.917 222.133C223.285 221.978 223.843 221.746 224.914 221.425C227.888 220.532 236.979 220.984 239.932 221.214C240.623 221.266 241.316 221.326 242.012 221.385C245.023 221.642 248.137 221.907 251.331 221.702C252.404 221.632 253.421 221.539 254.4 221.449C257.012 221.209 259.478 220.98 262.069 221.326C264.126 221.601 265.54 221.836 267.036 222.085C268.054 222.255 269.091 222.427 270.367 222.617C273.281 223.048 277.316 222.794 283.862 221.758C289.666 220.839 292.94 221.458 297.47 222.312L299.114 222.619C304.478 223.602 312.214 222.83 312.292 222.822C312.611 222.789 312.911 223.024 312.944 223.353C312.978 223.679 312.74 223.972 312.413 224.005C312.217 224.023 309.338 224.309 305.871 224.309Z" fill="#2D4352"/>
<path d="M65.1611 169.666C65.1611 169.666 70.8251 166.058 74.0061 162.722C77.1871 159.386 78.0721 156.981 78.0721 156.981L34.3001 165.724C34.3001 165.724 42.5051 242.597 39.7121 252.218C36.9191 261.839 30.2471 266.649 30.2471 266.649H62.3291L58.4881 221.028C58.4881 221.028 66.8671 247.33 66.6351 255.127C66.4021 262.924 62.3291 266.649 62.3291 266.649H93.4021L65.1611 169.666Z" fill="white"/>
<path d="M34.301 165.724L46.677 171.392L45.979 167.728L68.793 167.149C68.793 167.149 71.485 165.514 73.774 163.419C76.063 161.324 78.073 156.98 78.073 156.98L34.301 165.724Z" fill="#2D4352"/>
<path d="M93.4019 267.243H30.2469C29.9889 267.243 29.7599 267.077 29.6809 266.832C29.6019 266.586 29.6889 266.317 29.8979 266.166C29.9629 266.118 36.4419 261.347 39.1409 252.052C41.8699 242.653 33.7899 166.555 33.7089 165.787C33.6759 165.481 33.8819 165.201 34.1839 165.141L77.9559 156.398C78.1639 156.353 78.3849 156.431 78.5239 156.594C78.6649 156.758 78.7039 156.984 78.6299 157.187C78.5929 157.289 77.6659 159.746 74.4369 163.133C71.6789 166.025 67.1859 169.053 65.8549 169.926L93.9729 266.483C94.0249 266.663 93.9889 266.856 93.8779 267.006C93.7659 267.155 93.5899 267.243 93.4019 267.243ZM63.6479 266.054H92.6099L64.5889 169.833C64.5159 169.58 64.6179 169.307 64.8409 169.165C64.8969 169.129 70.4809 165.558 73.5749 162.313C75.4079 160.39 76.4599 158.78 77.0079 157.801L34.9479 166.203C35.7349 173.629 42.9849 243.081 40.2839 252.386C38.1889 259.598 34.0099 264.123 31.8879 266.055H61.6819L57.8959 221.079C57.8699 220.777 58.0759 220.505 58.3719 220.446C58.6729 220.382 58.9619 220.56 59.0549 220.849C59.3979 221.926 67.4629 247.336 67.2289 255.146C67.0599 260.842 64.9169 264.421 63.6479 266.054ZM59.5469 226.51L62.8029 265.183C63.9639 263.626 65.8849 260.288 66.0399 255.109C66.2039 249.63 61.9639 234.592 59.5469 226.51Z" fill="#2D4352"/>
<path d="M47.985 167.729C74.2091 167.729 95.468 146.47 95.468 120.246C95.468 94.0218 74.2091 72.7629 47.985 72.7629C21.7608 72.7629 0.501953 94.0218 0.501953 120.246C0.501953 146.47 21.7608 167.729 47.985 167.729Z" fill="#D95735"/>
<path d="M42.546 92.0258C30.591 92.0258 24.318 79.2008 24.252 79.0628C24.11 78.7668 24.236 78.4108 24.532 78.2698C24.827 78.1268 25.183 78.2538 25.325 78.5498C25.391 78.6908 32.239 92.6278 45.052 90.6388C57.971 88.6228 63.309 75.4168 63.362 75.2848C63.484 74.9788 63.829 74.8248 64.133 74.9488C64.439 75.0688 64.59 75.4137 64.47 75.7187C64.415 75.8577 58.839 89.6917 45.236 91.8137C44.309 91.9577 43.413 92.0258 42.546 92.0258Z" fill="#EDA433"/>
<path d="M8.51889 147.247C8.28489 147.247 8.0639 147.109 7.9689 146.88C7.8439 146.577 7.98789 146.229 8.28989 146.103C8.44289 146.039 12.0669 144.472 13.2189 139.43C14.0449 135.818 13.1269 132.803 11.9669 128.986C11.4439 127.269 10.8529 125.324 10.3489 123.091C9.29489 118.426 10.8959 115.871 13.1119 112.332C14.5079 110.103 16.0909 107.575 17.5099 103.819C21.0579 94.4308 14.4009 86.7818 14.3339 86.7048C14.1159 86.4598 14.1379 86.0848 14.3829 85.8658C14.6259 85.6448 15.0029 85.6678 15.2219 85.9138C15.2949 85.9948 22.4319 94.1648 18.6239 104.24C17.1619 108.106 15.4769 110.801 14.1209 112.965C11.9799 116.384 10.5649 118.644 11.5089 122.83C12.0039 125.021 12.5889 126.944 13.1049 128.641C14.3179 132.627 15.2759 135.777 14.3789 139.696C13.0849 145.363 8.92089 147.131 8.74289 147.205C8.66989 147.233 8.59289 147.247 8.51889 147.247Z" fill="#EDA433"/>
<path d="M95.303 124.798C95.215 124.798 95.124 124.778 95.039 124.736C94.824 124.628 89.751 122.031 88.471 114.76C87.164 107.327 92.761 104.761 92.818 104.736C93.115 104.601 93.467 104.737 93.601 105.038C93.735 105.338 93.6 105.689 93.3 105.823C93.104 105.911 88.501 108.062 89.642 114.553C90.813 121.209 95.522 123.646 95.569 123.671C95.862 123.819 95.981 124.175 95.834 124.469C95.732 124.678 95.522 124.798 95.303 124.798Z" fill="#EDA433"/>
<path d="M85.8349 149.513C85.5159 149.513 85.2519 149.26 85.2399 148.939C85.2389 148.886 85.0369 143.544 83.6299 140.51C83.1799 139.539 81.2119 137.846 78.9339 135.886C74.1999 131.813 67.7149 126.234 66.1369 120.08C64.4049 113.329 70.3069 106.423 75.0479 100.876C76.9229 98.6809 78.6949 96.6099 79.6999 94.8839C82.9549 89.2919 81.3469 87.3029 81.3309 87.2849C81.1069 87.0449 81.1219 86.6679 81.3619 86.4449C81.5999 86.2209 81.9799 86.2349 82.2019 86.4759C82.4389 86.7319 84.4119 89.1549 80.7269 95.4829C79.6689 97.3009 77.8629 99.4119 75.9529 101.649C71.3899 106.987 65.7109 113.632 67.2899 119.785C68.7749 125.576 75.0959 131.015 79.7109 134.984C82.2889 137.202 84.1519 138.805 84.7109 140.01C86.2179 143.262 86.4219 148.668 86.4299 148.896C86.4419 149.225 86.1839 149.5 85.8559 149.512C85.8489 149.513 85.8419 149.513 85.8349 149.513Z" fill="#EDA433"/>
<path d="M26.1431 160.688C21.5041 160.688 19.2141 158.782 19.0751 158.661C18.8251 158.446 18.7981 158.071 19.0121 157.822C19.2281 157.572 19.6001 157.545 19.8501 157.758C19.8961 157.798 24.6421 161.667 34.5261 157.659C38.2551 156.145 41.6431 154.01 44.9191 151.945C50.6881 148.308 56.6551 144.546 64.5181 144.244C76.7721 143.814 83.0771 151.758 83.3391 152.099C83.5391 152.359 83.4901 152.732 83.2301 152.932C82.9701 153.132 82.5961 153.083 82.3971 152.825C82.3371 152.746 76.1911 144.987 64.5651 145.434C57.0201 145.723 51.4511 149.234 45.5541 152.952C42.2341 155.044 38.8011 157.209 34.9731 158.761C31.4151 160.203 28.4801 160.688 26.1431 160.688Z" fill="#EDA433"/>
<path d="M34.9268 143.359C19.6568 143.359 18.6748 131.866 18.2498 126.89C17.8718 122.469 21.3008 119.4 24.6168 116.432C26.3448 114.886 27.9768 113.425 28.9688 111.857C32.0498 106.993 40.1358 99.1308 44.2808 98.6278C45.0508 98.5368 48.5458 98.5548 50.4788 100.374C51.4098 101.25 51.8408 102.387 51.7578 103.755C51.6098 106.224 50.3228 108.159 48.9618 110.207C47.7188 112.074 46.4348 114.006 45.7178 116.636C44.7898 120.049 46.3978 122.153 48.4318 124.817C49.5368 126.263 50.7888 127.903 51.7058 129.93C52.9468 132.671 52.8898 135.375 51.5448 137.547C50.0318 139.988 46.1228 142.975 36.0898 143.338C35.6928 143.352 35.3058 143.359 34.9268 143.359ZM44.4238 99.8068C40.6538 100.266 32.8668 107.924 29.9738 112.492C28.8918 114.2 27.2008 115.714 25.4088 117.317C22.3118 120.091 19.1078 122.959 19.4338 126.787C20.1068 134.657 22.6458 142.646 36.0438 142.148C45.5538 141.804 49.1708 139.115 50.5308 136.92C51.9798 134.583 51.3788 132.095 50.6218 130.42C49.7598 128.517 48.6038 127.003 47.4848 125.539C45.4288 122.846 43.4858 120.304 44.5688 116.324C45.3358 113.507 46.7348 111.403 47.9698 109.547C49.2968 107.552 50.4418 105.83 50.5698 103.682C50.6298 102.669 50.3338 101.87 49.6628 101.239C48.1788 99.8428 45.2998 99.6988 44.4238 99.8068Z" fill="#EDA433"/>
<path d="M51.1639 116.183C50.9919 116.183 50.8209 116.109 50.7029 115.965C50.4959 115.711 50.5329 115.335 50.7879 115.127C51.0649 114.902 78.4309 92.3038 75.5409 72.8498C72.6769 53.5878 55.0928 54.1538 54.9088 54.1518C54.5758 54.1738 53.5659 54.2728 53.0299 54.4688C52.5469 54.6438 52.3979 54.8438 52.3959 54.8468C52.2369 55.1338 51.8809 55.2228 51.5969 55.0628C51.3099 54.9038 51.2149 54.5268 51.3739 54.2398C51.4249 54.1478 51.7209 53.6788 52.6229 53.3508C53.4299 53.0558 54.7889 52.9678 54.8449 52.9638C55.0449 52.9578 73.6969 52.3598 76.7169 72.6748C79.7089 92.7968 52.6929 115.109 51.5409 116.049C51.4299 116.138 51.2959 116.183 51.1639 116.183Z" fill="#2D4352"/>
<path d="M43.6299 44.0109L32.2819 58.4379C30.7159 60.4279 32.0049 63.3599 34.5299 63.5519L53.6929 65.0089C56.1359 65.1949 57.8549 62.6539 56.7739 60.4549L48.9589 44.5709C47.9299 42.4789 45.0709 42.1789 43.6299 44.0109Z" fill="#D95735"/>
<path d="M50.149 53.9588C50.019 53.9588 49.889 53.9168 49.78 53.8298C49.522 53.6258 49.479 53.2508 49.684 52.9948C49.734 52.9318 50.913 51.4678 52.556 51.3618C54.059 51.2628 54.929 51.6578 55.024 51.7038C55.32 51.8458 55.445 52.2008 55.302 52.4968C55.159 52.7908 54.809 52.9128 54.513 52.7768C54.497 52.7698 53.811 52.4738 52.633 52.5488C51.529 52.6208 50.625 53.7238 50.616 53.7338C50.497 53.8828 50.324 53.9588 50.149 53.9588Z" fill="#2D4352"/>
<path d="M49.528 51.7858C49.384 51.7858 49.239 51.7338 49.124 51.6278C48.884 51.4048 48.868 51.0298 49.091 50.7888C49.134 50.7408 50.164 49.6378 51.477 49.3588C52.779 49.0858 54.301 49.6838 54.365 49.7098C54.669 49.8318 54.817 50.1778 54.695 50.4828C54.573 50.7878 54.226 50.9378 53.922 50.8138C53.91 50.8088 52.671 50.3208 51.723 50.5238C50.787 50.7228 49.971 51.5888 49.963 51.5968C49.848 51.7218 49.687 51.7858 49.528 51.7858Z" fill="#2D4352"/>
<path d="M55.6 58.7929C54.903 58.7929 49.727 58.7019 45.272 56.1079C40.491 53.3239 39.629 48.6939 39.596 48.4969C39.539 48.1739 39.755 47.8669 40.078 47.8089C40.403 47.7559 40.71 47.9679 40.767 48.2899C40.775 48.3329 41.584 52.5839 45.872 55.0809C50.259 57.6349 55.608 57.5959 55.656 57.6029C55.659 57.6029 55.662 57.6029 55.664 57.6029C55.989 57.6029 56.254 57.8639 56.259 58.1899C56.262 58.5189 56 58.7879 55.672 58.7929C55.66 58.7929 55.636 58.7929 55.6 58.7929Z" fill="#2D4352"/>
<path d="M38.3551 54.5049C38.2191 54.5049 38.0831 54.4589 37.9701 54.3639L35.3511 52.1499C35.1001 51.9369 35.0691 51.5619 35.2811 51.3109C35.4941 51.0609 35.8681 51.0309 36.1201 51.2409L38.7391 53.4549C38.9901 53.6679 39.0211 54.0429 38.8091 54.2939C38.6921 54.4329 38.5241 54.5049 38.3551 54.5049Z" fill="#2D4352"/>
<path d="M58.4889 221.623C58.2189 221.623 57.9749 221.439 57.9099 221.166L46.0969 171.53L45.3929 167.839C45.3309 167.516 45.5429 167.205 45.8659 167.143C46.1919 167.084 46.4988 167.293 46.5618 167.616L47.2599 171.28L59.0669 220.889C59.1439 221.21 58.9459 221.53 58.6269 221.606C58.5809 221.618 58.5339 221.623 58.4889 221.623Z" fill="#2D4352"/>
<path d="M32.688 258.514C31.568 258.514 30.83 258.148 30.485 257.418C30.182 256.776 30.398 256.31 30.554 256.089C31.295 255.04 34.021 254.989 35.816 255.081C34.574 253.221 32.303 249.453 32.856 247.522C33.011 246.978 33.367 246.581 33.885 246.371C34.379 246.173 34.882 246.212 35.348 246.485C37.634 247.827 38.653 255.414 38.761 256.275C38.794 256.531 38.658 256.777 38.425 256.887C38.36 256.917 36.821 257.641 35.128 258.115C34.178 258.381 33.363 258.514 32.688 258.514ZM31.522 256.782C31.522 256.782 31.52 256.821 31.562 256.91C31.962 257.76 34.501 257.195 36.699 256.335C33.971 256.096 31.696 256.368 31.522 256.782ZM34.506 247.436C34.45 247.436 34.392 247.449 34.331 247.474C34.152 247.546 34.053 247.658 33.999 247.848C33.591 249.276 35.851 253.133 37.422 255.311C36.942 252.285 35.937 248.208 34.745 247.51C34.661 247.461 34.584 247.436 34.506 247.436Z" fill="#2D4352"/>
<path d="M63.172 257.591C63.116 257.591 63.0601 257.589 63.0071 257.584C62.5601 257.543 62.183 257.344 61.92 257.005C61.503 256.473 61.6131 256.02 61.7161 255.797C61.9191 255.357 62.454 255.069 63.072 254.88C62.055 254.398 61.178 253.781 61.113 253.069C61.082 252.726 61.2001 252.237 61.9401 251.853C64.5631 250.498 67.0441 254.648 67.1481 254.826C67.2921 255.07 67.243 255.382 67.032 255.571C66.792 255.785 64.717 257.591 63.172 257.591ZM64.768 255.773C63.805 255.878 62.9421 256.101 62.7881 256.307C62.9011 256.33 62.963 256.386 63.112 256.399C63.525 256.44 64.143 256.155 64.768 255.773ZM62.332 253.006C62.611 253.385 64.032 254.074 65.49 254.529C64.764 253.603 63.537 252.361 62.488 252.911C62.413 252.949 62.363 252.981 62.332 253.006Z" fill="#2D4352"/>
<path d="M146.669 188.765C146.669 188.765 144.261 251.869 143.214 256.757C142.167 261.645 137.628 266.649 137.628 266.649H159.624V191.65L146.669 188.765Z" fill="white"/>
<path d="M174.088 185.518C174.088 185.518 177.387 251.869 178.434 256.757C179.481 261.645 184.02 266.649 184.02 266.649H162.024V191.378L174.088 185.518Z" fill="white"/>
<path d="M159.622 267.243H137.626C137.39 267.243 137.178 267.105 137.082 266.889C136.987 266.674 137.027 266.423 137.185 266.249C137.229 266.2 141.629 261.303 142.63 256.632C143.655 251.85 146.049 189.372 146.072 188.741C146.079 188.566 146.164 188.401 146.303 188.294C146.444 188.186 146.62 188.145 146.796 188.184L159.75 191.07C160.022 191.13 160.216 191.372 160.216 191.651V266.649C160.217 266.977 159.951 267.243 159.622 267.243ZM138.907 266.054H159.028V192.127L147.236 189.5C146.954 196.823 144.793 252.223 143.796 256.88C142.996 260.607 140.299 264.325 138.907 266.054Z" fill="#2D4352"/>
<path d="M184.021 267.243H162.025C161.696 267.243 161.43 266.977 161.43 266.648V191.378C161.43 191.15 161.56 190.942 161.765 190.842L173.828 184.982C174.008 184.895 174.221 184.904 174.391 185.005C174.563 185.107 174.672 185.288 174.681 185.488C174.715 186.15 177.991 251.845 179.017 256.63C180.018 261.307 184.417 266.198 184.461 266.247C184.619 266.421 184.66 266.672 184.564 266.887C184.469 267.105 184.257 267.243 184.021 267.243ZM162.62 266.054H182.741C181.349 264.325 178.652 260.608 177.853 256.881C176.862 252.256 173.953 194.716 173.538 186.447L162.62 191.75V266.054Z" fill="#2D4352"/>
<path d="M137.877 261.655C137.386 261.655 136.986 261.517 136.743 261.176C136.532 260.88 136.494 260.537 136.641 260.233C136.913 259.672 137.932 259.347 139.117 259.161C137.705 258.356 136.251 257.178 136.72 255.909C136.855 255.544 137.13 255.301 137.495 255.225C138.884 254.954 141.696 257.646 142.839 258.827C142.966 258.957 143.025 259.138 143.002 259.318C142.978 259.499 142.872 259.658 142.716 259.751C141.364 260.555 139.26 261.655 137.877 261.655ZM137.823 256.391C137.785 256.968 139.48 258.112 141.177 258.855C139.75 257.503 138.342 256.457 137.823 256.391Z" fill="#2D4352"/>
<path d="M183.824 258.796C181.919 258.796 178.797 257.309 178.113 256.972C177.943 256.888 177.823 256.728 177.791 256.54C177.758 256.353 177.817 256.161 177.949 256.025C178.5 255.457 181.332 252.626 183.136 252.626C183.138 252.626 183.139 252.626 183.142 252.626C183.565 252.627 183.931 252.777 184.2 253.058C184.501 253.373 184.609 253.762 184.503 254.152C184.319 254.836 183.394 255.452 182.34 255.947C183.662 256.085 184.914 256.384 185.309 257.001C185.51 257.315 185.525 257.683 185.352 258.036C185.247 258.25 185.028 258.536 184.578 258.689C184.362 258.763 184.107 258.796 183.824 258.796ZM181.446 257.075C182.619 257.478 183.708 257.731 184.196 257.563C184.199 257.562 184.203 257.562 184.205 257.561C183.834 257.338 182.761 257.158 181.446 257.075ZM183.137 253.816C182.502 253.816 181.344 254.594 180.279 255.488C181.903 254.912 183.252 254.21 183.357 253.843C183.319 253.869 183.277 253.816 183.14 253.816C183.138 253.816 183.137 253.816 183.137 253.816Z" fill="#2D4352"/>
<path d="M179.291 96.095C184.883 96.095 189.416 91.5619 189.416 85.97C189.416 80.3781 184.883 75.845 179.291 75.845C173.699 75.845 169.166 80.3781 169.166 85.97C169.166 91.5619 173.699 96.095 179.291 96.095Z" fill="#2D4352"/>
<path d="M161.895 191.7H154.325C143.303 191.7 134.369 182.765 134.369 171.744V102.493C134.369 91.4709 143.304 82.5369 154.325 82.5369H161.895C172.917 82.5369 181.851 91.4719 181.851 102.493V171.744C181.851 182.766 172.916 191.7 161.895 191.7Z" fill="#BFAD49"/>
<path d="M146.056 129.218C141.653 129.218 138.071 125.636 138.071 121.233C138.071 116.83 141.653 113.248 146.056 113.248C150.459 113.248 154.041 116.83 154.041 121.233C154.041 125.636 150.459 129.218 146.056 129.218ZM146.056 114.438C142.309 114.438 139.261 117.486 139.261 121.233C139.261 124.98 142.309 128.028 146.056 128.028C149.803 128.028 152.851 124.98 152.851 121.233C152.851 117.486 149.803 114.438 146.056 114.438Z" fill="#2D4352"/>
<path d="M167.256 129.218C162.853 129.218 159.271 125.636 159.271 121.233C159.271 116.83 162.853 113.248 167.256 113.248C171.659 113.248 175.241 116.83 175.241 121.233C175.241 125.636 171.66 129.218 167.256 129.218ZM167.256 114.438C163.509 114.438 160.461 117.486 160.461 121.233C160.461 124.98 163.509 128.028 167.256 128.028C171.003 128.028 174.051 124.98 174.051 121.233C174.051 117.486 171.003 114.438 167.256 114.438Z" fill="#2D4352"/>
<path d="M159.866 121.24H153.42C153.091 121.24 152.825 120.974 152.825 120.645C152.825 120.316 153.091 120.05 153.42 120.05H159.866C160.195 120.05 160.461 120.316 160.461 120.645C160.461 120.974 160.195 121.24 159.866 121.24Z" fill="#2D4352"/>
<path d="M183.015 120.082C182.771 120.082 182.541 119.93 182.455 119.687C182.455 119.687 182.224 119.096 181.599 118.804C181.06 118.612 177.39 118.955 174.312 119.38C173.984 119.416 173.686 119.198 173.642 118.872C173.597 118.547 173.824 118.247 174.15 118.202C176.231 117.914 181.171 117.29 182.102 117.726C183.189 118.234 183.56 119.244 183.575 119.287C183.685 119.596 183.524 119.936 183.215 120.047C183.148 120.071 183.081 120.082 183.015 120.082Z" fill="#2D4352"/>
<path d="M148.4 150.403C141.64 150.403 134.307 142.584 133.931 142.179C133.708 141.937 133.723 141.562 133.964 141.338C134.206 141.116 134.582 141.129 134.805 141.371C134.91 141.484 145.419 152.684 152.069 148.094C158.847 143.41 155.748 119.147 155.716 118.903C155.674 118.577 155.903 118.278 156.228 118.235C156.552 118.197 156.852 118.422 156.896 118.747C157.031 119.775 160.116 143.977 152.745 149.072C151.381 150.015 149.904 150.403 148.4 150.403Z" fill="#2D4352"/>
<path d="M163.003 145.9C158.895 145.9 155.234 145.486 155.026 145.463C154.7 145.425 154.465 145.131 154.502 144.804C154.539 144.476 154.859 144.25 155.161 144.28C155.231 144.287 162.134 145.065 167.532 144.5C173.188 143.904 181.76 141.514 182.878 138.975C183.197 138.249 183.244 137.665 183.017 137.24C182.668 136.592 181.761 136.427 181.752 136.426C181.43 136.37 181.212 136.064 181.265 135.741C181.32 135.418 181.623 135.194 181.946 135.253C182.006 135.262 183.428 135.506 184.059 136.668C184.475 137.434 184.444 138.371 183.967 139.454C182.409 142.994 172.113 145.214 167.657 145.683C166.148 145.842 164.544 145.9 163.003 145.9Z" fill="#2D4352"/>
<path d="M152.756 131.604C152.49 131.604 152.248 131.425 152.18 131.157C152.115 130.9 152.226 130.64 152.438 130.506C152.467 130.469 152.5 130.42 152.537 130.367C152.839 129.936 153.4 129.134 154.443 129.134C155.662 129.134 156.116 129.844 156.193 130.263C156.251 130.586 156.037 130.895 155.713 130.954C155.402 131.003 155.081 130.798 155.022 130.474C155.006 130.45 154.85 130.323 154.443 130.323C154.051 130.323 153.789 130.652 153.511 131.048C153.337 131.298 153.186 131.513 152.903 131.585C152.854 131.598 152.804 131.604 152.756 131.604Z" fill="#2D4352"/>
<path d="M166.314 119.151H164.277C163.948 119.151 163.682 118.885 163.682 118.556C163.682 118.227 163.948 117.961 164.277 117.961H166.314C166.776 117.961 167.272 117.446 167.411 117.266C167.611 117.006 167.984 116.956 168.243 117.152C168.504 117.349 168.558 117.72 168.361 117.981C168.271 118.102 167.452 119.151 166.314 119.151Z" fill="#2D4352"/>
<path d="M147 119.468C146.813 119.468 146.622 119.448 146.439 119.399C145.743 119.219 144.809 119.149 144.8 119.149C144.472 119.125 144.226 118.84 144.249 118.512C144.273 118.182 144.596 117.925 144.886 117.961C144.929 117.964 145.94 118.04 146.739 118.247C147.185 118.363 147.874 118.112 148.082 118.016C148.377 117.88 148.733 118.004 148.872 118.303C149.011 118.6 148.885 118.954 148.587 119.093C148.489 119.141 147.766 119.468 147 119.468Z" fill="#2D4352"/>
<path d="M147.869 112.285C146.765 112.285 145.516 111.733 145.464 111.709C145.164 111.575 145.031 111.225 145.164 110.925C145.298 110.625 145.65 110.489 145.948 110.623C145.96 110.628 147.02 111.096 147.868 111.096C148.545 111.096 149.026 110.51 149.032 110.505C149.238 110.252 149.612 110.209 149.866 110.412C150.122 110.616 150.166 110.986 149.965 111.243C149.932 111.285 149.133 112.285 147.869 112.285Z" fill="#2D4352"/>
<path d="M164.673 112.306C163.309 112.306 162.418 111.314 162.377 111.269C162.16 111.022 162.183 110.646 162.429 110.429C162.676 110.213 163.049 110.237 163.267 110.479C163.302 110.519 163.951 111.23 164.896 111.102C165.92 110.961 166.384 110.49 166.404 110.469C166.628 110.235 167.003 110.222 167.242 110.445C167.48 110.667 167.498 111.035 167.279 111.276C167.205 111.358 166.51 112.082 165.058 112.281C164.925 112.298 164.797 112.306 164.673 112.306Z" fill="#2D4352"/>
<path d="M181.851 107.63C181.842 107.63 181.832 107.63 181.823 107.629C181.468 107.613 173.041 107.165 164.869 102.788C158.707 99.4859 155.931 90.4709 154.872 85.7629C154.072 88.3109 152.267 92.0399 148.229 95.1129C141.587 100.169 135.49 100.631 135.233 100.649C134.933 100.665 134.622 100.424 134.6 100.096C134.578 99.7679 134.825 99.4849 135.153 99.4619C135.212 99.4589 141.168 98.9939 147.508 94.1679C153.773 89.3989 154.308 82.7779 154.313 82.7119C154.335 82.4079 154.583 82.1689 154.887 82.1589C155.206 82.1509 155.454 82.3689 155.496 82.6709C155.517 82.8199 157.648 97.5699 165.431 101.74C173.368 105.991 181.795 106.437 181.878 106.442C182.207 106.457 182.46 106.736 182.444 107.064C182.429 107.382 182.167 107.63 181.851 107.63Z" fill="#2D4352"/>
<path d="M166.838 99.0759C166.67 99.0759 166.501 99.0039 166.384 98.8649L162.777 94.5849C162.564 94.3339 162.597 93.9589 162.848 93.7469C163.099 93.5369 163.474 93.5669 163.686 93.8179L167.293 98.0979C167.506 98.3489 167.473 98.7239 167.222 98.9359C167.11 99.0289 166.974 99.0759 166.838 99.0759Z" fill="#2D4352"/>
<path d="M168.525 97.505C168.383 97.505 168.242 97.455 168.128 97.353L165.103 94.644C164.859 94.426 164.838 94.049 165.058 93.804C165.279 93.561 165.654 93.539 165.898 93.759L168.923 96.468C169.167 96.686 169.188 97.063 168.968 97.308C168.85 97.437 168.688 97.505 168.525 97.505Z" fill="#2D4352"/>
<path d="M171.959 96.689C171.843 96.689 171.727 96.655 171.624 96.587L168.83 94.687C168.558 94.503 168.488 94.1329 168.672 93.8609C168.859 93.5879 169.232 93.524 169.499 93.703L172.293 95.602C172.565 95.786 172.635 96.1559 172.45 96.4279C172.336 96.5989 172.149 96.689 171.959 96.689Z" fill="#2D4352"/>
<path d="M481.965 62.8902C482.819 60.4082 481.499 57.7043 479.017 56.8509C476.535 55.9974 473.831 57.3175 472.977 59.7995C472.124 62.2814 473.444 64.9853 475.926 65.8388C478.408 66.6923 481.112 65.3721 481.965 62.8902Z" fill="#2D4352"/>
<path d="M507.432 174.167L424.23 159.733C417.005 158.48 414.057 149.708 419.057 144.345L471.706 87.8798C476.248 83.0088 484.297 84.4048 486.933 90.5218L517.486 161.421C520.388 168.154 514.657 175.42 507.432 174.167Z" fill="#49A39B"/>
<path d="M488.817 62.812C481.915 60.439 474.396 64.11 472.022 71.012L497.017 79.607C499.39 72.704 495.719 65.185 488.817 62.812Z" fill="#49A39B"/>
<path d="M476.097 72.9499C475.989 72.9499 475.923 72.9479 475.902 72.9479C475.574 72.9379 475.316 72.663 475.326 72.335C475.338 72.007 475.564 71.733 475.939 71.759C475.98 71.751 480.828 71.8689 484.706 69.2389C488.526 66.6479 489.208 63.1269 489.214 63.0919C489.272 62.7679 489.588 62.5469 489.904 62.6119C490.227 62.6699 490.442 62.977 490.385 63.3C490.356 63.464 489.629 67.3369 485.373 70.2239C481.576 72.7989 477.092 72.9499 476.097 72.9499Z" fill="#2D4352"/>
<path d="M510.048 144.755C509.949 144.755 509.85 144.731 509.759 144.679C509.506 144.538 503.498 141.162 499.049 135.852C496.531 132.849 494.355 125.577 492.25 118.546C490.574 112.945 488.989 107.654 487.447 105.275C484.243 100.332 481.774 99.013 478.916 97.488L478.262 97.138C475.029 95.392 470.134 89.6039 469.927 89.3589C469.716 89.1079 469.748 88.733 469.999 88.52C470.251 88.312 470.625 88.342 470.838 88.592C470.887 88.65 475.793 94.452 478.826 96.091L479.475 96.438C482.354 97.974 485.074 99.426 488.445 104.629C490.078 107.15 491.686 112.52 493.388 118.204C495.362 124.798 497.599 132.272 499.958 135.087C504.269 140.23 510.276 143.606 510.336 143.64C510.623 143.799 510.726 144.162 510.566 144.449C510.459 144.645 510.256 144.755 510.048 144.755Z" fill="white"/>
<path d="M495.777 172.739C495.748 172.739 495.72 172.737 495.691 172.733C495.366 172.687 495.14 172.384 495.187 172.059C495.203 171.949 496.737 160.878 492.859 155.248C491.205 152.847 489.407 150.76 487.504 148.55C484.719 145.317 481.563 141.651 477.824 135.892C474.018 130.029 473.904 125.373 473.794 120.87C473.718 117.766 473.648 114.832 472.366 111.615C469.279 103.858 461.476 99.168 461.397 99.121C461.115 98.953 461.021 98.588 461.188 98.305C461.358 98.023 461.722 97.931 462.004 98.096C462.339 98.295 470.236 103.044 473.473 111.175C474.832 114.589 474.91 117.767 474.984 120.84C475.09 125.177 475.199 129.662 478.821 135.242C482.517 140.935 485.645 144.566 488.406 147.772C490.33 150.006 492.148 152.116 493.84 154.572C497.982 160.585 496.433 171.753 496.366 172.226C496.322 172.525 496.067 172.739 495.777 172.739Z" fill="white"/>
<path d="M473.827 168.931C473.791 168.931 473.755 168.928 473.719 168.922C473.396 168.863 473.182 168.553 473.24 168.23C473.252 168.17 474.318 162.156 472.494 157.663C471.459 155.112 469.784 152.979 467.843 150.509C466.337 148.593 464.632 146.422 463.077 143.797C461.413 140.99 461.119 137.822 460.808 134.467C460.443 130.547 460.067 126.493 457.559 122.301C452.954 114.609 448.56 113.139 448.516 113.125C448.202 113.025 448.029 112.691 448.129 112.378C448.228 112.065 448.563 111.894 448.876 111.991C449.072 112.054 453.746 113.615 458.579 121.689C461.227 126.113 461.633 130.493 461.992 134.357C462.291 137.574 462.573 140.613 464.099 143.19C465.615 145.747 467.223 147.794 468.777 149.774C470.689 152.209 472.496 154.508 473.594 157.214C475.55 162.034 474.457 168.185 474.41 168.444C474.358 168.73 474.108 168.931 473.827 168.931Z" fill="white"/>
<path d="M453.612 165.424C453.421 165.424 453.233 165.332 453.118 165.16C452.919 164.865 448.276 157.865 448.982 152.157C449.455 148.334 448.466 146.835 446.495 143.849C445.741 142.707 444.887 141.414 443.937 139.721C441.505 135.385 441.918 132.905 442.354 130.28C442.553 129.088 442.757 127.855 442.68 126.389C442.44 121.809 441.819 119.502 441.812 119.48C441.726 119.163 441.912 118.836 442.228 118.749C442.55 118.661 442.872 118.848 442.96 119.164C442.987 119.26 443.62 121.598 443.867 126.326C443.951 127.922 443.736 129.219 443.527 130.475C443.109 132.993 442.749 135.167 444.976 139.138C445.904 140.792 446.745 142.067 447.488 143.191C449.485 146.216 450.691 148.043 450.164 152.302C449.512 157.574 454.062 164.427 454.107 164.496C454.291 164.769 454.217 165.138 453.944 165.321C453.842 165.392 453.727 165.424 453.612 165.424Z" fill="white"/>
<path d="M435.827 162.324C435.702 162.324 435.616 162.311 435.59 162.307C435.267 162.251 435.05 161.943 435.107 161.619C435.163 161.294 435.478 161.067 435.795 161.136C435.795 161.136 436.055 161.164 436.268 160.962C436.574 160.675 436.712 160.027 436.657 159.136C436.545 157.324 436.148 156.826 434.834 155.177C434.197 154.378 433.406 153.384 432.369 151.898C430.349 149.005 430.694 147.871 431.535 145.957C432.058 144.769 432.708 143.29 432.924 140.541C433.42 134.215 429.477 133.746 429.438 133.741C429.11 133.708 428.872 133.417 428.906 133.09C428.937 132.761 429.251 132.521 429.557 132.558C429.608 132.563 434.698 133.161 434.11 140.633C433.879 143.583 433.154 145.231 432.625 146.435C431.909 148.063 431.613 148.736 433.345 151.217C434.36 152.672 435.139 153.649 435.765 154.435C437.141 156.161 437.71 156.876 437.845 159.063C437.926 160.373 437.658 161.315 437.05 161.859C436.605 162.256 436.114 162.324 435.827 162.324Z" fill="white"/>
<path d="M498.904 71.4429H494.751C494.422 71.4429 494.156 71.1769 494.156 70.8479C494.156 70.5189 494.422 70.2529 494.751 70.2529H498.904C499.233 70.2529 499.499 70.5189 499.499 70.8479C499.499 71.1769 499.233 71.4429 498.904 71.4429Z" fill="#2D4352"/>
<path d="M491.47 135.29C491.149 135.29 490.823 135.268 490.492 135.224C480.796 133.923 469.644 113.702 469.175 112.841C469.017 112.553 469.123 112.192 469.411 112.035C469.699 111.876 470.06 111.983 470.218 112.271C470.331 112.477 481.549 132.824 490.65 134.045C492.56 134.305 494.206 133.69 495.671 132.168C503.022 124.54 500.373 101.875 498.95 89.6969C498.484 85.7139 498.177 83.0819 498.315 81.9969C498.895 77.4219 501.972 75.8949 502.102 75.8329C502.398 75.6939 502.755 75.8159 502.897 76.1119C503.039 76.4079 502.913 76.7639 502.618 76.9069C502.513 76.9579 499.99 78.2429 499.495 82.1469C499.375 83.0889 499.709 85.9449 500.132 89.5609C501.577 101.933 504.269 124.961 496.529 132.994C495.056 134.52 493.358 135.29 491.47 135.29Z" fill="#2D4352"/>
<path d="M498.904 82.6649C498.777 82.6649 498.65 82.6249 498.543 82.5419C498.282 82.3419 498.233 81.9689 498.433 81.7089C498.478 81.6499 499.558 80.2459 500.874 79.1499C502.145 78.0889 503.225 78.2669 503.665 78.5409C503.944 78.7139 504.029 79.0809 503.854 79.3599C503.683 79.6339 503.327 79.7199 503.055 79.5609C503.006 79.5399 502.508 79.3359 501.636 80.0629C500.421 81.0769 499.387 82.4189 499.376 82.4319C499.26 82.5849 499.082 82.6649 498.904 82.6649Z" fill="#2D4352"/>
<path d="M403.454 141.544C401.219 141.544 399.353 141.06 399.21 141.021C398.893 140.936 398.705 140.611 398.788 140.293C398.872 139.977 399.197 139.791 399.516 139.871C399.576 139.888 405.54 141.434 408.52 138.878C409.74 137.832 411.57 134.76 413.885 130.87C417.519 124.767 422.496 116.408 429.054 109.138C439.906 97.1089 462.963 95.6349 463.939 95.5779C464.269 95.5379 464.548 95.8089 464.568 96.1369C464.588 96.4649 464.337 96.7469 464.009 96.7659C463.774 96.7799 440.461 98.2719 429.938 109.936C423.459 117.118 418.517 125.419 414.908 131.48C412.444 135.619 410.663 138.61 409.294 139.783C407.676 141.169 405.422 141.544 403.454 141.544Z" fill="#2D4352"/>
<path d="M402.7 139.188C402.649 139.188 402.597 139.181 402.544 139.167L399.673 138.391C399.356 138.305 399.169 137.979 399.255 137.661C399.34 137.345 399.666 137.16 399.985 137.243L402.856 138.019C403.173 138.105 403.36 138.431 403.274 138.749C403.203 139.014 402.963 139.188 402.7 139.188Z" fill="#2D4352"/>
<path d="M402.506 137.286C402.406 137.286 402.306 137.262 402.213 137.209L399.808 135.852C399.522 135.691 399.421 135.328 399.583 135.041C399.744 134.755 400.108 134.653 400.394 134.816L402.799 136.173C403.085 136.334 403.186 136.697 403.024 136.984C402.915 137.177 402.713 137.286 402.506 137.286Z" fill="#2D4352"/>
<path d="M440.924 162.628C440.924 162.628 441.454 166.231 443.937 168.336C446.42 170.441 448.696 171.528 448.696 171.528L394.747 249.269L429.496 266.648C429.496 266.648 422.872 255.01 425.781 247.678C428.691 240.346 463.488 179.829 463.488 179.829L497.626 266.648L521.523 251.596C521.523 251.596 514.23 252.682 506.782 240.812C499.334 228.942 475.408 168.61 475.408 168.61L440.924 162.628Z" fill="white"/>
<path d="M429.496 267.243C429.405 267.243 429.315 267.222 429.23 267.18L394.481 249.801C394.326 249.723 394.214 249.584 394.171 249.416C394.128 249.249 394.161 249.071 394.258 248.929L447.823 171.742C446.963 171.27 445.315 170.284 443.552 168.788C440.929 166.564 440.357 162.87 440.334 162.714C440.307 162.525 440.371 162.334 440.508 162.2C440.644 162.066 440.83 162.003 441.025 162.041L475.51 168.024C475.713 168.059 475.884 168.198 475.961 168.39C476.2 168.993 499.952 228.806 507.286 240.495C514.443 251.901 521.361 251.016 521.436 251.007C521.708 250.957 521.983 251.124 522.081 251.388C522.179 251.652 522.079 251.948 521.841 252.098L497.945 267.15C497.794 267.244 497.607 267.268 497.442 267.212C497.274 267.157 497.139 267.03 497.075 266.865L463.388 181.198C458.707 189.354 428.983 241.224 426.336 247.898C423.566 254.878 429.949 266.24 430.014 266.354C430.143 266.582 430.109 266.867 429.929 267.057C429.812 267.179 429.656 267.243 429.496 267.243ZM463.489 179.234C463.503 179.234 463.518 179.234 463.533 179.235C463.761 179.252 463.958 179.399 464.042 179.611L497.918 265.761L519.609 252.099C516.838 251.642 511.587 249.588 506.278 241.128C499.082 229.658 477.041 174.331 474.979 169.139L441.697 163.365C442.001 164.495 442.74 166.539 444.323 167.881C446.712 169.908 448.933 170.981 448.955 170.991C449.112 171.067 449.228 171.207 449.273 171.376C449.317 171.544 449.286 171.725 449.187 171.867L395.629 249.044L428.121 265.295C426.392 261.769 422.88 253.38 425.229 247.459C428.121 240.171 461.551 182.005 462.973 179.532C463.08 179.347 463.277 179.234 463.489 179.234Z" fill="#2D4352"/>
<path d="M440.924 162.628C440.924 162.628 441.32 164.887 442.18 166.153C443.04 167.419 443.937 168.336 443.937 168.336L470.383 168.89L463.489 179.83L466.063 186.375L473.21 168.229L440.924 162.628Z" fill="#2D4352"/>
<path d="M514.833 247.42C513.037 247.42 511.422 247.159 511.101 247.104C510.809 247.053 510.599 246.796 510.607 246.5C510.624 245.91 510.836 240.699 512.778 239.45C513.314 239.104 513.934 239.063 514.575 239.333C515.429 239.692 515.713 240.303 515.802 240.753C515.991 241.714 515.448 242.907 514.756 243.966C516.537 243.054 518.585 242.295 519.661 242.903C520.028 243.112 520.456 243.561 520.408 244.509C520.372 245.242 520.055 245.852 519.467 246.324C518.391 247.186 516.531 247.42 514.833 247.42ZM513.302 246.163C515.205 246.304 517.655 246.251 518.725 245.394C519.044 245.138 519.202 244.838 519.222 244.448C519.243 244.033 519.115 243.961 519.073 243.937C518.342 243.526 515.664 244.705 513.302 246.163ZM513.757 240.347C513.609 240.347 513.504 240.398 513.422 240.45C512.493 241.047 511.998 243.687 511.843 245.673C513.071 244.425 514.858 242.113 514.635 240.981C514.602 240.811 514.513 240.596 514.116 240.429C513.974 240.37 513.856 240.347 513.757 240.347Z" fill="#2D4352"/>
<path d="M431.41 255.635C429.126 255.635 425.466 251.073 424.744 250.141C424.553 249.896 424.584 249.546 424.813 249.337C425.322 248.872 429.884 244.822 432.568 245.108C433.201 245.179 433.72 245.481 434.069 245.98C434.526 246.635 434.43 247.206 434.269 247.568C433.667 248.926 430.842 249.772 428.626 250.237C430.312 250.833 432.306 251.775 432.885 253.035C433.143 253.595 433.122 254.187 432.826 254.746C432.473 255.414 431.937 255.595 431.552 255.629C431.504 255.633 431.456 255.635 431.41 255.635ZM426.974 250.958C428.578 252.756 430.494 254.571 431.447 254.443C431.545 254.435 431.658 254.408 431.773 254.189C431.896 253.958 431.905 253.756 431.802 253.533C431.333 252.509 428.925 251.523 426.974 250.958ZM432.245 246.28C430.716 246.28 428.146 248.104 426.562 249.401C429.248 248.99 432.74 248.08 433.181 247.086C433.21 247.023 433.262 246.905 433.093 246.662C432.94 246.441 432.731 246.324 432.437 246.291C432.374 246.284 432.31 246.28 432.245 246.28Z" fill="#2D4352"/>
</svg>
