<svg xmlns="http://www.w3.org/2000/svg" width="600" height="174" viewBox="0 0 600 174" xmlns:xlink="http://www.w3.org/1999/xlink">
  <defs>
    <rect id="a" width="603" height="174"/>
  </defs>
  <g fill="none" fill-rule="evenodd">
    <mask id="b" fill="white">
      <use xlink:href="#a"/>
    </mask>
    <use fill="#FFFFFF" fill-opacity="0" xlink:href="#a"/>
    <g mask="url(#b)">
      <g transform="translate(215)">
        <ellipse cx="85.5" cy="85.5" fill="#BBEFEF" fill-opacity=".4" style="mix-blend-mode:multiply" rx="58.5" ry="58.5"/>
        <ellipse cx="85.5" cy="85.5" fill="#B1ECEC" fill-opacity=".6" style="mix-blend-mode:multiply" rx="85.5" ry="85.5"/>
      </g>
      <g transform="translate(0 70)">
        <ellipse cx="165" cy="56" fill="#F6D8A3" fill-opacity=".5" rx="41" ry="41"/>
        <ellipse cx="481" cy="41" fill="#F6D8A3" fill-opacity=".5" rx="41" ry="41"/>
        <ellipse cx="258" cy="47" fill="#F6D8A3" fill-opacity=".5" rx="34" ry="34"/>
        <path fill="#DDC08C" d="M587.937984,85.4096357 C587.937984,85.4096357 588.457364,71.4096357 578.978682,76.0096357 C578.978682,76.0096357 584.821705,57.7096357 578.978682,42.8096357 C578.978682,42.8096357 567.682171,50.0096357 567.422481,69.2096357 C567.422481,69.2096357 543.401163,21.1096357 515.354651,56.9096357 C515.354651,56.9096357 489.775194,-1.39036432 452.76938,30.5096357 C452.76938,30.5096357 443.810078,38.2096357 442.511628,42.8096357 C442.511628,42.8096357 442.251938,28.3096357 439.135659,27.5096357 C439.135659,27.5096357 433.812016,33.9096357 434.591085,41.5096357 C434.591085,41.5096357 426.930233,25.3096357 422.125969,28.7096357 C422.125969,28.7096357 420.567829,41.9096357 425.761628,49.1096357 C425.761628,49.1096357 417.321705,43.8096357 412.647287,51.6096357 C408.881783,50.0096357 405.246124,48.8096357 401.870155,47.8096357 C392.001938,29.9096357 373.174419,4.10963568 346.815891,6.10963568 C346.815891,6.10963568 326.170543,6.60963568 301.5,26.2096357 C276.829457,6.50963568 256.184109,6.10963568 256.184109,6.10963568 C229.825581,4.10963568 210.998062,29.9096357 201.129845,47.8096357 C197.753876,48.8096357 194.118217,50.0096357 190.352713,51.6096357 C185.678295,43.8096357 177.238372,49.1096357 177.238372,49.1096357 C182.562016,41.9096357 180.874031,28.7096357 180.874031,28.7096357 C176.069767,25.3096357 168.408915,41.5096357 168.408915,41.5096357 C169.187984,33.8096357 163.864341,27.5096357 163.864341,27.5096357 C160.748062,28.4096357 160.488372,42.8096357 160.488372,42.8096357 C159.189922,38.1096357 150.23062,30.5096357 150.23062,30.5096357 C113.224806,-1.39036432 87.6453488,56.9096357 87.6453488,56.9096357 C59.5988372,21.1096357 35.5775194,69.2096357 35.5775194,69.2096357 C35.3178295,50.0096357 24.0213178,42.8096357 24.0213178,42.8096357 C18.1782946,57.7096357 24.0213178,76.0096357 24.0213178,76.0096357 C14.5426357,71.3096357 15.0620155,85.4096357 15.0620155,85.4096357 C8.95930233,81.6096357 5.68434189e-14,103.709636 5.68434189e-14,103.709636 L141.790698,103.709636 L603,103.709636 C603,103.709636 594.040698,81.6096357 587.937984,85.4096357 Z"/>
        <path fill="#F6D8A3" fill-opacity=".6" d="M436.911659,90.1851706 C432.238852,78.9218379 421.135457,71 408.181818,71 C397.866873,71 388.725148,76.0231504 383.069364,83.7567295 C375.630527,77.0691811 365.790468,73 355,73 C331.804041,73 313,91.8040405 313,115 C313,138.195959 331.804041,157 355,157 C372.946278,157 388.263629,145.744228 394.277627,129.907113 C398.461546,132.00256 403.183967,133.181818 408.181818,133.181818 C412.052566,133.181818 415.758104,132.474472 419.176222,131.18199 C423.986141,139.496769 432.976143,145.090909 443.272727,145.090909 C458.636285,145.090909 471.090909,132.636285 471.090909,117.272727 C471.090909,101.90917 458.636285,89.4545455 443.272727,89.4545455 C441.084143,89.4545455 438.954588,89.7072853 436.911659,90.1851706 Z" transform="matrix(-1 0 0 1 784.09 0)"/>
        <path fill="#F6D8A3" fill-opacity=".6" d="M167.914521,144.961402 C166.143484,145.7179 164.30331,146.34376 162.406109,146.826871 C156.876117,160.976791 143.108581,171 127,171 C106.01318,171 89,153.98682 89,133 C89,115.259731 101.156614,100.35879 117.593891,96.1731287 C123.123883,82.023209 136.891419,72 153,72 C165.29883,72 176.233005,77.8427832 183.178223,86.9040486 C185.689511,86.3128054 188.308226,86 191,86 C209.777681,86 225,101.222319 225,120 C225,138.777681 209.777681,154 191,154 C182.08835,154 173.977486,150.57143 167.914521,144.961402 Z"/>
      </g>
      <g transform="translate(138 77)">
        <g transform="translate(218)">
          <polygon fill="#406455" points="27.4 .7 41 37.9 54.7 75 27.4 75 .1 75 13.7 37.9"/>
          <path fill="#D9B2B2" fill-opacity=".2" d="M19.2213897,30.0208979 C17.6644793,31.805908 18.7048909,35.1191617 20.6532531,36.1842861 C22.6016153,37.2494105 24.758554,38.2332296 24.758554,39.2640032 C24.758554,40.2947767 26.3471704,44.4341814 24.1172552,44.0017063 C21.88734,43.5692312 22.6910758,39.7901401 19.8883899,39.0833521 C17.085704,38.3765642 14.8106378,38.2794427 14.1740344,42.3427318 C13.5374311,46.4060208 16.1162184,47.5966866 16.9754847,48.1490191 C17.8347509,48.7013516 23.4816624,48.5864155 23.4816624,52.0970966 C23.4816624,55.6077778 22.6676709,58.2930653 22.6676709,58.2930653 C22.6676709,58.2930653 14.1907019,56.535277 13.5667565,51.6004356 C12.4092604,47.5038164 6.83044559,53.7086909 9.10974491,56.0008781 C11.3890442,58.2930653 11.8105292,64.3916308 17.2391,65.2053537 C22.6676709,66.0190767 25.3109258,66.7337093 25.3109258,66.7337093 L30.1479839,67.1803819 C30.1479839,67.1803819 41.0142482,63.3055731 42.2024587,59.8697809 C43.3906693,56.4339887 43.9014336,56.1022444 42.526198,52.1256318 C41.1509624,48.1490191 30.657217,59.1488048 30.4026005,59.5092929 C30.1479839,59.8697809 28.5673489,53.0041026 30.1145163,51.6150862 C31.6616837,50.2260698 38.3709609,49.0326094 39.823194,47.3891953 C41.275427,45.7457811 41.6986942,42.6295651 40.6369169,40.9467841 C39.5751397,39.2640032 36.9115094,37.0551321 34.9747612,38.5296769 C33.038013,40.0042217 30.2855731,44.5897257 30.2855731,44.5897257 C30.2855731,44.5897257 27.7779064,38.9312886 29.4823498,37.3600595 C31.1867932,35.7888304 36.5945511,35.2410986 37.0007564,33.7020247 C37.4069617,32.1629508 37.4216174,28.1122728 34.2015056,28.5403523 C30.9813938,28.9684318 29.8162764,30.9938358 29.8162764,30.9938358 C29.8162764,30.9938358 31.3660879,19.3658237 30.4242188,17.1139694 C29.4823498,14.8621151 29.7822782,12.3278795 27.546602,12.3278795 C25.3109258,12.3278795 22.3362546,23.8637064 24.4966091,30.9085045 C26.6569636,37.9533026 20.7783002,28.2358877 19.2213897,30.0208979 Z"/>
          <polygon fill="#FDFFFE" points="40.4 56.6 29 64.1 28.4 50 36.1 43.7 28.4 48.6 27.8 36.5 33.6 31.5 27.8 35 27 17.4 26.2 35.1 20.3 31.5 26.2 36.5 25.6 48.7 17.9 43.7 25.6 50.1 25 64.2 13.6 56.6 24.9 65.6 24.5 75 29.5 75 29.1 65.5"/>
        </g>
        <g transform="translate(49 4)">
          <polygon fill="#406455" points="27.4 .7 41 37.9 54.7 75 27.4 75 .1 75 13.7 37.9"/>
          <path fill="#D9B2B2" fill-opacity=".2" d="M19.2213897,30.0208979 C17.6644793,31.805908 18.7048909,35.1191617 20.6532531,36.1842861 C22.6016153,37.2494105 24.758554,38.2332296 24.758554,39.2640032 C24.758554,40.2947767 26.3471704,44.4341814 24.1172552,44.0017063 C21.88734,43.5692312 22.6910758,39.7901401 19.8883899,39.0833521 C17.085704,38.3765642 14.8106378,38.2794427 14.1740344,42.3427318 C13.5374311,46.4060208 16.1162184,47.5966866 16.9754847,48.1490191 C17.8347509,48.7013516 23.4816624,48.5864155 23.4816624,52.0970966 C23.4816624,55.6077778 22.6676709,58.2930653 22.6676709,58.2930653 C22.6676709,58.2930653 14.1907019,56.535277 13.5667565,51.6004356 C12.4092604,47.5038164 6.83044559,53.7086909 9.10974491,56.0008781 C11.3890442,58.2930653 11.8105292,64.3916308 17.2391,65.2053537 C22.6676709,66.0190767 25.3109258,66.7337093 25.3109258,66.7337093 L30.1479839,67.1803819 C30.1479839,67.1803819 41.0142482,63.3055731 42.2024587,59.8697809 C43.3906693,56.4339887 43.9014336,56.1022444 42.526198,52.1256318 C41.1509624,48.1490191 30.657217,59.1488048 30.4026005,59.5092929 C30.1479839,59.8697809 28.5673489,53.0041026 30.1145163,51.6150862 C31.6616837,50.2260698 38.3709609,49.0326094 39.823194,47.3891953 C41.275427,45.7457811 41.6986942,42.6295651 40.6369169,40.9467841 C39.5751397,39.2640032 36.9115094,37.0551321 34.9747612,38.5296769 C33.038013,40.0042217 30.2855731,44.5897257 30.2855731,44.5897257 C30.2855731,44.5897257 27.7779064,38.9312886 29.4823498,37.3600595 C31.1867932,35.7888304 36.5945511,35.2410986 37.0007564,33.7020247 C37.4069617,32.1629508 37.4216174,28.1122728 34.2015056,28.5403523 C30.9813938,28.9684318 29.8162764,30.9938358 29.8162764,30.9938358 C29.8162764,30.9938358 31.3660879,19.3658237 30.4242188,17.1139694 C29.4823498,14.8621151 29.7822782,12.3278795 27.546602,12.3278795 C25.3109258,12.3278795 22.3362546,23.8637064 24.4966091,30.9085045 C26.6569636,37.9533026 20.7783002,28.2358877 19.2213897,30.0208979 Z"/>
          <polygon fill="#FDFFFE" points="40.4 56.6 29 64.1 28.4 50 36.1 43.7 28.4 48.6 27.8 36.5 33.6 31.5 27.8 35 27 17.4 26.2 35.1 20.3 31.5 26.2 36.5 25.6 48.7 17.9 43.7 25.6 50.1 25 64.2 13.6 56.6 24.9 65.6 24.5 75 29.5 75 29.1 65.5"/>
        </g>
        <polygon fill="#406455" points="27.4 .7 41 37.9 54.7 75 27.4 75 .1 75 13.7 37.9"/>
        <path fill="#D9B2B2" fill-opacity=".2" d="M19.2213897,30.0208979 C17.6644793,31.805908 18.7048909,35.1191617 20.6532531,36.1842861 C22.6016153,37.2494105 24.758554,38.2332296 24.758554,39.2640032 C24.758554,40.2947767 26.3471704,44.4341814 24.1172552,44.0017063 C21.88734,43.5692312 22.6910758,39.7901401 19.8883899,39.0833521 C17.085704,38.3765642 14.8106378,38.2794427 14.1740344,42.3427318 C13.5374311,46.4060208 16.1162184,47.5966866 16.9754847,48.1490191 C17.8347509,48.7013516 23.4816624,48.5864155 23.4816624,52.0970966 C23.4816624,55.6077778 22.6676709,58.2930653 22.6676709,58.2930653 C22.6676709,58.2930653 14.1907019,56.535277 13.5667565,51.6004356 C12.4092604,47.5038164 6.83044559,53.7086909 9.10974491,56.0008781 C11.3890442,58.2930653 11.8105292,64.3916308 17.2391,65.2053537 C22.6676709,66.0190767 25.3109258,66.7337093 25.3109258,66.7337093 L30.1479839,67.1803819 C30.1479839,67.1803819 41.0142482,63.3055731 42.2024587,59.8697809 C43.3906693,56.4339887 43.9014336,56.1022444 42.526198,52.1256318 C41.1509624,48.1490191 30.657217,59.1488048 30.4026005,59.5092929 C30.1479839,59.8697809 28.5673489,53.0041026 30.1145163,51.6150862 C31.6616837,50.2260698 38.3709609,49.0326094 39.823194,47.3891953 C41.275427,45.7457811 41.6986942,42.6295651 40.6369169,40.9467841 C39.5751397,39.2640032 36.9115094,37.0551321 34.9747612,38.5296769 C33.038013,40.0042217 30.2855731,44.5897257 30.2855731,44.5897257 C30.2855731,44.5897257 27.7779064,38.9312886 29.4823498,37.3600595 C31.1867932,35.7888304 36.5945511,35.2410986 37.0007564,33.7020247 C37.4069617,32.1629508 37.4216174,28.1122728 34.2015056,28.5403523 C30.9813938,28.9684318 29.8162764,30.9938358 29.8162764,30.9938358 C29.8162764,30.9938358 31.3660879,19.3658237 30.4242188,17.1139694 C29.4823498,14.8621151 29.7822782,12.3278795 27.546602,12.3278795 C25.3109258,12.3278795 22.3362546,23.8637064 24.4966091,30.9085045 C26.6569636,37.9533026 20.7783002,28.2358877 19.2213897,30.0208979 Z"/>
        <polygon fill="#FDFFFE" points="40.4 56.6 29 64.1 28.4 50 36.1 43.7 28.4 48.6 27.8 36.5 33.6 31.5 27.8 35 27 17.4 26.2 35.1 20.3 31.5 26.2 36.5 25.6 48.7 17.9 43.7 25.6 50.1 25 64.2 13.6 56.6 24.9 65.6 24.5 75 29.5 75 29.1 65.5"/>
        <g transform="translate(273 5)">
          <polygon fill="#406455" points="27.4 .7 41 37.9 54.7 75 27.4 75 .1 75 13.7 37.9"/>
          <path fill="#D9B2B2" fill-opacity=".2" d="M19.2213897,30.0208979 C17.6644793,31.805908 18.7048909,35.1191617 20.6532531,36.1842861 C22.6016153,37.2494105 24.758554,38.2332296 24.758554,39.2640032 C24.758554,40.2947767 26.3471704,44.4341814 24.1172552,44.0017063 C21.88734,43.5692312 22.6910758,39.7901401 19.8883899,39.0833521 C17.085704,38.3765642 14.8106378,38.2794427 14.1740344,42.3427318 C13.5374311,46.4060208 16.1162184,47.5966866 16.9754847,48.1490191 C17.8347509,48.7013516 23.4816624,48.5864155 23.4816624,52.0970966 C23.4816624,55.6077778 22.6676709,58.2930653 22.6676709,58.2930653 C22.6676709,58.2930653 14.1907019,56.535277 13.5667565,51.6004356 C12.4092604,47.5038164 6.83044559,53.7086909 9.10974491,56.0008781 C11.3890442,58.2930653 11.8105292,64.3916308 17.2391,65.2053537 C22.6676709,66.0190767 25.3109258,66.7337093 25.3109258,66.7337093 L30.1479839,67.1803819 C30.1479839,67.1803819 41.0142482,63.3055731 42.2024587,59.8697809 C43.3906693,56.4339887 43.9014336,56.1022444 42.526198,52.1256318 C41.1509624,48.1490191 30.657217,59.1488048 30.4026005,59.5092929 C30.1479839,59.8697809 28.5673489,53.0041026 30.1145163,51.6150862 C31.6616837,50.2260698 38.3709609,49.0326094 39.823194,47.3891953 C41.275427,45.7457811 41.6986942,42.6295651 40.6369169,40.9467841 C39.5751397,39.2640032 36.9115094,37.0551321 34.9747612,38.5296769 C33.038013,40.0042217 30.2855731,44.5897257 30.2855731,44.5897257 C30.2855731,44.5897257 27.7779064,38.9312886 29.4823498,37.3600595 C31.1867932,35.7888304 36.5945511,35.2410986 37.0007564,33.7020247 C37.4069617,32.1629508 37.4216174,28.1122728 34.2015056,28.5403523 C30.9813938,28.9684318 29.8162764,30.9938358 29.8162764,30.9938358 C29.8162764,30.9938358 31.3660879,19.3658237 30.4242188,17.1139694 C29.4823498,14.8621151 29.7822782,12.3278795 27.546602,12.3278795 C25.3109258,12.3278795 22.3362546,23.8637064 24.4966091,30.9085045 C26.6569636,37.9533026 20.7783002,28.2358877 19.2213897,30.0208979 Z"/>
          <polygon fill="#FDFFFE" points="40.4 56.6 29 64.1 28.4 50 36.1 43.7 28.4 48.6 27.8 36.5 33.6 31.5 27.8 35 27 17.4 26.2 35.1 20.3 31.5 26.2 36.5 25.6 48.7 17.9 43.7 25.6 50.1 25 64.2 13.6 56.6 24.9 65.6 24.5 75 29.5 75 29.1 65.5"/>
        </g>
      </g>
      <g fill="#BBEFEF" transform="translate(174 115)">
        <g transform="translate(221)">
          <polygon points="15.5 0 23 25.5 30.4 51 15.5 51 .6 51 8.1 25.5"/>
          <polygon points="9.269 51.1 .6 51 8.1 25.5 15.5 0" style="mix-blend-mode:multiply"/>
        </g>
        <polygon points="15.5 0 23 25.5 30.4 51 15.5 51 .6 51 8.1 25.5"/>
        <polygon points="9.269 51.1 .6 51 8.1 25.5 15.5 0" style="mix-blend-mode:multiply"/>
      </g>
    </g>
  </g>
</svg>
