<svg xmlns="http://www.w3.org/2000/svg" width="600" height="212" viewBox="0 0 600 212">
  <g fill="none" fill-rule="evenodd">
    <g transform="translate(151 44)">
      <g transform="translate(127 16)">
        <path fill="#BBE0CB" stroke="#90BBA7" d="M28.3,0.4 C27.6,4.5 26.9,7.5 25.3,9.3 L18.4,9.4 C16.8,7.5 16,4.1 15.4,0.3"/>
        <path fill="#BBE0CB" stroke="#90BBA7" d="M18.6,8.9 C13.9,9.2 9.3,9.9 7.7,11.1 C7.5,11.3 7.3,11.4 7.1,11.7 C5.4,11.6 3.7,12.4 2.4,13.9 C0.7,15.9 0.3,20.1 1.2,22.5 C1.9,24.3 3.8,25.1 5.6,25.5 C6,28.4 6.8,30.9 7.9,32 C11.6,36 28.9,36.8 35.3,33.1 C37.6,31.8 38.9,28.8 39.4,25.4 C41,25 42.7,24.2 43.3,22.5 C44.2,20.1 43.8,15.9 42.1,13.9 C40.9,12.5 39.2,11.7 37.6,11.7 C37.3,11.3 36.9,11 36.5,10.8 C33.9,9.7 29.3,9.1 25,8.9"/>
        <path fill="#8CCEB5" d="M37.3 11.9C38.9 14 40.2 18 39.1 24.5 41.8 21.6 40.5 13.9 39.1 12.3 38.9 12 37.3 11.9 37.3 11.9L37.3 11.9zM7.3 11.9C5.7 14 4.4 18 5.5 24.5 2.8 21.6 4.1 13.9 5.5 12.3 5.7 12 7.3 11.9 7.3 11.9L7.3 11.9z"/>
        <g stroke="#959695" stroke-width="2" transform="translate(8 16)">
          <ellipse cx="23.6" cy="5.5" rx="5.7" ry="5"/>
          <ellipse cx="6.3" cy="5.5" rx="5.7" ry="5"/>
          <path d="M17.9,5.6 C17.9,6.8 16.6,7.7 14.9,7.7 C13.2,7.7 11.9,6.7 11.9,5.6"/>
        </g>
        <g transform="translate(29 20)">
          <path fill="#333333" d="M0.9,1.6 C0.9,0.5 1.8,0.6 2.9,0.6 C4,0.6 5,0.5 5,1.6 C5,2.7 4.1,3.7 2.9,3.7 C1.8,3.6 0.9,2.7 0.9,1.6 L0.9,1.6 Z"/>
          <circle cx="3.4" cy="2.5" r=".6" fill="#FFFFFF"/>
        </g>
        <g transform="translate(10 19)">
          <path fill="#333333" d="M0.6,2 C0.6,0.3 2,0.5 3.6,0.5 C5.3,0.5 6.6,0.4 6.6,2 C6.6,3.7 5.2,5 3.6,5 C1.9,5 0.6,3.7 0.6,2 L0.6,2 Z"/>
          <circle cx="4.3" cy="3.3" r=".8" fill="#FFFFFF"/>
        </g>
        <path fill="#FFF7D8" d="M23.3,0.4 C23.9,0.9 24.3,1.6 24.3,2.5 C24.3,3.9 23.1,5.1 21.7,5.1 C20.3,5.1 19.1,3.9 19.1,2.5 C19.1,1.7 19.5,0.9 20.1,0.4"/>
        <path fill="#8CCEB5" d="M18.1,9.2 C18.1,9.2 18.9,7.3 21.7,7.3 C24.7,7.3 25.5,9.2 25.5,9.2 C25.5,9.2 24,8.8 21.8,8.8 C19.6,8.8 20,8.8 18.1,9.2 L18.1,9.2 Z"/>
        <path fill="#90BBA7" d="M39.3 20.6L39.3 20.2C39.3 19.9 39.3 19.6 39.2 19.1 39.2 18.7 39.1 18.2 39 17.6 38.9 17.1 38.8 16.5 38.6 16 38.4 15.5 38.1 15 37.9 14.5 37.7 14 37.6 13.6 37.5 13.2 37.4 12.8 37.3 12.4 37.3 12.1 37.3 11.8 37.2 11.6 37.2 11.6L37.4 11.5C37.4 11.5 37.6 11.5 37.9 11.7 38 11.8 38.2 11.9 38.4 12 38.6 12.1 38.8 12.3 38.9 12.4 39.3 12.7 39.6 13.2 39.8 13.8 40 14.4 40 15.1 40.1 15.7 40.2 16.3 40.2 17 40.1 17.5 40.1 18.1 40 18.6 39.9 19.1 39.8 19.6 39.7 19.9 39.6 20.2 39.5 20.5 39.5 20.6 39.5 20.6L39.3 20.6 39.3 20.6zM5.1 19.8C5.1 19.8 5.1 19.7 5 19.4 4.9 19.2 4.8 18.8 4.7 18.4 4.6 18 4.5 17.5 4.5 16.9L4.5 16C4.5 15.7 4.5 15.4 4.6 15.1 4.7 14.5 4.7 13.8 5 13.3 5.3 12.8 5.7 12.3 6.1 12.1 6.5 11.8 6.9 11.7 7.2 11.6 7.5 11.5 7.6 11.6 7.6 11.6L7.8 11.7C7.8 11.7 7.8 11.9 7.7 12.2 7.6 12.4 7.5 12.8 7.4 13.2 7.3 13.6 7.1 13.9 6.9 14.3 6.7 14.7 6.4 15.1 6.2 15.6 6.1 15.8 6 16.1 6 16.3 5.9 16.6 5.9 16.8 5.8 17 5.7 17.5 5.6 18 5.6 18.4 5.5 18.8 5.5 19.2 5.5 19.4L5.5 19.8 5.1 19.8 5.1 19.8z"/>
        <path fill="#FFFFFF" d="M12.1,2.9 C13,2.5 14.9,1.7 15.6,0.6 C15.9,0.2 11.9,2 9.6,2.5 C4.8,3.5 0.8,3.9 0.8,3.9 C-0.3,4.4 3,4.5 6.7,4.2 C6.7,4.1 10.8,3.5 12.1,2.9 L12.1,2.9 Z" opacity=".5" transform="translate(20 30)"/>
        <path fill="#BBE0CB" stroke="#90BBA7" d="M25.1 9C26.5 8.8 31.3 7.9 31.6 8.5 32.3 9.7 30.9 11 31.3 11.7 31.7 12.5 34 10.7 34.2 10.2 36 14.1 38.1 12.9 39.1 11.6 40.1 10.2 39 7.6 37.2 6.2 34.6 4.1 30.4 3.8 27.2 2.7M18.3 8.1C16.7 8.5 14.1 9.7 14 10.4 13.8 12 15.8 12.7 15.8 13.6 15.7 14.7 12.5 13.8 12.1 13.3 11.9 18.2 9.1 17.9 7.5 16.9 5.8 15.9 5.9 12.7 7.1 10.3 8.9 6.9 13.6 4.6 16.5 2.1"/>
        <path fill="#8CCEB5" d="M1,11.5 C1.1,12.4 2.1,13 3,13 C4.3,13.1 5.6,12.2 6,10.9 C6.4,9.7 6.1,8.4 6.6,7.3 C7.4,5.4 9.9,4.9 11.2,3.4 C11.6,2.9 11.9,2.3 11.6,1.7 C11.5,1.5 11.3,1.3 11.1,1.1 C10,0.3 8.6,0.2 7.2,0.3 C5.6,0.4 4,0.7 2.8,1.8 C1.5,3 1,4.9 0.9,6.7 C0.8,8 0.8,9.3 0.8,10.6" opacity=".5" transform="translate(5 10)"/>
        <path fill="#8CCEB5" d="M2.5,8.1 C2.9,8.2 5.4,8.4 6,7.7 C6.9,6.6 7.2,5 6.7,3.7 C6.3,2.3 5.1,1.2 3.8,0.8 C3.2,0.6 2.6,0.6 2,0.8 C0.8,1.3 0.4,2.7 0.4,4 C0.4,4 1.4,7.7 2.5,8.1 L2.5,8.1 Z" opacity=".5" transform="translate(33 6)"/>
        <path fill="#8CCEB5" d="M16.2,5.5 C17.7,5.6 19.3,5.4 20.7,4.9 C21.1,4.8 21.5,4.6 21.5,4.2 C21.5,3.9 21.2,3.7 20.9,3.5 C19.5,2.8 17.6,3.2 16,3.1 C14.5,3 13.2,2.5 11.8,2.1 C9.7,1.5 7.6,1 5.4,0.9 C4,0.9 2.4,1.1 1.5,2 C0.4,3 0.4,4.5 1.1,5.7 C1.8,6.9 3.2,7.7 4.6,8.2 C6,8.7 7.4,9 8.9,8.8 C11.5,8.5 13.7,7 15.7,5.6" opacity=".5" transform="translate(8 24)"/>
        <path fill="#8CCEB5" d="M29.4 16C29.4 16 29.3 16.1 29.1 16.1 28.9 16.2 28.6 16.2 28.2 16.2 27.8 16.2 27.4 16.1 27 15.9 26.6 15.7 26.1 15.3 25.9 14.7 25.8 14.5 25.8 14.4 25.7 14.2L25.7 14.1 25.7 13.8C25.7 13.5 25.8 13.2 25.9 12.9 26.1 12.4 26.5 12.1 26.8 11.9 27.1 11.7 27.4 11.6 27.6 11.6L27.9 11.6C27.9 11.6 27.8 12 27.7 12.6 27.7 12.9 27.6 13.2 27.6 13.4L27.6 13.7 27.6 13.7 27.6 13.8C27.6 13.7 27.6 13.8 27.6 13.9 27.7 14.2 28.1 14.7 28.5 15.1 28.7 15.3 28.9 15.5 29 15.6 29.3 15.9 29.4 16 29.4 16L29.4 16zM18.3 16.2C18.3 16.2 18.3 16.1 18.4 15.9 18.5 15.8 18.6 15.5 18.7 15.3 18.8 15.1 18.9 14.8 18.8 14.7 18.8 14.6 18.8 14.6 18.7 14.6 18.7 14.6 18.7 14.6 18.7 14.7L18.7 14.6 18.7 14.6C18.7 14.5 18.5 14.3 18.3 14.1 18.1 13.9 17.9 13.7 17.8 13.5 17.6 13.3 17.5 13.1 17.4 12.9 17.3 12.7 17.2 12.6 17.2 12.6 17.2 12.6 17.6 12.4 18.2 12.4 18.5 12.4 18.9 12.4 19.3 12.6 19.7 12.8 20.1 13 20.4 13.5 20.4 13.6 20.5 13.7 20.5 13.8L20.6 13.9C20.7 14.2 20.7 14.3 20.7 14.5 20.7 14.9 20.6 15.2 20.4 15.4 20.1 15.9 19.7 16 19.4 16.1 19.1 16.2 18.8 16.2 18.6 16.2 18.4 16.2 18.3 16.2 18.3 16.2L18.3 16.2z"/>
        <path stroke="#FFFFFF" stroke-width="2" d="M21,14.3 C22.8,13.5 24.3,13.7 25.5,14.1"/>
      </g>
      <g transform="translate(125 77)">
        <g transform="translate(21 28)">
          <path fill="#FCE968" d="M0.1,8.1 C0.5,5.1 1,2.5 2.1,1 L8.4,0.9 C9.6,2.4 10.2,5.1 10.7,8.1"/>
          <path stroke="#D3AD4D" d="M0.1,8.1 C0.5,5.1 1,2.5 2.1,1 L8.4,0.9 C9.6,2.4 10.2,5.1 10.7,8.1"/>
        </g>
        <path fill="#EF5237" d="M29.8,36.1 C30.3,34.7 29.7,33.9 28.7,33.7 C28,33.5 27,34 26.7,34.6 C26.7,34.6 26.4,33.7 25.2,33.8 C24.5,33.8 23.6,34.1 23.5,35.4 L23.5,36.1"/>
        <path fill="#FCE968" d="M30.4,30.3 C34,29.9 38.1,29 40.4,27.6 C46.9,25.8 51,20.1 50.2,17.8 C47.6,11.2 41.5,10 41.5,10 C41.5,10 40.6,6.2 36.3,2.9 C32.6,0.1 20,0.1 16.3,1.7 C10.6,4.2 8.9,10.4 8.9,10.4 C8.9,10.4 1.6,12.8 0.5,19.7 C0.2,21.7 6.3,26.7 9.9,27.5 C11.8,29.5 18.5,30.3 23,30.6"/>
        <path stroke="#D3AD4D" d="M30.4,30.3 C34,29.9 38.1,29 40.4,27.6 C46.9,25.8 51,20.1 50.2,17.8 C47.6,11.2 41.5,10 41.5,10 C41.5,10 40.6,6.2 36.3,2.9 C32.6,0.1 20,0.1 16.3,1.7 C10.6,4.2 8.9,10.4 8.9,10.4 C8.9,10.4 1.6,12.8 0.5,19.7 C0.2,21.7 6.3,26.7 9.9,27.5 C11.8,29.5 18.5,30.3 23,30.6"/>
        <path fill="#FFD153" d="M10.3 27.3C8.7 25.2 8.2 22.5 8.2 19.9 8.3 17.3 8.9 14.7 9.5 12.2 7.6 14.9 5.3 21.9 7.2 25.7 7.8 26.8 10.3 27.3 10.3 27.3L10.3 27.3zM40 27.4C42 25.3 42.5 23.1 42.4 20.3 42.3 17.5 41.6 14.9 40.9 12.2 42.9 15.1 45.9 20.4 44.2 24.6 43.2 27.3 40 27.4 40 27.4L40 27.4z"/>
        <g transform="translate(13 15)">
          <path fill="#333333" d="M5.9,2.9 C5.9,4.2 4.8,3.6 3.5,3.6 C2.2,3.6 1.1,4.2 1.1,2.9 C1.1,1.6 2.2,0.5 3.5,0.5 C4.8,0.5 5.9,1.5 5.9,2.9 L5.9,2.9 Z"/>
          <path stroke="#333333" d="M2.1 1.1C2.1 1.1 1.3.9.8.1M1.7 1.5C1.7 1.5.8 1.6 0 1"/>
          <circle cx="3" cy="1.8" r=".8" fill="#FFFFFF"/>
        </g>
        <g transform="translate(32 15)">
          <path fill="#333333" d="M0.4,2.9 C0.4,4.2 1.5,3.6 2.8,3.6 C4.1,3.6 5.2,4.2 5.2,2.9 C5.2,1.6 4.1,0.5 2.8,0.5 C1.5,0.5 0.4,1.5 0.4,2.9 L0.4,2.9 Z"/>
          <path stroke="#333333" d="M4.3 1.1C4.3 1.1 5.1.9 5.6.1M4.6 1.5C4.6 1.5 5.5 1.6 6.3 1"/>
          <circle cx="2.5" cy="1.8" r=".8" fill="#FFFFFF"/>
        </g>
        <path fill="#FFD153" d="M34.7,29.4 C34.7,29.4 33.3,29.9 30.5,30.3 C30.5,30.3 28.7,31.6 26.3,31.6 C23.9,31.6 22.1,30.5 22.1,30.5 C18.9,30.3 17.1,29.9 17.1,29.9 C17.1,29.9 21,30.3 25.7,30.3 C28.8,30.3 34.7,29.4 34.7,29.4 L34.7,29.4 Z"/>
        <ellipse cx="11.9" cy="21.7" fill="#F38071" rx="2.2" ry="1"/>
        <ellipse cx="38.8" cy="21.7" fill="#F38071" rx="2.2" ry="1"/>
        <path fill="#D3AD4D" d="M42.6 21.1C42.6 21.1 42.7 21.6 42.8 22.4 42.9 23.2 42.9 24.3 42.6 25.4 42.5 26 42.3 26.6 42 27 41.7 27.5 41.2 27.8 40.8 28 40.6 28.1 40.4 28.1 40.2 28.2 40 28.2 39.9 28.2 39.7 28.3L39.3 28.3 39.2 28.1C39.2 28.1 39.3 27.9 39.4 27.7 39.5 27.5 39.7 27.2 39.8 26.8 39.9 26.6 40 26.5 40.1 26.3 40.2 26.1 40.3 26 40.4 25.8 40.5 25.7 40.7 25.5 40.8 25.3 40.9 25.1 41.1 25 41.2 24.8 41.6 24 41.9 23.1 42.1 22.3 42.3 21.5 42.4 21 42.4 21L42.6 21.1 42.6 21.1zM8.2 20.7C8.2 20.7 8.2 20.8 8.3 21 8.3 21.2 8.4 21.5 8.4 21.8 8.5 22.5 8.8 23.4 9.1 24.1 9.2 24.5 9.5 24.8 9.7 25.2 9.8 25.4 9.8 25.5 9.9 25.7 9.9 25.9 10 26 10 26.2 10.1 26.5 10.1 26.8 10.1 27.1L10.1 27.5 9.9 27.6 9.5 27.6C9.2 27.6 8.9 27.4 8.6 27.2 8.3 27 7.9 26.6 7.7 26.1 7.5 25.6 7.5 25.1 7.5 24.6 7.4 23.6 7.5 22.6 7.7 21.9 7.8 21.2 8 20.7 8 20.7L8.2 20.7 8.2 20.7z"/>
        <path fill="#FFFFFF" d="M5.3,1.3 C4.3,1.7 2.2,2.6 0.6,4.4 C0.3,4.8 4.6,2.1 8.3,1.5 C13.7,0.7 17.2,1.1 17.2,1.1 C18.4,0.6 15,0.3 11.1,0.4 C11,0.4 6.7,0.8 5.3,1.3 L5.3,1.3 Z" opacity=".5" transform="translate(12 1)"/>
        <path fill="#FFD153" d="M21.9 20.5C21.9 20.5 22 20.4 22.3 20.4 22.6 20.4 22.9 20.4 23.4 20.5 23.8 20.6 24.3 20.9 24.7 21.3 25.1 21.7 25.5 22.3 25.6 22.9L25.6 23 25.6 23.1 25.6 23.3 25.6 23.8C25.6 24.1 25.5 24.4 25.4 24.7 25.2 25.2 24.9 25.7 24.6 26 24.3 26.3 24 26.5 23.8 26.6 23.6 26.7 23.4 26.7 23.4 26.7 23.4 26.7 23.5 26.2 23.6 25.4 23.6 25 23.7 24.7 23.7 24.3L23.7 23.8 23.7 23.6 23.7 23.4 23.7 23.4 23.7 23.4 23.7 23.4 23.7 23.4 23.7 23.4 23.7 23.3C23.6 22.7 23.2 22 22.8 21.5 22.6 21.2 22.4 21 22.2 20.8 22 20.6 21.9 20.5 21.9 20.5L21.9 20.5zM28.5 19.7C28.5 19.7 28.5 19.8 28.4 20.1 28.3 20.3 28.2 20.7 28.2 21 28 21.7 28 22.6 28.1 23.3 28.1 23.5 28.1 23.5 28.2 23.6L28.3 23.9C28.4 24.1 28.4 24.3 28.5 24.5 28.6 24.9 28.8 25.2 29 25.6 29.4 26.3 29.7 26.8 29.7 26.8L29.3 26.8C29 26.8 28.7 26.7 28.3 26.5 27.9 26.3 27.4 26 27.1 25.5 26.9 25.3 26.7 25 26.6 24.7 26.5 24.6 26.5 24.4 26.4 24.2 26.3 24 26.3 23.8 26.3 23.7 26.2 23 26.3 22.3 26.5 21.8 26.7 21.2 27.1 20.8 27.4 20.5 27.7 20.2 28.1 20 28.3 19.9 28.4 19.8 28.5 19.7 28.5 19.7L28.5 19.7z"/>
        <path fill="#FFD05F" d="M32.3,4.2 C30.8,4.2 29.5,4.7 28.7,5.6 C27.6,6.1 26.4,6.6 25.1,6.6 C23.9,6.6 22.7,6.1 21.7,5.7 C20.8,4.8 19.5,4.2 18,4.2 C15.3,4.2 13.1,6.1 13.1,8.4 C13.1,10.7 15.3,12.6 18,12.6 L18.2,12.6 L18.6,12.6 C20.4,12.4 21.9,11.4 22.6,10 C23.4,9.5 24.3,9.2 25.2,9.2 C26.2,9.2 27.1,9.5 27.9,10 C28.6,11.6 30.4,12.7 32.4,12.7 C35.1,12.7 37.3,10.8 37.3,8.5 C37.2,6 35,4.2 32.3,4.2 L32.3,4.2 Z" opacity=".5"/>
        <ellipse cx="36.6" cy="21.7" fill="#FFD05F" opacity=".5" rx="5.1" ry="3.4"/>
        <ellipse cx="14.1" cy="21.7" fill="#FFD05F" opacity=".5" rx="5.1" ry="3.4"/>
        <g transform="translate(29 23)">
          <path fill="#FCE968" d="M0.6,7.5 C3.7,6.6 6.8,5.9 7.1,2.5 C7.1,2 7.2,1.5 7.5,1.2 C7.8,0.9 8.4,0.8 8.7,1.2 C9,1.6 8.8,2.2 9.1,2.7 C9.4,1.8 10,0.8 11,0.9 C12,0.9 13,2.1 13,3.2 C13.1,4.2 12.8,5.4 12.2,6.2 C10.4,8.5 4.8,10.8 2,12"/>
          <path stroke="#D3AD4D" d="M0.6,7.5 C3.7,6.6 6.8,5.9 7.1,2.5 C7.1,2 7.2,1.5 7.5,1.2 C7.8,0.9 8.4,0.8 8.7,1.2 C9,1.6 8.8,2.2 9.1,2.7 C9.4,1.8 10,0.8 11,0.9 C12,0.9 13,2.1 13,3.2 C13.1,4.2 12.8,5.4 12.2,6.2 C10.4,8.5 4.8,10.8 2,12"/>
        </g>
        <g transform="translate(9 24)">
          <path fill="#FCE968" d="M14.1,6.8 C10.8,6.7 7.9,5 6.7,1.9 C6.5,1.5 6.4,1 6,0.7 C5.6,0.5 5,0.6 4.8,1 C4.6,1.5 5,2 4.7,2.6 C4.1,1.8 3.4,1 2.4,1.3 C1.4,1.6 0.8,3 1,4 C1.2,5 1.8,6.1 2.6,6.7 C4.9,8.5 9.8,10.2 12.8,10.5"/>
          <path stroke="#D3AD4D" d="M14.1,6.8 C10.8,6.7 7.9,5 6.7,1.9 C6.5,1.5 6.4,1 6,0.7 C5.6,0.5 5,0.6 4.8,1 C4.6,1.5 5,2 4.7,2.6 C4.1,1.8 3.4,1 2.4,1.3 C1.4,1.6 0.8,3 1,4 C1.2,5 1.8,6.1 2.6,6.7 C4.9,8.5 9.8,10.2 12.8,10.5"/>
        </g>
        <path fill="#FFD05F" d="M1.1,1.2 C1.1,1.8 1,2.4 0.7,2.9 C0.6,3.2 0.4,3.4 0.3,3.7 C0.2,4 0.3,4.3 0.5,4.5 C0.6,4.6 0.7,4.6 0.8,4.6 C1.3,4.7 1.8,4.4 2.1,4 C2.4,3.6 2.4,3 2.3,2.5 C2.2,2 2,1.5 1.8,1.1 C1.8,1 1.7,0.9 1.6,0.9 C1.5,0.9 1.4,0.9 1.4,1" opacity=".5" transform="translate(35 24)"/>
        <path fill="#FFD05F" d="M1.5,0.6 C1.6,1.2 1.8,1.8 2.2,2.2 C2.4,2.4 2.6,2.7 2.7,2.9 C2.8,3.1 2.8,3.5 2.6,3.7 C2.5,3.8 2.4,3.8 2.3,3.9 C1.8,4.1 1.3,3.9 0.9,3.5 C0.6,3.1 0.4,2.6 0.4,2.1 C0.4,1.6 0.5,1.1 0.7,0.6 C0.7,0.5 0.8,0.4 0.8,0.4 C0.9,0.4 1,0.4 1,0.5" opacity=".5" transform="translate(14 25)"/>
        <path fill="#FFD05F" d="M0.9,1.5 C1.2,1 1.7,0.5 2.2,0.2 C2.4,0.1 2.6,0 2.8,0 C3.3,0 3.6,0.5 3.6,1 C3.6,1.5 3.3,1.9 3,2.2 C2.6,2.6 2.1,3 1.6,2.8 C1.3,2.7 1.2,2.4 1,2.1 C0.9,2 0.9,1.9 0.8,1.8" opacity=".5" transform="translate(10 27)"/>
        <path fill="#FFD05F" d="M2.9,2.2 C2.6,1.7 2.1,1.2 1.6,0.9 C1.4,0.8 1.2,0.7 1,0.7 C0.5,0.7 0.2,1.2 0.2,1.7 C0.2,2.2 0.5,2.6 0.8,2.9 C1.2,3.3 1.7,3.7 2.2,3.5 C2.5,3.4 2.6,3.1 2.8,2.8 C2.9,2.7 2.9,2.6 3,2.5" opacity=".5" transform="translate(39 25)"/>
        <ellipse cx="25.9" cy="24.2" fill="#FFFFFF" rx=".8" ry="1.2"/>
      </g>
      <path fill="#66B6B0" d="M96.8,103.7 L81.6,103.7 L81.6,129.8 L55.6,129.8 L55.6,103.7 L2,103.7 L2,85.2 L57.1,4 L81.6,4 L81.6,83 L96.7,83 L96.7,103.7 L96.8,103.7 Z M55.7,83 L55.7,61.7 C55.7,58.1 55.8,53 56.1,46.2 C56.4,39.4 56.6,35.5 56.8,34.4 L56.1,34.4 C54,39.1 51.4,43.7 48.4,48.2 L25.4,83 L55.7,83 L55.7,83 Z"/>
      <path fill="#28CCA7" d="M94.8,102.7 L79.6,102.7 L79.6,128.8 L53.6,128.8 L53.6,102.7 L0,102.7 L0,84.2 L55.1,3 L79.6,3 L79.6,82 L94.7,82 L94.7,102.7 L94.8,102.7 Z M53.7,82 L53.7,60.7 C53.7,57.1 53.8,52 54.1,45.2 C54.4,38.4 54.6,34.5 54.8,33.4 L54.1,33.4 C52,38.1 49.4,42.7 46.4,47.2 L23.4,82 L53.7,82 L53.7,82 Z"/>
      <path fill="#66B6B0" d="M297.8,103.7 L282.6,103.7 L282.6,129.8 L256.6,129.8 L256.6,103.7 L203,103.7 L203,85.2 L258.1,4 L282.6,4 L282.6,83 L297.7,83 L297.7,103.7 L297.8,103.7 Z M256.7,83 L256.7,61.7 C256.7,58.1 256.8,53 257.1,46.2 C257.4,39.4 257.6,35.5 257.8,34.4 L257.1,34.4 C255,39.1 252.4,43.7 249.4,48.2 L226.4,83 L256.7,83 L256.7,83 Z"/>
      <path fill="#28CCA7" d="M295.8,102.7 L280.6,102.7 L280.6,128.8 L254.6,128.8 L254.6,102.7 L201,102.7 L201,84.2 L256.1,3 L280.6,3 L280.6,82 L295.7,82 L295.7,102.7 L295.8,102.7 Z M254.7,82 L254.7,60.7 C254.7,57.1 254.8,52 255.1,45.2 C255.4,38.4 255.6,34.5 255.8,33.4 L255.1,33.4 C253,38.1 250.4,42.7 247.4,47.2 L224.4,82 L254.7,82 L254.7,82 Z"/>
      <g transform="translate(107)">
        <ellipse cx="43.2" cy="65.1" fill="#BFE8E8" opacity=".44" rx="34.3" ry="49.4"/>
        <path fill="#66B6B0" d="M86.7,66.2 C86.7,87.9 83.2,104 76.2,114.6 C69.2,125.1 58.6,130.4 44.2,130.4 C30.3,130.4 19.8,125 12.6,114.1 C5.4,103.2 1.8,87.3 1.8,66.3 C1.8,44.3 5.3,28 12.3,17.6 C19.3,7.1 29.9,1.9 44.2,1.9 C58.2,1.9 68.7,7.4 75.9,18.3 C83.1,29.2 86.7,45.2 86.7,66.2 L86.7,66.2 Z M22.2,66.2 C22.2,83.2 24,95.4 27.5,102.7 C31,110 36.6,113.6 44.3,113.6 C52,113.6 57.6,109.9 61.2,102.5 C64.8,95.1 66.5,83 66.5,66.2 C66.5,49.5 64.7,37.3 61.2,29.8 C57.6,22.3 52,18.6 44.3,18.6 C36.6,18.6 31,22.3 27.5,29.6 C23.9,37 22.2,49.2 22.2,66.2 L22.2,66.2 Z"/>
        <path fill="#28CCA7" d="M85.7,65.2 C85.7,86.9 82.2,103 75.2,113.6 C68.2,124.1 57.6,129.4 43.2,129.4 C29.3,129.4 18.8,124 11.6,113.1 C4.4,102.2 0.8,86.3 0.8,65.3 C0.8,43.3 4.3,27 11.3,16.6 C18.3,6.1 28.9,0.9 43.2,0.9 C57.2,0.9 67.7,6.4 74.9,17.3 C82.1,28.2 85.7,44.2 85.7,65.2 L85.7,65.2 Z M21.2,65.2 C21.2,82.2 23,94.4 26.5,101.7 C30,109 35.6,112.6 43.3,112.6 C51,112.6 56.6,108.9 60.2,101.5 C63.8,94.1 65.5,82 65.5,65.2 C65.5,48.5 63.7,36.3 60.2,28.8 C56.6,21.3 51,17.6 43.3,17.6 C35.6,17.6 30,21.3 26.5,28.6 C22.9,36 21.2,48.2 21.2,65.2 L21.2,65.2 Z"/>
      </g>
    </g>
    <g transform="translate(116 142)">
      <path fill="#E5E5E5" d="M10.7,2 C8.7,2 7,4 7,6 C7,8 8.7,10 10.7,10 L15.7,10 C20.8,10 20.8,17 15.7,17 L3.7,17 C1.7,17 1.42108547e-14,18.5 1.42108547e-14,20.5 C1.42108547e-14,22.5 1.7,24 3.7,24 L55.1,24 C57.1,24 58.8,22 58.8,20 C58.8,18 57.1,16 55.1,16 L50.1,16 C45,16 45,9 50.1,9 L62.1,9 C64.1,9 65.8,7.5 65.8,5.5 C65.8,3.5 64.1,2 62,2 L10.7,2 Z"/>
      <path fill="#FFFFFF" d="M64,0 L12.7,0 C10.7,0 9,2 9,4 C9,6 10.7,8 12.7,8 L17.7,8 C22.8,8 22.8,15 17.7,15 L5.7,15 C3.7,15 2,16.5 2,18.5 C2,20.5 3.7,22 5.7,22 L57.1,22 C59.1,22 60.8,20 60.8,18 C60.8,16 59.1,14 57.1,14 L52.1,14 C47,14 47,7 52.1,7 L64.1,7 C66.1,7 67.8,5.5 67.8,3.5 C67.8,1.5 66.1,0 64,0 L64,0 Z"/>
    </g>
    <g transform="translate(425 167)">
      <path fill="#E6E6E6" d="M6.21259385,1 C5.23827724,1 4.41010813,2.01936615 4.41010813,3.0387323 C4.41010813,4.05809845 5.23827724,5.07746459 6.21259385,5.07746459 L8.64838537,5.07746459 C11.1328927,5.07746459 11.1328927,8.64524612 8.64838537,8.64524612 L2.80248572,8.64524612 C1.82816912,8.64524612 1,9.40977073 1,10.4291369 C1,11.448503 1.82816912,12.2130276 2.80248572,12.2130276 L27.8424225,12.2130276 C28.8167392,12.2130276 29.6449083,11.1936615 29.6449083,10.1742953 C29.6449083,9.15492919 28.8167392,8.13556304 27.8424225,8.13556304 L25.406631,8.13556304 C22.9221237,8.13556304 22.9221237,4.56778152 25.406631,4.56778152 L31.2525307,4.56778152 C32.2268473,4.56778152 33.0550164,3.80325691 33.0550164,2.78389076 C33.0550164,1.76452461 32.2268473,1 31.2038148,1 L6.21259385,1 Z"/>
      <path fill="#FFFFFF" d="M5.21259385,0 C4.23827724,0 3.41010813,1.01936615 3.41010813,2.0387323 C3.41010813,3.05809845 4.23827724,4.07746459 5.21259385,4.07746459 L7.64838537,4.07746459 C10.1328927,4.07746459 10.1328927,7.64524612 7.64838537,7.64524612 L1.80248572,7.64524612 C0.828169117,7.64524612 0,8.40977073 0,9.42913688 C0,10.448503 0.828169117,11.2130276 1.80248572,11.2130276 L26.8424225,11.2130276 C27.8167392,11.2130276 28.6449083,10.1936615 28.6449083,9.17429534 C28.6449083,8.15492919 27.8167392,7.13556304 26.8424225,7.13556304 L24.406631,7.13556304 C21.9221237,7.13556304 21.9221237,3.56778152 24.406631,3.56778152 L30.2525307,3.56778152 C31.2268473,3.56778152 32.0550164,2.80325691 32.0550164,1.78389076 C32.0550164,0.764524612 31.2268473,0 30.2038148,0 L5.21259385,0 Z"/>
      <circle cx="28.5" cy="23.5" r="2.5" fill="#E5E5E5"/>
      <circle cx="27.5" cy="22.5" r="2.5" fill="#FFFFFF"/>
    </g>
    <g transform="translate(86)">
      <path fill="#B595C5" stroke="#804B98" d="M108.5,15.6 C108.5,14.3 109.6,13.5 110.7,13.1 C112.2,12.5 114.2,12.5 115.7,13.7 C116,14 116.3,14.5 116.1,14.6 L111.1,19.2 L108.5,15.6 L108.5,15.6 Z"/>
      <path fill="#B595C5" stroke="#804B98" d="M102.8,9.3 C104.2,10 105.5,11.1 106.6,12.3 C107.9,13.6 108.8,14.8 109.5,15.9 C111.1,18.4 110.4,20.3 110.4,20.3 C108.4,18.2 104.2,21.4 104.2,21.4 L102.8,9.3 L102.8,9.3 Z"/>
      <path fill="#E5E5E5" d="M10.3,37 C5,37 0.6,32.6 0.6,27.3 C0.6,22 5,17.6 10.3,17.6 L111.7,17.6 C117,17.6 121.4,22 121.4,27.3 C121.4,32.6 117.1,37 111.7,37 L10.3,37 Z"/>
      <path fill="#FFFFFF" d="M10.3,35 C5,35 0.6,30.6 0.6,25.3 C0.6,20 5,15.6 10.3,15.6 L111.7,15.6 C117,15.6 121.4,20 121.4,25.3 C121.4,30.6 117.1,35 111.7,35 L10.3,35 Z"/>
      <g transform="translate(72)">
        <path fill="#B595C5" stroke="#804B98" d="M29.7,8.2 C30.9,7.8 31.4,6.6 31.5,5.4 C31.6,3.8 31.2,1.9 29.6,0.7 C29.3,0.5 28.7,0.3 28.6,0.6 L25.6,6.7 L29.7,8.2 L29.7,8.2 Z"/>
        <g transform="translate(0 5)">
          <path fill="#B595C5" stroke="#804B98" d="M31.2,16.3 C28.5,16.1 26.5,14.2 24.2,12.6 L17.3,6.8 C16.9,5.6 16.5,4.4 16.1,3.1 C16.1,3 16,2.8 16.1,2.7 C16.2,2.5 16.5,2.4 16.7,2.4 C19.2,2.3 23.2,-2.3 30,2.1 C34.4,5 35,6.9 34.7,9.6"/>
          <path fill="#B595C5" stroke="#804B98" d="M19.6,8 C17,6.4 13.8,4.9 11.5,4.6 C8.2,1 5.2,1.8 3.2,5.2 C-0.5,11.8 1.6,15.9 1.6,15.9 C1.6,15.9 0.6,17.1 1.8,21.6 C2.8,25.4 12.3,32.4 15.6,33.3 C20.7,34.6 23.8,32.6 23.8,32.6 C23.8,32.6 28.9,34.8 34.4,27.5 C35.4,26.1 37.2,23.9 31.9,20.6 C31.7,18.3 27.9,14.5 25,12"/>
          <path fill="#9C70B0" d="M18.6,6 C16,4.4 12.8,2.9 10.5,2.6 C6.7,-1.7 2.1,0.9 0.5,6.8 C-1.1,12.8 1.8,7.3 2.9,11.6 C3.9,15.7 10.6,7.4 15.3,7.3 C18.3,7.2 19.8,8.6 23.2,11.1 C25.8,13 27,15.3 26.4,17.3 C24.9,22.4 22.6,29.3 25.1,28.4 C28,27.4 26.9,34.3 33.5,25.4 C34.5,24 36.3,21.8 31,18.5 C30.8,16.2 27,12.4 24.1,9.9" opacity=".5" transform="translate(1 2)"/>
          <path fill="#804B98" d="M7,0.8 C7,3 6,4.1 4.2,6.3 C2.8,8 1.8,9.5 0,10.9 C2.7,10.1 9,6.7 8.8,3.1 C8.8,1.9 7,0.8 7,0.8 L7,0.8 Z" opacity=".5" transform="translate(25 20)"/>
          <path fill="#804B98" d="M8.6,1.9 C6.2,2.3 4.9,3.2 3.5,5.1 C2.1,7 1.5,7.8 0.6,9.9 C0.7,6.9 1.7,3.3 4.7,0.9 C6.5,-0.5 8.6,1.9 8.6,1.9 L8.6,1.9 Z" opacity=".5" transform="translate(3 3)"/>
          <path fill="#402312" d="M6.5 7.8C6.5 7.8 6.6 7.4 6.9 6.7 7.2 6.1 7.7 5.2 8.5 4.5 8.7 4.3 8.9 4.1 9.1 3.9 9.3 3.7 9.6 3.5 9.8 3.5 10.3 3.3 10.9 3.4 11.3 3.6 11.5 3.7 11.7 3.8 11.8 3.9 12 4 12.1 4.1 12.2 4.3 12.4 4.5 12.5 4.7 12.5 4.7L12.5 5C12.5 5 12.4 5.2 12.2 5.4 12.1 5.5 12 5.6 11.9 5.7 11.8 5.8 11.7 5.9 11.5 6 11.4 6.1 11.3 6.2 11.1 6.3 11 6.4 10.9 6.5 10.7 6.5 10.4 6.6 10.1 6.4 9.7 6.5 9.4 6.6 9 6.7 8.7 6.9 8.4 7.1 8 7.2 7.7 7.4 7.1 7.7 6.7 8 6.7 8L6.5 7.8 6.5 7.8zM29.5 25.9C29.5 25.9 29.5 25.8 29.6 25.6 29.6 25.4 29.8 25.2 29.8 24.9 29.9 24.6 30 24.3 30.1 23.9 30.2 23.7 30.2 23.5 30.2 23.4 30.2 23.2 30.3 23.1 30.3 22.9 30.4 22.6 30.2 22.2 30.3 21.9 30.4 21.6 30.6 21.5 30.8 21.3 31.1 21.1 31.3 20.8 31.4 20.7L31.6 20.5 31.7 20.4 32 20.4 32.1 20.4C32.2 20.4 32.3 20.5 32.4 20.6 32.6 20.8 32.9 21 33.1 21.4 33.3 21.8 33.4 22.3 33.3 22.7 33.2 23.2 32.7 23.5 32.5 23.9 31.9 24.6 31.3 25.2 30.7 25.5 30.2 25.8 29.8 26 29.8 26L29.5 25.9 29.5 25.9z"/>
          <g transform="translate(0 2)">
            <path fill="#B595C5" d="M17.7,0.5 C16.3,0.5 13.1,0.4 9.3,1.6 C6.7,2.4 0.1,6.3 1.6,8.8 C2.1,9.7 4.2,9.2 5.1,9.4 C5.7,9.5 4.2,10.8 4.6,11.4 C5.7,13.1 9.3,9.2 10.2,8.7 C12.6,7.5 15.8,6.3 17.8,4.5"/>
            <path fill="#804B98" d="M17.7,0.5 C17.7,0.5 17.1,0.5 15.9,0.6 C14.8,0.7 13.2,0.9 11.3,1.3 C10.4,1.5 9.4,1.8 8.4,2.3 C7.4,2.8 6.4,3.3 5.4,4 C4.4,4.7 3.4,5.4 2.7,6.3 C2.3,6.7 2,7.2 1.9,7.7 C1.8,8.1 2,8.7 2.4,8.7 C2.9,8.8 3.5,8.8 4.2,8.8 L4.7,8.8 L5,8.8 L5.1,8.8 L5.2,8.8 L5.2,8.8 L5.2,8.8 C5.2,8.8 5.1,8.8 5.3,8.8 L5.4,8.8 C5.4,8.8 5.4,8.8 5.5,8.9 C5.6,9 5.7,9.1 5.7,9.2 L5.7,9.4 C5.7,9.6 5.6,9.8 5.6,9.9 C5.5,10.1 5.4,10.2 5.3,10.4 C5.1,10.7 5,10.9 5,11.1 L5,11.1 L5,11.1 L5,11.1 C5,11.1 4.9,11 5,11 L5,11 L5.1,11.1 C5.1,11.1 5.2,11.3 5.2,11.2 L5.2,11.2 C5.5,11.3 6.1,11.1 6.6,10.8 C7.6,10.2 8.5,9.5 9.4,8.8 C9.6,8.6 9.8,8.5 10.1,8.3 C10.3,8.2 10.6,8.1 10.8,8 C11.3,7.8 11.7,7.6 12.2,7.4 C14,6.6 15.4,6 16.4,5.4 C17.4,4.8 17.9,4.4 17.9,4.4 C17.9,4.4 17.8,4.5 17.6,4.7 C17.4,4.9 17,5.2 16.6,5.5 C15.7,6.2 14.3,7 12.5,7.8 C12.1,8 11.6,8.2 11.2,8.5 C11,8.6 10.7,8.7 10.5,8.9 C10.3,9 10.1,9.2 9.9,9.4 C9.1,10.1 8.2,10.9 7.1,11.6 C6.8,11.8 6.5,11.9 6.2,12 C5.9,12.1 5.5,12.2 5,12.1 C4.9,12 4.7,12 4.6,11.9 C4.5,11.8 4.5,11.8 4.4,11.7 L4.3,11.6 L4.3,11.6 C4.3,11.7 4.2,11.5 4.2,11.5 L4.2,11.5 L4.1,11.4 C4,11.2 4,11.1 4.1,10.9 C4.2,10.4 4.4,10.2 4.6,9.9 C4.7,9.8 4.8,9.6 4.8,9.5 C4.8,9.5 4.8,9.4 4.8,9.5 L4.8,9.6 C4.8,9.7 4.9,9.7 4.9,9.8 L4.9,9.8 L4.8,9.8 C5,9.9 4.8,9.8 4.9,9.8 L4.9,9.8 L4.9,9.8 L4.9,9.8 L4.8,9.9 C4.7,9.9 4.7,10 4.6,10 L4.1,10 C3.5,10 2.8,10 2,9.8 C1,9.5 0.7,8.4 0.9,7.6 C1.1,6.8 1.5,6.2 1.9,5.7 C2.8,4.7 3.9,3.9 4.9,3.3 C5.9,2.6 7,2.1 8.1,1.7 C9.2,1.3 10.2,1.1 11.2,0.9 C13.1,0.5 14.8,0.5 15.9,0.5 C17.1,0.4 17.7,0.5 17.7,0.5 L17.7,0.5 Z"/>
          </g>
          <path fill="#B595C5" stroke="#804B98" d="M33,13 C33.4,14.4 34.7,18 34.6,21.9 C34.5,24.6 32.7,32.1 29.8,31.3 C28.8,31 28.7,28.9 28.3,28.1 C28,27.6 27.2,29.3 26.6,29.1 C24.7,28.6 27.4,24 27.6,22.9 C28.1,20.2 28.4,16.9 29.5,14.4"/>
          <path fill="#8FD3D3" d="M30.4,2.8 C27.7,2.1 26.7,4.5 26.5,6.6 C30,6.7 31.8,5.7 32.1,4.4"/>
          <path fill="#FFFFFF" d="M6.2,2.6 C4.8,1.5 1.7,0.7 0.9,0.8 C0.6,0.8 5.1,2.1 6.3,3.1 C9.8,5.8 10.2,7.9 10.2,7.9 C10.4,7.4 9.9,5.4 6.2,2.6 L6.2,2.6 Z" opacity=".3" transform="translate(24)"/>
        </g>
        <path stroke="#333333" stroke-width=".5" d="M23.2,22 L18,17.8"/>
        <path fill="#FFFFFF" d="M18.2,27.4 C19.1,26.3 21.4,25.7 22.9,26.9 C24.3,28 24.3,30.4 23.4,31.6 L18.2,27.4 L18.2,27.4 Z"/>
        <path fill="#333333" d="M19.8,28.7 C20.4,28 21.4,27.6 22,28 C22.6,28.4 22.4,29.5 21.8,30.3 L19.8,28.7 L19.8,28.7 Z"/>
        <path fill="#FFFFFF" d="M8.3,19.5 C9.2,18.4 11.5,17.8 13,19 C14.4,20.1 14.4,22.5 13.5,23.7 L8.3,19.5 L8.3,19.5 Z"/>
        <path fill="#333333" d="M9.9,20.8 C10.5,20.1 11.5,19.7 12.1,20.1 C12.7,20.5 12.5,21.6 11.9,22.4 L9.9,20.8 L9.9,20.8 Z"/>
        <path fill="#9C70B0" d="M3.7 12.4C5.1 11.3 7.7 12.1 7.1 12.5 6.1 13.2 5.6 15.1 4.8 15.4 4 15.7 3.2 15.3 2.8 14.5 2.6 13.6 3.1 12.9 3.7 12.4L3.7 12.4zM32.1 33.5C32.8 31.9 31.5 29.5 31.3 30.2 30.8 31.3 29.1 32.2 29 33 28.9 33.8 29.5 34.6 30.4 34.7 31.2 34.9 31.8 34.3 32.1 33.5L32.1 33.5z" opacity=".8"/>
      </g>
      <ellipse cx="88.1" cy="24.8" fill="#BFE8E8" stroke="#FFFFFF" opacity=".38" rx="18.9" ry="19.2"/>
      <path fill="#9C70B0" d="M77.6,23.8 C79.7,21.1 81.2,25.5 84.9,28.4 C88.6,31.4 93.1,31.9 91.1,34.5 C90.2,35.7 86,34.7 82.3,31.7 C78.6,28.8 76.7,24.9 77.6,23.8 L77.6,23.8 Z" opacity=".8"/>
    </g>
    <text fill="#007E62" transform="translate(199 191)" font-size="16" font-family="Futura-Medium, Futura" font-weight="400">
      <tspan x=".232" y="17">Oops,how’d you get here</tspan> <tspan x="186.912" y="17" font-family="Lato-Regular, Lato" font-weight="normal">?!</tspan>
    </text>
  </g>
</svg>
