<svg xmlns="http://www.w3.org/2000/svg" width="828" height="142" viewBox="0 0 828 142" xmlns:xlink="http://www.w3.org/1999/xlink">
  <defs>
    <path id="a" d="M68.5,10.9539356 C46.9370425,10.9539356 28.1062686,5.4041458 28.1062686,1.42108547e-14 C28.1062686,1.42108547e-14 0,59.7914013 0,60.1917084 C0,65.5958542 30.6896047,71 68.5,71 C106.310395,71 137,65.5958542 137,60.1917084 C137,59.7914013 108.682972,1.42108547e-14 108.682972,1.42108547e-14 C108.682972,5.4041458 90.0629575,10.9539356 68.5,10.9539356 Z"/>
    <path id="c" d="M53.5,0.2 C53.5,2.9 44.9,5 34.3,5 C23.7,5 15.1,2.8 15.1,0.2 C15.1,0.2 0.7,28.9 0.7,29.2 C0.7,31.9 15.7,34 34.2,34 C52.7,34 67.7,31.8 67.7,29.2 C67.8,28.9 53.5,0.2 53.5,0.2 L53.5,0.2 Z"/>
    <ellipse id="e" cx="14.9" cy="3.3" rx="14.9" ry="3.3"/>
    <path id="g" d="M68.5,10.9539356 C46.9370425,10.9539356 28.1062686,5.4041458 28.1062686,1.42108547e-14 C28.1062686,1.42108547e-14 0,59.7914013 0,60.1917084 C0,65.5958542 30.6896047,71 68.5,71 C106.310395,71 137,65.5958542 137,60.1917084 C137,59.7914013 108.682972,1.42108547e-14 108.682972,1.42108547e-14 C108.682972,5.4041458 90.0629575,10.9539356 68.5,10.9539356 Z"/>
    <path id="i" d="M53.5,0.2 C53.5,2.9 44.9,5 34.3,5 C23.7,5 15.1,2.8 15.1,0.2 C15.1,0.2 0.7,28.9 0.7,29.2 C0.7,31.9 15.7,34 34.2,34 C52.7,34 67.7,31.8 67.7,29.2 C67.8,28.9 53.5,0.2 53.5,0.2 L53.5,0.2 Z"/>
    <ellipse id="k" cx="14.9" cy="3.3" rx="14.9" ry="3.3"/>
    <path id="m" d="M68.5,10.9539356 C46.9370425,10.9539356 28.1062686,5.4041458 28.1062686,1.42108547e-14 C28.1062686,1.42108547e-14 0,59.7914013 0,60.1917084 C0,65.5958542 30.6896047,71 68.5,71 C106.310395,71 137,65.5958542 137,60.1917084 C137,59.7914013 108.682972,1.42108547e-14 108.682972,1.42108547e-14 C108.682972,5.4041458 90.0629575,10.9539356 68.5,10.9539356 Z"/>
    <path id="o" d="M53.5,0.2 C53.5,2.9 44.9,5 34.3,5 C23.7,5 15.1,2.8 15.1,0.2 C15.1,0.2 0.7,28.9 0.7,29.2 C0.7,31.9 15.7,34 34.2,34 C52.7,34 67.7,31.8 67.7,29.2 C67.8,28.9 53.5,0.2 53.5,0.2 L53.5,0.2 Z"/>
    <ellipse id="q" cx="14.9" cy="3.3" rx="14.9" ry="3.3"/>
    <path id="s" d="M68.5,10.9539356 C46.9370425,10.9539356 28.1062686,5.4041458 28.1062686,1.42108547e-14 C28.1062686,1.42108547e-14 0,59.7914013 0,60.1917084 C0,65.5958542 30.6896047,71 68.5,71 C106.310395,71 137,65.5958542 137,60.1917084 C137,59.7914013 108.682972,1.42108547e-14 108.682972,1.42108547e-14 C108.682972,5.4041458 90.0629575,10.9539356 68.5,10.9539356 Z"/>
    <path id="u" d="M53.5,0.2 C53.5,2.9 44.9,5 34.3,5 C23.7,5 15.1,2.8 15.1,0.2 C15.1,0.2 0.7,28.9 0.7,29.2 C0.7,31.9 15.7,34 34.2,34 C52.7,34 67.7,31.8 67.7,29.2 C67.8,28.9 53.5,0.2 53.5,0.2 L53.5,0.2 Z"/>
    <ellipse id="w" cx="14.9" cy="3.3" rx="14.9" ry="3.3"/>
    <path id="y" d="M68.5,10.9539356 C46.9370425,10.9539356 28.1062686,5.4041458 28.1062686,1.42108547e-14 C28.1062686,1.42108547e-14 0,59.7914013 0,60.1917084 C0,65.5958542 30.6896047,71 68.5,71 C106.310395,71 137,65.5958542 137,60.1917084 C137,59.7914013 108.682972,1.42108547e-14 108.682972,1.42108547e-14 C108.682972,5.4041458 90.0629575,10.9539356 68.5,10.9539356 Z"/>
    <path id="A" d="M53.5,0.2 C53.5,2.9 44.9,5 34.3,5 C23.7,5 15.1,2.8 15.1,0.2 C15.1,0.2 0.7,28.9 0.7,29.2 C0.7,31.9 15.7,34 34.2,34 C52.7,34 67.7,31.8 67.7,29.2 C67.8,28.9 53.5,0.2 53.5,0.2 L53.5,0.2 Z"/>
    <ellipse id="C" cx="14.9" cy="3.3" rx="14.9" ry="3.3"/>
    <path id="E" d="M68.5,10.9539356 C46.9370425,10.9539356 28.1062686,5.4041458 28.1062686,1.42108547e-14 C28.1062686,1.42108547e-14 0,59.7914013 0,60.1917084 C0,65.5958542 30.6896047,71 68.5,71 C106.310395,71 137,65.5958542 137,60.1917084 C137,59.7914013 108.682972,1.42108547e-14 108.682972,1.42108547e-14 C108.682972,5.4041458 90.0629575,10.9539356 68.5,10.9539356 Z"/>
    <path id="G" d="M53.5,0.2 C53.5,2.9 44.9,5 34.3,5 C23.7,5 15.1,2.8 15.1,0.2 C15.1,0.2 0.7,28.9 0.7,29.2 C0.7,31.9 15.7,34 34.2,34 C52.7,34 67.7,31.8 67.7,29.2 C67.8,28.9 53.5,0.2 53.5,0.2 L53.5,0.2 Z"/>
    <ellipse id="I" cx="14.9" cy="3.3" rx="14.9" ry="3.3"/>
  </defs>
  <g fill="none" fill-rule="evenodd">
    <g transform="translate(0 36)">
      <path fill="#000000" fill-opacity=".3" d="M68.4,45.9 C46.9,45.9 28.1242065,40.3544678 28.1242065,34.9544678 C28.1242065,34.9544678 0.1,94.7 0.1,95.1 C0.1,100.5 30.7,105.9 68.4,105.9 C106.1,105.9 136.7,100.5 136.7,95.1 C136.7,94.7 108.46565,34.9544678 108.46565,34.9544678 C108.46565,40.3544678 89.9,45.9 68.4,45.9 Z" style="mix-blend-mode:multiply"/>
      <g transform="translate(0 31)">
        <mask id="b" fill="white">
          <use xlink:href="#a"/>
        </mask>
        <use fill="#28CCA7" xlink:href="#a"/>
        <path fill="#28CCA7" fill-opacity=".3" d="M39,8.00382634 C33.8042942,6.13982061 27.4707749,2.20798225 27.4707749,7.10542736e-15 C27.4707749,7.10542736e-15 -3,61.5056139 -3,61.9036575 C-3,64.0739407 14.6183891,68.1837308 23.0034292,70 L39,8.00382634 Z" style="mix-blend-mode:multiply" mask="url(#b)"/>
      </g>
      <path fill="#28CCA7" d="M68.3,9 C57.7,9 49.1,6.8 49.1,4.2 C49.1,4.2 34.7,32.9 34.7,33.2 C34.7,35.9 49.7,38 68.2,38 C86.7,38 101.7,35.8 101.7,33.2 C101.8,32.9 87.5,4.2 87.5,4.2 C87.5,6.9 78.9,9 68.3,9 Z"/>
      <path fill="#FED453" stroke="#FFFFFF" stroke-width="2" d="M68.3,22.3 C46.6,22.3 28.9,26.7 28.9,32.1 C28.9,37.5 46.5,41.9 68.3,41.9 C90.1,41.9 107.7,37.5 107.7,32.1 C107.7,26.7 90.1,22.3 68.3,22.3 L68.3,22.3 Z M69.3,35.4 C53,35.4 39.9,33.2 39.9,30.5 C39.9,27.8 53.1,25.6 69.3,25.6 C85.5,25.6 98.7,27.8 98.7,30.5 C98.7,33.2 85.5,35.4 69.3,35.4 L69.3,35.4 Z"/>
      <g transform="translate(34 4)">
        <mask id="d" fill="white">
          <use xlink:href="#c"/>
        </mask>
        <use fill="#FFFFFF" xlink:href="#c"/>
        <path fill="#FED453" d="M13,6.6 C10.6,6.6 8.2,8.6 8.2,11 L0,29.2 L0,32 C0,32 33.2,43.9 69,32 L61.4,11 C61.4,13.4 59.5,15.4 57.1,15.4 C54.7,15.4 52.7,13.4 52.7,11 C52.7,8.6 50.7,6.6 48.3,6.6 C45.9,6.6 43.9,8.6 43.9,11 C43.9,13.4 41.9,15.4 39.5,15.4 C37.1,15.4 35.1,13.4 35.1,11 C35.1,8.6 33.1,6.6 30.7,6.6 C28.3,6.6 26.3,8.6 26.3,11 C26.3,13.4 24.3,15.4 21.9,15.4 C19.5,15.4 17.5,13.4 17.5,11 C17.3,8.6 15.4,6.6 13,6.6 Z" mask="url(#d)"/>
        <path fill="#28CCA7" fill-opacity=".2" d="M20.3305253,3.62949376 C15.1040589,1.75632618 14.0624005,0.471698449 14.0624005,-1.74713635 C14.0624005,-1.74713635 -5.84132619,37.9440463 -5.84132619,38.3440463 C-5.84132619,40.5249967 0.779029479,40.2413146 9.2137123,42.066511 L20.3305253,3.62949376 Z" style="mix-blend-mode:multiply" mask="url(#d)"/>
        <ellipse cx="46.5" cy="24.5" fill="#FFFFFF" rx="3.5" ry="3.5"/>
      </g>
      <g transform="translate(55 74)">
        <g transform="translate(18)">
          <path fill="#333333" d="M0.9,4.7 C1,7 2.8,5.9 5.1,5.9 C7.4,5.8 9.3,6.8 9.2,4.5 C9.1,2.2 7.2,0.4 4.9,0.4 C2.6,0.5 0.8,2.4 0.9,4.7 L0.9,4.7 Z"/>
          <ellipse cx="4.3" cy="2.7" fill="#FFFFFF" rx="1.3" ry="1.3"/>
        </g>
        <g transform="translate(0 1)">
          <path fill="#333333" d="M5.3,3.2 C5.3,4.6 4.1,4 2.7,3.9 C1.3,3.9 0.1,4.5 0.1,3.1 C0.1,1.7 1.3,0.5 2.8,0.6 C4.2,0.6 5.4,1.8 5.3,3.2 L5.3,3.2 Z"/>
          <ellipse cx="3.2" cy="1.9" fill="#FFFFFF" rx=".8" ry=".8"/>
        </g>
        <path stroke="#542B07" d="M17.5,9.4 C17.5,11 14.9,12.4 11.7,12.4 C8.5,12.4 5.9,11.1 5.9,9.4"/>
      </g>
      <path fill="#406455" d="M68.3,0 C57.6,0 49,2.2 49,4.8 C49,7.5 57.6,9.6 68.3,9.6 C79,9.6 87.6,7.4 87.6,4.8 C87.6,2.1 79,0 68.3,0 L68.3,0 Z"/>
      <g transform="translate(53 1)">
        <mask id="f" fill="white">
          <use xlink:href="#e"/>
        </mask>
        <use fill="#FFFFFF" xlink:href="#e"/>
        <rect width="3" height="10" y="-2" fill="#B59030" style="mix-blend-mode:multiply" mask="url(#f)"/>
        <rect width="3" height="10" x="27" y="-1" fill="#B59030" style="mix-blend-mode:multiply" mask="url(#f)"/>
        <rect width="3" height="10" x="3" y="-2" fill="#E1D6B5" style="mix-blend-mode:multiply" mask="url(#f)"/>
        <rect width="3" height="10" x="24" y="-2" fill="#E1D6B5" style="mix-blend-mode:multiply" mask="url(#f)"/>
        <rect width="6" height="10" x="6" y="-2" fill="#F7F4EB" style="mix-blend-mode:multiply" mask="url(#f)"/>
        <polygon fill="#F7F4EB" points="18 -2 24 -2 24 8 18 8 18 2.694" style="mix-blend-mode:multiply" mask="url(#f)"/>
      </g>
    </g>
    <g fill="#FFFFFF" transform="translate(32)">
      <path d="M45.9 38.1L31.9 38.1C33 38.1 33.9 37.2 33.9 36.1 33.9 35 33 34.1 31.9 34.1L45.9 34.1C44.8 34.1 43.9 35 43.9 36.1 43.9 37.2 44.8 38.1 45.9 38.1L45.9 38.1zM45.9 34.1C47 34.1 47.9 33.2 47.9 32.1 47.9 31 47 30.1 45.9 30.1L15.9 30.1C14.8 30.1 13.9 31 13.9 32.1 13.9 33.2 14.8 34.1 15.9 34.1L45.9 34.1 45.9 34.1 45.9 34.1 45.9 34.1zM23.9 30.1L18.9 30.1C20 30.1 20.9 29.2 20.9 28.1 20.9 27 20 26.1 18.9 26.1L23.9 26.1C22.8 26.1 21.9 27 21.9 28.1 21.9 29.2 22.8 30.1 23.9 30.1L23.9 30.1zM39.9 30.1L25.9 30.1C27 30.1 27.9 29.2 27.9 28.1 27.9 27 27 26.1 25.9 26.1L39.9 26.1C38.8 26.1 37.9 27 37.9 28.1 37.9 29.2 38.8 30.1 39.9 30.1L39.9 30.1zM8.9 24.1C8.9 23 9.8 22.1 10.9 22.1L52.9 22.1C54 22.1 54.9 23 54.9 24.1 54.9 25.2 54 26.1 52.9 26.1L10.9 26.1C9.8 26.1 8.9 25.2 8.9 24.1L8.9 24.1zM30.9 18.1C30.9 17 31.8 16.1 32.9 16.1L55.9 16.1C57 16.1 57.9 17 57.9 18.1 57.9 19.2 57 20.1 55.9 20.1L32.9 20.1C31.8 20.1 30.9 19.2 30.9 18.1L30.9 18.1zM27.9 40.1C27.9 39 28.8 38.1 29.9 38.1L45.9 38.1C47 38.1 47.9 39 47.9 40.1 47.9 41.2 47 42.1 45.9 42.1L29.9 42.1C28.8 42.1 27.9 41.2 27.9 40.1L27.9 40.1zM20 16C21.1045695 16 22 15.1045695 22 14 22 12.8954305 21.1045695 12 20 12L26 12C24.8954305 12 24 12.8954305 24 14 24 15.1045695 24.8954305 16 26 16L20 16zM13 4L26 4C24.8954305 4 24 4.8954305 24 6 24 7.1045695 24.8954305 8 26 8L13 8C14.1045695 8 15 7.1045695 15 6 15 4.8954305 14.1045695 4 13 4L13 4zM8 2C8 .8954305 8.88976324 0 10.0035949 0L30.9964051 0C32.10296 0 33 .88772964 33 2 33 3.1045695 32.1102368 4 30.9964051 4L10.0035949 4C8.89703997 4 8 3.11227036 8 2L8 2zM0 2C0 .8954305.8877296 0 2 0 3.1045695 0 4 .887729645 4 2 4 3.1045695 3.1122704 4 2 4 .8954305 4 0 3.11227036 0 2L0 2zM1 10C1 8.8954305 1.89784041 8 2.99161703 8L29.008383 8C30.1083227 8 31 8.8877296 31 10 31 11.1045695 30.1021596 12 29.008383 12L2.99161703 12C1.89167732 12 1 11.1122704 1 10L1 10zM16 18C16 16.8954305 16.9019504 16 18.0085302 16L25.9914698 16C27.1007504 16 28 16.8877296 28 18 28 19.1045695 27.0980496 20 25.9914698 20L18.0085302 20C16.8992496 20 16 19.1122704 16 18L16 18z"/>
    </g>
    <g transform="translate(138 36)">
      <path fill="#000000" fill-opacity=".3" d="M68.4,45.9 C46.9,45.9 28.1242065,40.3544678 28.1242065,34.9544678 C28.1242065,34.9544678 0.1,94.7 0.1,95.1 C0.1,100.5 30.7,105.9 68.4,105.9 C106.1,105.9 136.7,100.5 136.7,95.1 C136.7,94.7 108.46565,34.9544678 108.46565,34.9544678 C108.46565,40.3544678 89.9,45.9 68.4,45.9 Z" style="mix-blend-mode:multiply"/>
      <g transform="translate(0 31)">
        <mask id="h" fill="white">
          <use xlink:href="#g"/>
        </mask>
        <use fill="#28CCA7" xlink:href="#g"/>
        <path fill="#28CCA7" fill-opacity=".3" d="M39,8.00382634 C33.8042942,6.13982061 27.4707749,2.20798225 27.4707749,7.10542736e-15 C27.4707749,7.10542736e-15 -3,61.5056139 -3,61.9036575 C-3,64.0739407 14.6183891,68.1837308 23.0034292,70 L39,8.00382634 Z" style="mix-blend-mode:multiply" mask="url(#h)"/>
      </g>
      <path fill="#28CCA7" d="M68.3,9 C57.7,9 49.1,6.8 49.1,4.2 C49.1,4.2 34.7,32.9 34.7,33.2 C34.7,35.9 49.7,38 68.2,38 C86.7,38 101.7,35.8 101.7,33.2 C101.8,32.9 87.5,4.2 87.5,4.2 C87.5,6.9 78.9,9 68.3,9 Z"/>
      <path fill="#FED453" stroke="#FFFFFF" stroke-width="2" d="M68.3,22.3 C46.6,22.3 28.9,26.7 28.9,32.1 C28.9,37.5 46.5,41.9 68.3,41.9 C90.1,41.9 107.7,37.5 107.7,32.1 C107.7,26.7 90.1,22.3 68.3,22.3 L68.3,22.3 Z M69.3,35.4 C53,35.4 39.9,33.2 39.9,30.5 C39.9,27.8 53.1,25.6 69.3,25.6 C85.5,25.6 98.7,27.8 98.7,30.5 C98.7,33.2 85.5,35.4 69.3,35.4 L69.3,35.4 Z"/>
      <g transform="translate(34 4)">
        <mask id="j" fill="white">
          <use xlink:href="#i"/>
        </mask>
        <use fill="#FFFFFF" xlink:href="#i"/>
        <path fill="#FED453" d="M13,6.6 C10.6,6.6 8.2,8.6 8.2,11 L0,29.2 L0,32 C0,32 33.2,43.9 69,32 L61.4,11 C61.4,13.4 59.5,15.4 57.1,15.4 C54.7,15.4 52.7,13.4 52.7,11 C52.7,8.6 50.7,6.6 48.3,6.6 C45.9,6.6 43.9,8.6 43.9,11 C43.9,13.4 41.9,15.4 39.5,15.4 C37.1,15.4 35.1,13.4 35.1,11 C35.1,8.6 33.1,6.6 30.7,6.6 C28.3,6.6 26.3,8.6 26.3,11 C26.3,13.4 24.3,15.4 21.9,15.4 C19.5,15.4 17.5,13.4 17.5,11 C17.3,8.6 15.4,6.6 13,6.6 Z" mask="url(#j)"/>
        <path fill="#28CCA7" fill-opacity=".2" d="M20.3305253,3.62949376 C15.1040589,1.75632618 14.0624005,0.471698449 14.0624005,-1.74713635 C14.0624005,-1.74713635 -5.84132619,37.9440463 -5.84132619,38.3440463 C-5.84132619,40.5249967 0.779029479,40.2413146 9.2137123,42.066511 L20.3305253,3.62949376 Z" style="mix-blend-mode:multiply" mask="url(#j)"/>
        <ellipse cx="46.5" cy="24.5" fill="#FFFFFF" rx="3.5" ry="3.5"/>
      </g>
      <g transform="translate(55 74)">
        <g transform="translate(18)">
          <path fill="#333333" d="M0.9,4.7 C1,7 2.8,5.9 5.1,5.9 C7.4,5.8 9.3,6.8 9.2,4.5 C9.1,2.2 7.2,0.4 4.9,0.4 C2.6,0.5 0.8,2.4 0.9,4.7 L0.9,4.7 Z"/>
          <ellipse cx="4.3" cy="2.7" fill="#FFFFFF" rx="1.3" ry="1.3"/>
        </g>
        <g transform="translate(0 1)">
          <path fill="#333333" d="M5.3,3.2 C5.3,4.6 4.1,4 2.7,3.9 C1.3,3.9 0.1,4.5 0.1,3.1 C0.1,1.7 1.3,0.5 2.8,0.6 C4.2,0.6 5.4,1.8 5.3,3.2 L5.3,3.2 Z"/>
          <ellipse cx="3.2" cy="1.9" fill="#FFFFFF" rx=".8" ry=".8"/>
        </g>
        <path stroke="#542B07" d="M17.5,9.4 C17.5,11 14.9,12.4 11.7,12.4 C8.5,12.4 5.9,11.1 5.9,9.4"/>
      </g>
      <path fill="#406455" d="M68.3,0 C57.6,0 49,2.2 49,4.8 C49,7.5 57.6,9.6 68.3,9.6 C79,9.6 87.6,7.4 87.6,4.8 C87.6,2.1 79,0 68.3,0 L68.3,0 Z"/>
      <g transform="translate(53 1)">
        <mask id="l" fill="white">
          <use xlink:href="#k"/>
        </mask>
        <use fill="#FFFFFF" xlink:href="#k"/>
        <rect width="3" height="10" y="-2" fill="#B59030" style="mix-blend-mode:multiply" mask="url(#l)"/>
        <rect width="3" height="10" x="27" y="-1" fill="#B59030" style="mix-blend-mode:multiply" mask="url(#l)"/>
        <rect width="3" height="10" x="3" y="-2" fill="#E1D6B5" style="mix-blend-mode:multiply" mask="url(#l)"/>
        <rect width="3" height="10" x="24" y="-2" fill="#E1D6B5" style="mix-blend-mode:multiply" mask="url(#l)"/>
        <rect width="6" height="10" x="6" y="-2" fill="#F7F4EB" style="mix-blend-mode:multiply" mask="url(#l)"/>
        <polygon fill="#F7F4EB" points="18 -2 24 -2 24 8 18 8 18 2.694" style="mix-blend-mode:multiply" mask="url(#l)"/>
      </g>
    </g>
    <g transform="translate(276 36)">
      <path fill="#000000" fill-opacity=".3" d="M68.4,45.9 C46.9,45.9 28.1242065,40.3544678 28.1242065,34.9544678 C28.1242065,34.9544678 0.1,94.7 0.1,95.1 C0.1,100.5 30.7,105.9 68.4,105.9 C106.1,105.9 136.7,100.5 136.7,95.1 C136.7,94.7 108.46565,34.9544678 108.46565,34.9544678 C108.46565,40.3544678 89.9,45.9 68.4,45.9 Z" style="mix-blend-mode:multiply"/>
      <g transform="translate(0 31)">
        <mask id="n" fill="white">
          <use xlink:href="#m"/>
        </mask>
        <use fill="#28CCA7" xlink:href="#m"/>
        <path fill="#28CCA7" fill-opacity=".3" d="M39,8.00382634 C33.8042942,6.13982061 27.4707749,2.20798225 27.4707749,7.10542736e-15 C27.4707749,7.10542736e-15 -3,61.5056139 -3,61.9036575 C-3,64.0739407 14.6183891,68.1837308 23.0034292,70 L39,8.00382634 Z" style="mix-blend-mode:multiply" mask="url(#n)"/>
      </g>
      <path fill="#28CCA7" d="M68.3,9 C57.7,9 49.1,6.8 49.1,4.2 C49.1,4.2 34.7,32.9 34.7,33.2 C34.7,35.9 49.7,38 68.2,38 C86.7,38 101.7,35.8 101.7,33.2 C101.8,32.9 87.5,4.2 87.5,4.2 C87.5,6.9 78.9,9 68.3,9 Z"/>
      <path fill="#FED453" stroke="#FFFFFF" stroke-width="2" d="M68.3,22.3 C46.6,22.3 28.9,26.7 28.9,32.1 C28.9,37.5 46.5,41.9 68.3,41.9 C90.1,41.9 107.7,37.5 107.7,32.1 C107.7,26.7 90.1,22.3 68.3,22.3 L68.3,22.3 Z M69.3,35.4 C53,35.4 39.9,33.2 39.9,30.5 C39.9,27.8 53.1,25.6 69.3,25.6 C85.5,25.6 98.7,27.8 98.7,30.5 C98.7,33.2 85.5,35.4 69.3,35.4 L69.3,35.4 Z"/>
      <g transform="translate(34 4)">
        <mask id="p" fill="white">
          <use xlink:href="#o"/>
        </mask>
        <use fill="#FFFFFF" xlink:href="#o"/>
        <path fill="#FED453" d="M13,6.6 C10.6,6.6 8.2,8.6 8.2,11 L0,29.2 L0,32 C0,32 33.2,43.9 69,32 L61.4,11 C61.4,13.4 59.5,15.4 57.1,15.4 C54.7,15.4 52.7,13.4 52.7,11 C52.7,8.6 50.7,6.6 48.3,6.6 C45.9,6.6 43.9,8.6 43.9,11 C43.9,13.4 41.9,15.4 39.5,15.4 C37.1,15.4 35.1,13.4 35.1,11 C35.1,8.6 33.1,6.6 30.7,6.6 C28.3,6.6 26.3,8.6 26.3,11 C26.3,13.4 24.3,15.4 21.9,15.4 C19.5,15.4 17.5,13.4 17.5,11 C17.3,8.6 15.4,6.6 13,6.6 Z" mask="url(#p)"/>
        <path fill="#28CCA7" fill-opacity=".2" d="M20.3305253,3.62949376 C15.1040589,1.75632618 14.0624005,0.471698449 14.0624005,-1.74713635 C14.0624005,-1.74713635 -5.84132619,37.9440463 -5.84132619,38.3440463 C-5.84132619,40.5249967 0.779029479,40.2413146 9.2137123,42.066511 L20.3305253,3.62949376 Z" style="mix-blend-mode:multiply" mask="url(#p)"/>
        <ellipse cx="46.5" cy="24.5" fill="#FFFFFF" rx="3.5" ry="3.5"/>
      </g>
      <g transform="translate(55 74)">
        <g transform="translate(18)">
          <path fill="#333333" d="M0.9,4.7 C1,7 2.8,5.9 5.1,5.9 C7.4,5.8 9.3,6.8 9.2,4.5 C9.1,2.2 7.2,0.4 4.9,0.4 C2.6,0.5 0.8,2.4 0.9,4.7 L0.9,4.7 Z"/>
          <ellipse cx="4.3" cy="2.7" fill="#FFFFFF" rx="1.3" ry="1.3"/>
        </g>
        <g transform="translate(0 1)">
          <path fill="#333333" d="M5.3,3.2 C5.3,4.6 4.1,4 2.7,3.9 C1.3,3.9 0.1,4.5 0.1,3.1 C0.1,1.7 1.3,0.5 2.8,0.6 C4.2,0.6 5.4,1.8 5.3,3.2 L5.3,3.2 Z"/>
          <ellipse cx="3.2" cy="1.9" fill="#FFFFFF" rx=".8" ry=".8"/>
        </g>
        <path stroke="#542B07" d="M17.5,9.4 C17.5,11 14.9,12.4 11.7,12.4 C8.5,12.4 5.9,11.1 5.9,9.4"/>
      </g>
      <path fill="#406455" d="M68.3,0 C57.6,0 49,2.2 49,4.8 C49,7.5 57.6,9.6 68.3,9.6 C79,9.6 87.6,7.4 87.6,4.8 C87.6,2.1 79,0 68.3,0 L68.3,0 Z"/>
      <g transform="translate(53 1)">
        <mask id="r" fill="white">
          <use xlink:href="#q"/>
        </mask>
        <use fill="#FFFFFF" xlink:href="#q"/>
        <rect width="3" height="10" y="-2" fill="#B59030" style="mix-blend-mode:multiply" mask="url(#r)"/>
        <rect width="3" height="10" x="27" y="-1" fill="#B59030" style="mix-blend-mode:multiply" mask="url(#r)"/>
        <rect width="3" height="10" x="3" y="-2" fill="#E1D6B5" style="mix-blend-mode:multiply" mask="url(#r)"/>
        <rect width="3" height="10" x="24" y="-2" fill="#E1D6B5" style="mix-blend-mode:multiply" mask="url(#r)"/>
        <rect width="6" height="10" x="6" y="-2" fill="#F7F4EB" style="mix-blend-mode:multiply" mask="url(#r)"/>
        <polygon fill="#F7F4EB" points="18 -2 24 -2 24 8 18 8 18 2.694" style="mix-blend-mode:multiply" mask="url(#r)"/>
      </g>
    </g>
    <g transform="translate(552 36)">
      <path fill="#000000" fill-opacity=".3" d="M68.4,45.9 C46.9,45.9 28.1242065,40.3544678 28.1242065,34.9544678 C28.1242065,34.9544678 0.1,94.7 0.1,95.1 C0.1,100.5 30.7,105.9 68.4,105.9 C106.1,105.9 136.7,100.5 136.7,95.1 C136.7,94.7 108.46565,34.9544678 108.46565,34.9544678 C108.46565,40.3544678 89.9,45.9 68.4,45.9 Z" style="mix-blend-mode:multiply"/>
      <g transform="translate(0 31)">
        <mask id="t" fill="white">
          <use xlink:href="#s"/>
        </mask>
        <use fill="#28CCA7" xlink:href="#s"/>
        <path fill="#28CCA7" fill-opacity=".3" d="M39,8.00382634 C33.8042942,6.13982061 27.4707749,2.20798225 27.4707749,7.10542736e-15 C27.4707749,7.10542736e-15 -3,61.5056139 -3,61.9036575 C-3,64.0739407 14.6183891,68.1837308 23.0034292,70 L39,8.00382634 Z" style="mix-blend-mode:multiply" mask="url(#t)"/>
      </g>
      <path fill="#28CCA7" d="M68.3,9 C57.7,9 49.1,6.8 49.1,4.2 C49.1,4.2 34.7,32.9 34.7,33.2 C34.7,35.9 49.7,38 68.2,38 C86.7,38 101.7,35.8 101.7,33.2 C101.8,32.9 87.5,4.2 87.5,4.2 C87.5,6.9 78.9,9 68.3,9 Z"/>
      <path fill="#FED453" stroke="#FFFFFF" stroke-width="2" d="M68.3,22.3 C46.6,22.3 28.9,26.7 28.9,32.1 C28.9,37.5 46.5,41.9 68.3,41.9 C90.1,41.9 107.7,37.5 107.7,32.1 C107.7,26.7 90.1,22.3 68.3,22.3 L68.3,22.3 Z M69.3,35.4 C53,35.4 39.9,33.2 39.9,30.5 C39.9,27.8 53.1,25.6 69.3,25.6 C85.5,25.6 98.7,27.8 98.7,30.5 C98.7,33.2 85.5,35.4 69.3,35.4 L69.3,35.4 Z"/>
      <g transform="translate(34 4)">
        <mask id="v" fill="white">
          <use xlink:href="#u"/>
        </mask>
        <use fill="#FFFFFF" xlink:href="#u"/>
        <path fill="#FED453" d="M13,6.6 C10.6,6.6 8.2,8.6 8.2,11 L0,29.2 L0,32 C0,32 33.2,43.9 69,32 L61.4,11 C61.4,13.4 59.5,15.4 57.1,15.4 C54.7,15.4 52.7,13.4 52.7,11 C52.7,8.6 50.7,6.6 48.3,6.6 C45.9,6.6 43.9,8.6 43.9,11 C43.9,13.4 41.9,15.4 39.5,15.4 C37.1,15.4 35.1,13.4 35.1,11 C35.1,8.6 33.1,6.6 30.7,6.6 C28.3,6.6 26.3,8.6 26.3,11 C26.3,13.4 24.3,15.4 21.9,15.4 C19.5,15.4 17.5,13.4 17.5,11 C17.3,8.6 15.4,6.6 13,6.6 Z" mask="url(#v)"/>
        <path fill="#28CCA7" fill-opacity=".2" d="M20.3305253,3.62949376 C15.1040589,1.75632618 14.0624005,0.471698449 14.0624005,-1.74713635 C14.0624005,-1.74713635 -5.84132619,37.9440463 -5.84132619,38.3440463 C-5.84132619,40.5249967 0.779029479,40.2413146 9.2137123,42.066511 L20.3305253,3.62949376 Z" style="mix-blend-mode:multiply" mask="url(#v)"/>
        <ellipse cx="46.5" cy="24.5" fill="#FFFFFF" rx="3.5" ry="3.5"/>
      </g>
      <g transform="translate(55 74)">
        <g transform="translate(18)">
          <path fill="#333333" d="M0.9,4.7 C1,7 2.8,5.9 5.1,5.9 C7.4,5.8 9.3,6.8 9.2,4.5 C9.1,2.2 7.2,0.4 4.9,0.4 C2.6,0.5 0.8,2.4 0.9,4.7 L0.9,4.7 Z"/>
          <ellipse cx="4.3" cy="2.7" fill="#FFFFFF" rx="1.3" ry="1.3"/>
        </g>
        <g transform="translate(0 1)">
          <path fill="#333333" d="M5.3,3.2 C5.3,4.6 4.1,4 2.7,3.9 C1.3,3.9 0.1,4.5 0.1,3.1 C0.1,1.7 1.3,0.5 2.8,0.6 C4.2,0.6 5.4,1.8 5.3,3.2 L5.3,3.2 Z"/>
          <ellipse cx="3.2" cy="1.9" fill="#FFFFFF" rx=".8" ry=".8"/>
        </g>
        <path stroke="#542B07" d="M17.5,9.4 C17.5,11 14.9,12.4 11.7,12.4 C8.5,12.4 5.9,11.1 5.9,9.4"/>
      </g>
      <path fill="#406455" d="M68.3,0 C57.6,0 49,2.2 49,4.8 C49,7.5 57.6,9.6 68.3,9.6 C79,9.6 87.6,7.4 87.6,4.8 C87.6,2.1 79,0 68.3,0 L68.3,0 Z"/>
      <g transform="translate(53 1)">
        <mask id="x" fill="white">
          <use xlink:href="#w"/>
        </mask>
        <use fill="#FFFFFF" xlink:href="#w"/>
        <rect width="3" height="10" y="-2" fill="#B59030" style="mix-blend-mode:multiply" mask="url(#x)"/>
        <rect width="3" height="10" x="27" y="-1" fill="#B59030" style="mix-blend-mode:multiply" mask="url(#x)"/>
        <rect width="3" height="10" x="3" y="-2" fill="#E1D6B5" style="mix-blend-mode:multiply" mask="url(#x)"/>
        <rect width="3" height="10" x="24" y="-2" fill="#E1D6B5" style="mix-blend-mode:multiply" mask="url(#x)"/>
        <rect width="6" height="10" x="6" y="-2" fill="#F7F4EB" style="mix-blend-mode:multiply" mask="url(#x)"/>
        <polygon fill="#F7F4EB" points="18 -2 24 -2 24 8 18 8 18 2.694" style="mix-blend-mode:multiply" mask="url(#x)"/>
      </g>
    </g>
    <g transform="translate(414 36)">
      <path fill="#000000" fill-opacity=".3" d="M68.4,45.9 C46.9,45.9 28.1242065,40.3544678 28.1242065,34.9544678 C28.1242065,34.9544678 0.1,94.7 0.1,95.1 C0.1,100.5 30.7,105.9 68.4,105.9 C106.1,105.9 136.7,100.5 136.7,95.1 C136.7,94.7 108.46565,34.9544678 108.46565,34.9544678 C108.46565,40.3544678 89.9,45.9 68.4,45.9 Z" style="mix-blend-mode:multiply"/>
      <g transform="translate(0 31)">
        <mask id="z" fill="white">
          <use xlink:href="#y"/>
        </mask>
        <use fill="#28CCA7" xlink:href="#y"/>
        <path fill="#28CCA7" fill-opacity=".3" d="M39,8.00382634 C33.8042942,6.13982061 27.4707749,2.20798225 27.4707749,7.10542736e-15 C27.4707749,7.10542736e-15 -3,61.5056139 -3,61.9036575 C-3,64.0739407 14.6183891,68.1837308 23.0034292,70 L39,8.00382634 Z" style="mix-blend-mode:multiply" mask="url(#z)"/>
      </g>
      <path fill="#28CCA7" d="M68.3,9 C57.7,9 49.1,6.8 49.1,4.2 C49.1,4.2 34.7,32.9 34.7,33.2 C34.7,35.9 49.7,38 68.2,38 C86.7,38 101.7,35.8 101.7,33.2 C101.8,32.9 87.5,4.2 87.5,4.2 C87.5,6.9 78.9,9 68.3,9 Z"/>
      <path fill="#FED453" stroke="#FFFFFF" stroke-width="2" d="M68.3,22.3 C46.6,22.3 28.9,26.7 28.9,32.1 C28.9,37.5 46.5,41.9 68.3,41.9 C90.1,41.9 107.7,37.5 107.7,32.1 C107.7,26.7 90.1,22.3 68.3,22.3 L68.3,22.3 Z M69.3,35.4 C53,35.4 39.9,33.2 39.9,30.5 C39.9,27.8 53.1,25.6 69.3,25.6 C85.5,25.6 98.7,27.8 98.7,30.5 C98.7,33.2 85.5,35.4 69.3,35.4 L69.3,35.4 Z"/>
      <g transform="translate(34 4)">
        <mask id="B" fill="white">
          <use xlink:href="#A"/>
        </mask>
        <use fill="#FFFFFF" xlink:href="#A"/>
        <path fill="#FED453" d="M13,6.6 C10.6,6.6 8.2,8.6 8.2,11 L0,29.2 L0,32 C0,32 33.2,43.9 69,32 L61.4,11 C61.4,13.4 59.5,15.4 57.1,15.4 C54.7,15.4 52.7,13.4 52.7,11 C52.7,8.6 50.7,6.6 48.3,6.6 C45.9,6.6 43.9,8.6 43.9,11 C43.9,13.4 41.9,15.4 39.5,15.4 C37.1,15.4 35.1,13.4 35.1,11 C35.1,8.6 33.1,6.6 30.7,6.6 C28.3,6.6 26.3,8.6 26.3,11 C26.3,13.4 24.3,15.4 21.9,15.4 C19.5,15.4 17.5,13.4 17.5,11 C17.3,8.6 15.4,6.6 13,6.6 Z" mask="url(#B)"/>
        <path fill="#28CCA7" fill-opacity=".2" d="M20.3305253,3.62949376 C15.1040589,1.75632618 14.0624005,0.471698449 14.0624005,-1.74713635 C14.0624005,-1.74713635 -5.84132619,37.9440463 -5.84132619,38.3440463 C-5.84132619,40.5249967 0.779029479,40.2413146 9.2137123,42.066511 L20.3305253,3.62949376 Z" style="mix-blend-mode:multiply" mask="url(#B)"/>
        <ellipse cx="46.5" cy="24.5" fill="#FFFFFF" rx="3.5" ry="3.5"/>
      </g>
      <g transform="translate(55 74)">
        <g transform="translate(18)">
          <path fill="#333333" d="M0.9,4.7 C1,7 2.8,5.9 5.1,5.9 C7.4,5.8 9.3,6.8 9.2,4.5 C9.1,2.2 7.2,0.4 4.9,0.4 C2.6,0.5 0.8,2.4 0.9,4.7 L0.9,4.7 Z"/>
          <ellipse cx="4.3" cy="2.7" fill="#FFFFFF" rx="1.3" ry="1.3"/>
        </g>
        <g transform="translate(0 1)">
          <path fill="#333333" d="M5.3,3.2 C5.3,4.6 4.1,4 2.7,3.9 C1.3,3.9 0.1,4.5 0.1,3.1 C0.1,1.7 1.3,0.5 2.8,0.6 C4.2,0.6 5.4,1.8 5.3,3.2 L5.3,3.2 Z"/>
          <ellipse cx="3.2" cy="1.9" fill="#FFFFFF" rx=".8" ry=".8"/>
        </g>
        <path stroke="#542B07" d="M17.5,9.4 C17.5,11 14.9,12.4 11.7,12.4 C8.5,12.4 5.9,11.1 5.9,9.4"/>
      </g>
      <path fill="#406455" d="M68.3,0 C57.6,0 49,2.2 49,4.8 C49,7.5 57.6,9.6 68.3,9.6 C79,9.6 87.6,7.4 87.6,4.8 C87.6,2.1 79,0 68.3,0 L68.3,0 Z"/>
      <g transform="translate(53 1)">
        <mask id="D" fill="white">
          <use xlink:href="#C"/>
        </mask>
        <use fill="#FFFFFF" xlink:href="#C"/>
        <rect width="3" height="10" y="-2" fill="#B59030" style="mix-blend-mode:multiply" mask="url(#D)"/>
        <rect width="3" height="10" x="27" y="-1" fill="#B59030" style="mix-blend-mode:multiply" mask="url(#D)"/>
        <rect width="3" height="10" x="3" y="-2" fill="#E1D6B5" style="mix-blend-mode:multiply" mask="url(#D)"/>
        <rect width="3" height="10" x="24" y="-2" fill="#E1D6B5" style="mix-blend-mode:multiply" mask="url(#D)"/>
        <rect width="6" height="10" x="6" y="-2" fill="#F7F4EB" style="mix-blend-mode:multiply" mask="url(#D)"/>
        <polygon fill="#F7F4EB" points="18 -2 24 -2 24 8 18 8 18 2.694" style="mix-blend-mode:multiply" mask="url(#D)"/>
      </g>
    </g>
    <g transform="translate(690 36)">
      <path fill="#000000" fill-opacity=".3" d="M68.4,45.9 C46.9,45.9 28.1242065,40.3544678 28.1242065,34.9544678 C28.1242065,34.9544678 0.1,94.7 0.1,95.1 C0.1,100.5 30.7,105.9 68.4,105.9 C106.1,105.9 136.7,100.5 136.7,95.1 C136.7,94.7 108.46565,34.9544678 108.46565,34.9544678 C108.46565,40.3544678 89.9,45.9 68.4,45.9 Z" style="mix-blend-mode:multiply"/>
      <g transform="translate(0 31)">
        <mask id="F" fill="white">
          <use xlink:href="#E"/>
        </mask>
        <use fill="#28CCA7" xlink:href="#E"/>
        <path fill="#28CCA7" fill-opacity=".3" d="M39,8.00382634 C33.8042942,6.13982061 27.4707749,2.20798225 27.4707749,7.10542736e-15 C27.4707749,7.10542736e-15 -3,61.5056139 -3,61.9036575 C-3,64.0739407 14.6183891,68.1837308 23.0034292,70 L39,8.00382634 Z" style="mix-blend-mode:multiply" mask="url(#F)"/>
      </g>
      <path fill="#28CCA7" d="M68.3,9 C57.7,9 49.1,6.8 49.1,4.2 C49.1,4.2 34.7,32.9 34.7,33.2 C34.7,35.9 49.7,38 68.2,38 C86.7,38 101.7,35.8 101.7,33.2 C101.8,32.9 87.5,4.2 87.5,4.2 C87.5,6.9 78.9,9 68.3,9 Z"/>
      <path fill="#FED453" stroke="#FFFFFF" stroke-width="2" d="M68.3,22.3 C46.6,22.3 28.9,26.7 28.9,32.1 C28.9,37.5 46.5,41.9 68.3,41.9 C90.1,41.9 107.7,37.5 107.7,32.1 C107.7,26.7 90.1,22.3 68.3,22.3 L68.3,22.3 Z M69.3,35.4 C53,35.4 39.9,33.2 39.9,30.5 C39.9,27.8 53.1,25.6 69.3,25.6 C85.5,25.6 98.7,27.8 98.7,30.5 C98.7,33.2 85.5,35.4 69.3,35.4 L69.3,35.4 Z"/>
      <g transform="translate(34 4)">
        <mask id="H" fill="white">
          <use xlink:href="#G"/>
        </mask>
        <use fill="#FFFFFF" xlink:href="#G"/>
        <path fill="#FED453" d="M13,6.6 C10.6,6.6 8.2,8.6 8.2,11 L0,29.2 L0,32 C0,32 33.2,43.9 69,32 L61.4,11 C61.4,13.4 59.5,15.4 57.1,15.4 C54.7,15.4 52.7,13.4 52.7,11 C52.7,8.6 50.7,6.6 48.3,6.6 C45.9,6.6 43.9,8.6 43.9,11 C43.9,13.4 41.9,15.4 39.5,15.4 C37.1,15.4 35.1,13.4 35.1,11 C35.1,8.6 33.1,6.6 30.7,6.6 C28.3,6.6 26.3,8.6 26.3,11 C26.3,13.4 24.3,15.4 21.9,15.4 C19.5,15.4 17.5,13.4 17.5,11 C17.3,8.6 15.4,6.6 13,6.6 Z" mask="url(#H)"/>
        <path fill="#28CCA7" fill-opacity=".2" d="M20.3305253,3.62949376 C15.1040589,1.75632618 14.0624005,0.471698449 14.0624005,-1.74713635 C14.0624005,-1.74713635 -5.84132619,37.9440463 -5.84132619,38.3440463 C-5.84132619,40.5249967 0.779029479,40.2413146 9.2137123,42.066511 L20.3305253,3.62949376 Z" style="mix-blend-mode:multiply" mask="url(#H)"/>
        <ellipse cx="46.5" cy="24.5" fill="#FFFFFF" rx="3.5" ry="3.5"/>
      </g>
      <g transform="translate(55 74)">
        <g transform="translate(18)">
          <path fill="#333333" d="M0.9,4.7 C1,7 2.8,5.9 5.1,5.9 C7.4,5.8 9.3,6.8 9.2,4.5 C9.1,2.2 7.2,0.4 4.9,0.4 C2.6,0.5 0.8,2.4 0.9,4.7 L0.9,4.7 Z"/>
          <ellipse cx="4.3" cy="2.7" fill="#FFFFFF" rx="1.3" ry="1.3"/>
        </g>
        <g transform="translate(0 1)">
          <path fill="#333333" d="M5.3,3.2 C5.3,4.6 4.1,4 2.7,3.9 C1.3,3.9 0.1,4.5 0.1,3.1 C0.1,1.7 1.3,0.5 2.8,0.6 C4.2,0.6 5.4,1.8 5.3,3.2 L5.3,3.2 Z"/>
          <ellipse cx="3.2" cy="1.9" fill="#FFFFFF" rx=".8" ry=".8"/>
        </g>
        <path stroke="#542B07" d="M17.5,9.4 C17.5,11 14.9,12.4 11.7,12.4 C8.5,12.4 5.9,11.1 5.9,9.4"/>
      </g>
      <path fill="#406455" d="M68.3,0 C57.6,0 49,2.2 49,4.8 C49,7.5 57.6,9.6 68.3,9.6 C79,9.6 87.6,7.4 87.6,4.8 C87.6,2.1 79,0 68.3,0 L68.3,0 Z"/>
      <g transform="translate(53 1)">
        <mask id="J" fill="white">
          <use xlink:href="#I"/>
        </mask>
        <use fill="#FFFFFF" xlink:href="#I"/>
        <rect width="3" height="10" y="-2" fill="#B59030" style="mix-blend-mode:multiply" mask="url(#J)"/>
        <rect width="3" height="10" x="27" y="-1" fill="#B59030" style="mix-blend-mode:multiply" mask="url(#J)"/>
        <rect width="3" height="10" x="3" y="-2" fill="#E1D6B5" style="mix-blend-mode:multiply" mask="url(#J)"/>
        <rect width="3" height="10" x="24" y="-2" fill="#E1D6B5" style="mix-blend-mode:multiply" mask="url(#J)"/>
        <rect width="6" height="10" x="6" y="-2" fill="#F7F4EB" style="mix-blend-mode:multiply" mask="url(#J)"/>
        <polygon fill="#F7F4EB" points="18 -2 24 -2 24 8 18 8 18 2.694" style="mix-blend-mode:multiply" mask="url(#J)"/>
      </g>
    </g>
    <g fill="#FFFFFF" transform="translate(735)">
      <path d="M31 38L21.7 38C22.4 38 23 37.1 23 36 23 34.9 22.4 34 21.7 34L31 34C30.3 34 29.7 34.9 29.7 36 29.7 37.1 30.3 38 31 38L31 38zM38.3388889 34C39.2333333 34 40 33.1 40 32 40 30.9 39.2333333 30 38.3388889 30L14.0611111 30C13.1666667 30 12.4 30.9 12.4 32 12.4 33.1 13.1666667 34 14.0611111 34L38.3388889 34 38.3388889 34 38.3388889 34 38.3388889 34zM25 23L48 23C49.1 23 50 23.9 50 25 50 26.1 49.1 27 48 27L25 27C23.9 27 23 26.1 23 25 23 23.9 23.9 23 25 23zM8 40C8 38.9 8.9 38 10 38L33 38C34.1 38 35 38.9 35 40 35 41.1 34.1 42 33 42L10 42C8.9 42 8 41.1 8 40L8 40zM56 23C57.1045695 23 58 23.8877296 58 25 58 26.1045695 57.1122704 27 56 27 54.8954305 27 54 26.1122704 54 25 54 23.8954305 54.8877296 23 56 23zM34 16L28 16C29.1 16 30 15.1 30 14 30 12.9 29.1 12 28 12L34 12C32.9 12 32 12.9 32 14 32 15.1 32.9 16 34 16L34 16zM10 4L23 4C21.9 4 21 4.9 21 6 21 7.1 21.9 8 23 8L10 8C11.1 8 12 7.1 12 6 12 4.9 11.1 4 10 4L10 4zM0 2C0 .9.9 0 2 0L23 0C24.1 0 25 .9 25 2 25 3.1 24.1 4 23 4L2 4C.9 4 0 3.1 0 2L0 2zM8 10C8 8.9 8.9 8 10 8L36 8C37.1 8 38 8.9 38 10 38 11.1 37.1 12 36 12L10 12C8.9 12 8 11.1 8 10L8 10zM24 18C24 16.9 24.9 16 26 16L34 16C35.1 16 36 16.9 36 18 36 19.1 35.1 20 34 20L26 20C24.9 20 24 19.1 24 18L24 18z"/>
    </g>
    <g fill="#FFFFFF" transform="translate(449)">
      <path d="M36.3 36L27 36C27.7 36 28.3 35.1 28.3 34 28.3 32.9 27.7 32 27 32L36.3 32C35.6 32 35 32.9 35 34 35 35.1 35.6 36 36.3 36L36.3 36zM37.3 32C38 32 38.6 31.1 38.6 30 38.6 28.9 38 28 37.3 28L18.3 28C17.6 28 17 28.9 17 30 17 31.1 17.6 32 18.3 32L37.3 32 37.3 32 37.3 32 37.3 32zM35 28L21 28C22.1 28 23 27.1 23 26 23 24.9 22.1 24 21 24L35 24C33.9 24 33 24.9 33 26 33 27.1 33.9 28 35 28L35 28zM2 22C2 20.9 2.9 20 4 20L46 20C47.1 20 48 20.9 48 22 48 23.1 47.1 24 46 24L4 24C2.9 24 2 23.1 2 22L2 22zM11 16C11 14.9 11.9 14 13 14L36 14C37.1 14 38 14.9 38 16 38 17.1 37.1 18 36 18L13 18C11.9 18 11 17.1 11 16L11 16zM18.4 10C18.4 8.9 19.3 8 20.4 8L26.4 8C27.5 8 28.4 8.9 28.4 10 28.4 11.1 27.5 12 26.4 12L20.4 12C19.3 12 18.4 11.1 18.4 10L18.4 10zM33 10C33 8.9 33.9 8 35 8L36 8C37.1 8 38 8.9 38 10 38 11.1 37.1 12 36 12L35 12C33.9 12 33 11.1 33 10L33 10zM26.1 36L42.6 36C43.7 36 44.7 36.9 44.7 38 44.7 39.1 43.8 40 42.6 40L26.1 40C24.9 40 24 39.1 24 38 24 36.9 24.9 36 26.1 36zM2 0C3.1045695 0 4 .887729645 4 2 4 3.1045695 3.1122704 4 2 4 .8954305 4 0 3.11227036 0 2 0 .8954305.8877296 0 2 0zM8 2C8 .8954305 8.8982124 0 9.9907951 0L26.0092049 0C27.1086907 0 28 .88772964 28 2 28 3.1045695 27.1017876 4 26.0092049 4L9.9907951 4C8.8913093 4 8 3.11227036 8 2L8 2z"/>
    </g>
    <g fill="#FFFFFF" transform="translate(186)">
      <path d="M31 38L21.7 38C22.4 38 23 37.1 23 36 23 34.9 22.4 34 21.7 34L31 34C30.3 34 29.7 34.9 29.7 36 29.7 37.1 30.3 38 31 38L31 38zM38.3388889 34C39.2333333 34 40 33.1 40 32 40 30.9 39.2333333 30 38.3388889 30L14.0611111 30C13.1666667 30 12.4 30.9 12.4 32 12.4 33.1 13.1666667 34 14.0611111 34L38.3388889 34 38.3388889 34 38.3388889 34 38.3388889 34zM25 23L48 23C49.1 23 50 23.9 50 25 50 26.1 49.1 27 48 27L25 27C23.9 27 23 26.1 23 25 23 23.9 23.9 23 25 23zM8 40C8 38.9 8.9 38 10 38L33 38C34.1 38 35 38.9 35 40 35 41.1 34.1 42 33 42L10 42C8.9 42 8 41.1 8 40L8 40zM56 23C57.1045695 23 58 23.8877296 58 25 58 26.1045695 57.1122704 27 56 27 54.8954305 27 54 26.1122704 54 25 54 23.8954305 54.8877296 23 56 23zM34 16L28 16C29.1 16 30 15.1 30 14 30 12.9 29.1 12 28 12L34 12C32.9 12 32 12.9 32 14 32 15.1 32.9 16 34 16L34 16zM10 4L23 4C21.9 4 21 4.9 21 6 21 7.1 21.9 8 23 8L10 8C11.1 8 12 7.1 12 6 12 4.9 11.1 4 10 4L10 4zM0 2C0 .9.9 0 2 0L23 0C24.1 0 25 .9 25 2 25 3.1 24.1 4 23 4L2 4C.9 4 0 3.1 0 2L0 2zM8 10C8 8.9 8.9 8 10 8L36 8C37.1 8 38 8.9 38 10 38 11.1 37.1 12 36 12L10 12C8.9 12 8 11.1 8 10L8 10zM24 18C24 16.9 24.9 16 26 16L34 16C35.1 16 36 16.9 36 18 36 19.1 35.1 20 34 20L26 20C24.9 20 24 19.1 24 18L24 18z"/>
    </g>
    <g fill="#FFFFFF" transform="translate(302)">
      <path d="M6 8C6 6.8954305 6.88976324 6 8.00359486 6L28.9964051 6C30.10296 6 31 6.88772964 31 8 31 9.1045695 30.1102368 10 28.9964051 10L8.00359486 10C6.89703997 10 6 9.11227036 6 8L6 8zM24 2C24 .8954305 24.8945138 0 25.9940603 0L38.0059397 0C39.1072288 0 40 .887729645 40 2 40 3.1045695 39.1054862 4 38.0059397 4L25.9940603 4C24.8927712 4 24 3.11227036 24 2L24 2zM14 2C14 .8954305 14.8877296 0 16 0 17.1045695 0 18 .887729645 18 2 18 3.1045695 17.1122704 4 16 4 14.8954305 4 14 3.11227036 14 2L14 2zM46.7 34C47.4 34 48 33.1 48 32 48 30.9 47.4 30 46.7 30L27.7 30C27 30 26.4 30.9 26.4 32 26.4 33.1 27 34 27.7 34L46.7 34 46.7 34 46.7 34 46.7 34zM39 38C40.1045695 38 41 37.1045695 41 36 41 34.8954305 40.1045695 34 39 34L45 34C43.8954305 34 43 34.8954305 43 36 43 37.1045695 43.8954305 38 45 38L39 38zM43 30L29 30C30.1 30 31 29.1 31 28 31 26.9 30.1 26 29 26L43 26C41.9 26 41 26.9 41 28 41 29.1 41.9 30 43 30L43 30zM18 24C18 22.9 18.9 22 20 22L43 22C44.1 22 45 22.9 45 24 45 25.1 44.1 26 43 26L20 26C18.9 26 18 25.1 18 24L18 24zM31 18C31 16.9 31.9 16 33 16L39 16C40.1 16 41 16.9 41 18 41 19.1 40.1 20 39 20L33 20C31.9 20 31 19.1 31 18L31 18zM33 40C33 38.9 33.9 38 35.1 38L51.9 38C53.1 38 54 38.9 54 40 54 41.1 53.1 42 51.9 42L35.1 42C33.9 42 33 41.1 33 40L33 40zM2 16L25 16C26.1 16 27 16.9 27 18 27 19.1 26.1 20 25 20L2 20C.9 20 0 19.1 0 18 0 16.9.9 16 2 16z"/>
    </g>
    <g fill="#FFFFFF" transform="translate(594)">
      <path d="M28.9999996,28 L21,28 C22.1045695,28 23,27.1045695 23,26 C23,24.8954305 22.1045695,24 21,24 L29,24 C27.8954305,24 27,24.8954305 27,26 C27,27.1045695 27.8954305,28 29,28 L28.9999996,28 Z M16.7241755,19.0141452 C16.8994503,18.7167977 17,18.3701412 17,18 C17,17.6298588 16.8994503,17.2832023 16.7241755,16.9858548 C16.3763979,16.3958627 15.7344283,16 15,16 C13.8954305,16 13,16.8954305 13,18 C13,19.1045695 13.8954305,20 15,20 C15.7344283,20 16.3763979,19.6041373 16.7241755,19.0141452 L16.7241755,19.0141452 Z M9,16 L15.5,16 L29,16 C27.8954305,16 27,16.8954305 27,18 C27,19.1045695 27.8954305,20 29,20 L15.5,20 L9,20 C10.1045695,20 11,19.1045695 11,18 C11,16.8954305 10.1045695,16 9,16 L9,16 Z M6,14 C6,12.8954305 6.89627863,12 8.00239962,12 L40.9976004,12 C42.1034952,12 43,12.8877296 43,14 C43,15.1045695 42.1037214,16 40.9976004,16 L8.00239962,16 C6.89650485,16 6,15.1122704 6,14 L6,14 Z M27,8 C27,6.8954305 27.8982124,6 28.9907951,6 L45.0092049,6 C46.1086907,6 47,6.88772964 47,8 C47,9.1045695 46.1017876,10 45.0092049,10 L28.9907951,10 C27.8913093,10 27,9.11227036 27,8 L27,8 Z M17,2 C17,0.8954305 17.8877296,1.33226763e-15 19,1.33226763e-15 C20.1045695,1.33226763e-15 21,0.887729645 21,2 C21,3.1045695 20.1122704,4 19,4 C17.8954305,4 17,3.11227036 17,2 L17,2 Z M18,8 C18,6.8954305 18.8938998,6 20.0048815,6 L20.9951185,6 C22.102384,6 23,6.88772964 23,8 C23,9.1045695 22.1061002,10 20.9951185,10 L20.0048815,10 C18.897616,10 18,9.11227036 18,8 L18,8 Z M0,22 C0,20.8954305 0.891941149,20 1.9999204,20 L32.0000796,20 C33.1046051,20 34,20.8877296 34,22 C34,23.1045695 33.1080589,24 32.0000796,24 L1.9999204,24 C0.895394863,24 0,23.1122704 0,22 L0,22 Z M17,30 C17,28.8954305 17.8970601,28 19.0058587,28 L28.9941413,28 C30.1019465,28 31,28.8877296 31,30 C31,31.1045695 30.1029399,32 28.9941413,32 L19.0058587,32 C17.8980535,32 17,31.1122704 17,30 L17,30 Z" transform="matrix(-1 0 0 1 47 0)"/>
      <path d="M20 36L23 36C24.1 36 25 36.9 25 38L25 38C25 39.1 24.1 40 23 40L20 40C18.9 40 18 39.1 18 38L18 38C18 36.9 18.9 36 20 36L20 36zM31 36L34 36C35.1 36 36 36.9 36 38L36 38C36 39.1 35.1 40 34 40L31 40C29.9 40 29 39.1 29 38L29 38C29 36.9 29.9 36 31 36L31 36zM40 38C40 36.9 40.9 36 42 36L51.8 36C52.9 36 53.8 36.9 53.8 38 53.8 39.1 52.9 40 51.8 40L42 40C40.9 40 40 39.1 40 38L40 38z"/>
    </g>
  </g>
</svg>
