<svg width="134" height="134" viewBox="0 0 134 134" fill="none" xmlns="http://www.w3.org/2000/svg">
<g clip-path="url(#clip0_777_500)">
<path d="M78.9948 45.0253L61.6494 54.5292C60.7996 55.0198 60.0953 55.7272 59.6085 56.5791C59.1216 57.4311 58.8698 58.397 58.8785 59.3782C58.8785 130.118 58.8785 125.878 58.8785 126.488C58.8785 127.097 61.6494 127.707 30.8654 119.45C29.4476 119.067 28.2397 118.137 27.5072 116.864C26.7746 115.591 26.5773 114.08 26.9585 112.661L44.0546 48.9321C44.3236 47.9723 44.8464 47.1028 45.5682 46.4152C46.2899 45.7276 47.1837 45.2474 48.1554 45.0253C75.5035 38.015 71.1256 37.2946 78.9948 45.0253Z" fill="#6FABE6"/>
<path d="M78.995 45.0252L61.6495 54.5292C60.7998 55.0197 60.0955 55.7271 59.6086 56.5791C59.1218 57.431 58.8699 58.3969 58.8787 59.3781V118.425L42.0597 113.908C40.6419 113.525 39.4341 112.595 38.7015 111.322C37.969 110.049 37.7716 108.538 38.1529 107.12L55.2489 43.3904C55.2489 43.0579 54.0575 43.3904 69.685 39.5944C73.4533 38.5969 75.3097 41.34 78.995 45.0252Z" fill="#82BCF4"/>
<path d="M108.754 59.3782V125.379C108.754 126.849 108.17 128.259 107.13 129.298C106.091 130.337 104.682 130.921 103.212 130.921H64.4202C63.1238 130.947 61.8592 130.518 60.8467 129.708C59.8341 128.898 59.1377 127.758 58.8786 126.488C58.7123 125.74 58.8786 129.84 58.8786 59.3782C58.8786 55.5821 61.8434 54.4738 64.4202 53.0053C82.1813 43.1134 83.0125 41.9219 86.4207 43.7507L105.816 54.5292C106.697 54.9982 107.435 55.6962 107.952 56.5497C108.469 57.4032 108.746 58.3804 108.754 59.3782Z" fill="#FFCC66"/>
<path d="M108.754 59.3782V122.609H72.7331C71.2633 122.609 69.8538 122.025 68.8145 120.985C67.7753 119.946 67.1914 118.537 67.1914 117.067V51.509C82.1816 43.1965 83.1514 41.8665 86.5872 43.7507L105.983 54.5292C106.833 55.0198 107.537 55.7272 108.024 56.5791C108.511 57.4311 108.763 58.397 108.754 59.3782Z" fill="#FFDE76"/>
<path d="M83.8163 94.9003C82.7202 94.9003 81.6488 94.5753 80.7375 93.9664C79.8262 93.3574 79.1159 92.4919 78.6964 91.4793C78.277 90.4667 78.1673 89.3525 78.3811 88.2775C78.5949 87.2025 79.1227 86.2151 79.8977 85.4401C80.6727 84.6651 81.6602 84.1373 82.7352 83.9235C83.8101 83.7096 84.9244 83.8194 85.937 84.2388C86.9496 84.6582 87.8151 85.3685 88.424 86.2799C89.0329 87.1912 89.3579 88.2626 89.3579 89.3586C89.3579 90.0935 89.6499 90.7983 90.1695 91.3179C90.6891 91.8376 91.3939 92.1295 92.1288 92.1295C97.3657 92.1295 95.0659 80.8799 86.5871 78.6632V75.5045C86.5871 74.7696 86.2952 74.0648 85.7756 73.5452C85.2559 73.0256 84.5511 72.7336 83.8163 72.7336C83.0814 72.7336 82.3766 73.0256 81.857 73.5452C81.3374 74.0648 81.0454 74.7696 81.0454 75.5045V78.6632C78.4645 79.3639 76.2239 80.9741 74.737 83.1969C73.25 85.4198 72.6169 88.1053 72.9544 90.7583C73.2919 93.4112 74.5773 95.8527 76.5735 97.6324C78.5697 99.412 81.1421 100.41 83.8163 100.442C84.9123 100.442 85.9837 100.767 86.8951 101.376C87.8064 101.985 88.5167 102.85 88.9361 103.863C89.3555 104.876 89.4653 105.99 89.2515 107.065C89.0376 108.14 88.5098 109.127 87.7348 109.902C86.9598 110.677 85.9724 111.205 84.8974 111.419C83.8224 111.633 82.7082 111.523 81.6956 111.103C80.683 110.684 79.8175 109.974 79.2086 109.062C78.5996 108.151 78.2746 107.08 78.2746 105.984C78.2746 105.249 77.9827 104.544 77.4631 104.024C76.9434 103.505 76.2386 103.213 75.5038 103.213C70.2669 103.213 72.5667 114.462 81.0454 116.679V119.838C81.0454 120.573 81.3374 121.277 81.857 121.797C82.3766 122.317 83.0814 122.609 83.8163 122.609C84.5511 122.609 85.2559 122.317 85.7756 121.797C86.2952 121.277 86.5871 120.573 86.5871 119.838V116.679C89.168 115.978 91.4086 114.368 92.8956 112.145C94.3826 109.923 95.0157 107.237 94.6782 104.584C94.3406 101.931 93.0552 99.4896 91.059 97.7099C89.0628 95.9302 86.4904 94.9324 83.8163 94.9003Z" fill="#F8834B"/>
<path d="M83.8161 64.4212C86.8767 64.4212 89.3577 61.9401 89.3577 58.8796C89.3577 55.819 86.8767 53.3379 83.8161 53.3379C80.7555 53.3379 78.2744 55.819 78.2744 58.8796C78.2744 61.9401 80.7555 64.4212 83.8161 64.4212Z" fill="#FFBA55"/>
<path d="M103.96 44.3049C98.4182 53.0884 88.942 60.3203 86.2265 60.3203C85.611 60.3173 85.0139 60.1093 84.5296 59.7293C84.0454 59.3492 83.7015 58.8188 83.5522 58.2215C83.4028 57.6243 83.4567 56.9944 83.7051 56.4312C83.9536 55.868 84.3825 55.4035 84.9242 55.1112C104.32 44.8314 112.162 15.5436 100.385 8.00698C88.6095 0.470315 65.5007 19.7553 63.9213 41.0076L58.3797 42.393C57.8255 40.7582 59.1555 30.0905 65.8055 19.7276C74.4505 6.23365 91.3526 -4.54489 103.378 3.26886C114.073 10.1682 114.295 28.1786 103.96 44.3049Z" fill="#374F68"/>
</g>
<defs>
<clipPath id="clip0_777_500">
<rect width="133" height="133" fill="white" transform="translate(0.691406 0.691895)"/>
</clipPath>
</defs>
</svg>
