<svg width="128" height="128" viewBox="0 0 128 128" fill="none" xmlns="http://www.w3.org/2000/svg">
<path d="M55 116.25H23C22.448 116.25 22 115.802 22 115.25C22 114.698 22.448 114.25 23 114.25H55C55.552 114.25 56 114.698 56 115.25C56 115.802 55.552 116.25 55 116.25Z" fill="white"/>
<path d="M25 29C25 27.3431 26.3431 26 28 26H62.6151C62.8707 26 63.1251 25.9674 63.3724 25.9029L93.6664 18.0001C95.5905 17.4981 97.4617 18.973 97.4231 20.9612L96.577 64.5359C96.5384 66.5249 94.6097 67.9262 92.7061 67.3483L68.9261 60.1294C68.6436 60.0436 68.3499 60 68.0547 60H28C26.3431 60 25 58.6569 25 57V29Z" fill="#FF8FC6"/>
<path d="M68 62H31.598C26.858 62 23 58.142 23 53.402V32.598C23 27.858 26.858 24 31.598 24H68C68.552 24 69 24.448 69 25V61C69 61.552 68.552 62 68 62ZM31.598 26C27.96 26 25 28.958 25 32.598V53.402C25 57.04 27.958 60 31.598 60H67V26H31.598Z" fill="white"/>
<path d="M96 70C95.908 70 95.816 69.988 95.724 69.96L67.724 61.96C67.296 61.836 67 61.446 67 61V25C67 24.552 67.296 24.162 67.724 24.04L95.724 16.04C96.03 15.948 96.348 16.012 96.6 16.202C96.852 16.392 97 16.686 97 17V69C97 69.314 96.854 69.61 96.602 69.798C96.426 69.932 96.214 70 96 70ZM69 60.246L95 67.674V18.326L69 25.754V60.246Z" fill="white"/>
<path d="M29.666 15H21.666C21.114 15 20.666 14.552 20.666 14C20.666 13.448 21.114 13 21.666 13H29.666C30.218 13 30.666 13.448 30.666 14C30.666 14.552 30.218 15 29.666 15Z" fill="#FBBC09"/>
<path d="M25.666 19C25.114 19 24.666 18.552 24.666 18V10C24.666 9.448 25.114 9 25.666 9C26.218 9 26.666 9.448 26.666 10V18C26.666 18.552 26.218 19 25.666 19Z" fill="#FBBC09"/>
<path d="M17.666 26H9.66602C9.11402 26 8.66602 25.552 8.66602 25C8.66602 24.448 9.11402 24 9.66602 24H17.666C18.218 24 18.666 24.448 18.666 25C18.666 25.552 18.218 26 17.666 26Z" fill="#FBBC09"/>
<path d="M13.666 30C13.114 30 12.666 29.552 12.666 29V21C12.666 20.448 13.114 20 13.666 20C14.218 20 14.666 20.448 14.666 21V29C14.666 29.552 14.218 30 13.666 30Z" fill="#FBBC09"/>
<path d="M6 118H17C18.104 118 19 117.104 19 116V80C19 78.896 18.104 78 17 78H6C4.896 78 4 78.896 4 80V116C4 117.104 4.896 118 6 118Z" fill="#D02E7D"/>
<path d="M17 119H6C4.346 119 3 117.654 3 116V80C3 78.346 4.346 77 6 77H17C18.654 77 20 78.346 20 80V116C20 117.654 18.654 119 17 119ZM6 79C5.45 79 5 79.45 5 80V116C5 116.55 5.45 117 6 117H17C17.55 117 18 116.55 18 116V80C18 79.45 17.55 79 17 79H6Z" fill="white"/>
<path d="M42.9996 96C39.6916 96 36.9996 93.308 36.9996 90V84.5C36.9996 83.948 37.4476 83.5 37.9996 83.5C38.5516 83.5 38.9996 83.948 38.9996 84.5V90C38.9996 92.206 40.7936 94 42.9996 94C45.2056 94 46.9996 92.206 46.9996 90V80C46.9996 77.794 45.2056 76 42.9996 76H41.8516C39.4276 76 37.0536 76.458 34.7956 77.36L23.3716 81.928C22.8596 82.132 22.2776 81.884 22.0736 81.372C21.8696 80.86 22.1156 80.278 22.6296 80.074L34.0536 75.504C36.5476 74.506 39.1716 74 41.8516 74H42.9996C46.3076 74 48.9996 76.692 48.9996 80V90C48.9996 93.308 46.3076 96 42.9996 96Z" fill="white"/>
<path d="M54 72C53.448 72 53 71.552 53 71V62H39V71C39 71.552 38.552 72 38 72C37.448 72 37 71.552 37 71V61C37 60.448 37.448 60 38 60H54C54.552 60 55 60.448 55 61V71C55 71.552 54.552 72 54 72Z" fill="white"/>
<path d="M104 73H98C96.896 73 96 72.104 96 71V15C96 13.896 96.896 13 98 13H104C105.104 13 106 13.896 106 15V71C106 72.104 105.104 73 104 73Z" fill="#D02E7D"/>
<path d="M104 74H98C96.346 74 95 72.654 95 71V15C95 13.346 96.346 12 98 12H104C105.654 12 107 13.346 107 15V71C107 72.654 105.654 74 104 74ZM98 14C97.45 14 97 14.45 97 15V71C97 71.55 97.45 72 98 72H104C104.55 72 105 71.55 105 71V15C105 14.45 104.55 14 104 14H98Z" fill="white"/>
<path d="M124 44H112C111.448 44 111 43.552 111 43C111 42.448 111.448 42 112 42H124C124.552 42 125 42.448 125 43C125 43.552 124.552 44 124 44Z" fill="white"/>
<path d="M112 34C111.698 34 111.396 33.862 111.2 33.6C110.87 33.158 110.96 32.532 111.402 32.2L119.402 26.2C119.842 25.87 120.468 25.96 120.802 26.402C121.132 26.844 121.042 27.47 120.6 27.802L112.6 33.802C112.42 33.936 112.208 34 112 34Z" fill="white"/>
<path d="M120 60.0001C119.792 60.0001 119.58 59.9361 119.4 59.8001L111.4 53.8001C110.958 53.4681 110.868 52.8421 111.198 52.4001C111.532 51.9581 112.158 51.8681 112.598 52.1981L120.598 58.1981C121.04 58.5301 121.13 59.1561 120.8 59.5981C120.604 59.8621 120.302 60.0001 120 60.0001Z" fill="white"/>
<path d="M58 116H51C47.692 116 45 113.308 45 110C45 106.692 47.692 104 51 104H58C61.308 104 64 106.692 64 110C64 113.308 61.308 116 58 116ZM51 106C48.794 106 47 107.794 47 110C47 112.206 48.794 114 51 114H58C60.206 114 62 112.206 62 110C62 107.794 60.206 106 58 106H51Z" fill="white"/>
<path d="M62 106H51C47.692 106 45 103.308 45 100C45 96.692 47.692 94 51 94H62C65.308 94 68 96.692 68 100C68 103.308 65.308 106 62 106ZM51 96C48.794 96 47 97.794 47 100C47 102.206 48.794 104 51 104H62C64.206 104 66 102.206 66 100C66 97.794 64.206 96 62 96H51Z" fill="white"/>
<path d="M61.9997 86H50.9997C49.7057 86 48.4577 85.576 47.3957 84.776C47.1457 84.586 46.9997 84.292 46.9997 83.978V80C46.9997 79.148 46.7218 78.328 46.1998 77.624C45.9338 77.27 45.9338 76.784 46.1978 76.428C47.3478 74.884 49.0977 74 50.9997 74H61.9997C65.3077 74 67.9998 76.692 67.9998 80C67.9998 83.308 65.3077 86 61.9997 86ZM48.9997 83.446C49.6157 83.81 50.2977 84 50.9997 84H61.9997C64.2057 84 65.9998 82.206 65.9998 80C65.9998 77.794 64.2057 76 61.9997 76H50.9997C49.9597 76 48.9878 76.4 48.2478 77.118C48.7418 78.002 48.9997 78.986 48.9997 80V83.446Z" fill="white"/>
<path d="M63.9998 96H50.9997C49.0977 96 47.3478 95.116 46.1978 93.57C45.9338 93.214 45.9338 92.728 46.1998 92.374C46.7238 91.67 46.9997 90.85 46.9997 89.998V86.022C46.9997 85.708 47.1457 85.412 47.3957 85.224C48.4577 84.424 49.7057 84 50.9997 84H63.9998C67.3078 84 69.9998 86.692 69.9998 90C69.9998 93.308 67.3078 96 63.9998 96ZM48.2478 92.882C48.9878 93.6 49.9597 94 50.9997 94H63.9998C66.2058 94 67.9998 92.206 67.9998 90C67.9998 87.794 66.2058 86 63.9998 86H50.9997C50.2977 86 49.6157 86.192 48.9997 86.554V90C48.9997 91.014 48.7418 91.998 48.2478 92.882Z" fill="white"/>
<g clip-path="url(#clip0_776_229)">
<path d="M112.726 98.6562H109.469V78.9687C109.469 78.6207 109.33 78.2868 109.084 78.0407C108.838 77.7945 108.504 77.6562 108.156 77.6562H85.8437C85.4956 77.6562 85.1618 77.7945 84.9157 78.0407C84.6695 78.2868 84.5312 78.6207 84.5312 78.9687V98.6562H81.2736C81.0151 98.6612 80.7633 98.7395 80.5476 98.8822C80.3319 99.0249 80.1613 99.2259 80.0556 99.462C79.9499 99.698 79.9135 99.9592 79.9507 100.215C79.9879 100.471 80.0971 100.711 80.2656 100.907L95.9926 117.875C96.1162 118.021 96.2704 118.139 96.4444 118.22C96.6184 118.301 96.808 118.343 97 118.343C97.1919 118.343 97.3815 118.301 97.5556 118.22C97.7296 118.139 97.8838 118.021 98.0073 117.875L113.734 100.907C113.903 100.711 114.012 100.471 114.049 100.215C114.086 99.9592 114.05 99.698 113.944 99.462C113.839 99.2259 113.668 99.0249 113.452 98.8822C113.237 98.7395 112.985 98.6612 112.726 98.6562Z" fill="#FF6230"/>
<path d="M113.641 99.04L98.0075 115.906C97.8839 116.053 97.7297 116.171 97.5557 116.252C97.3817 116.333 97.1921 116.375 97.0001 116.375C96.8082 116.375 96.6186 116.333 96.4445 116.252C96.2705 116.171 96.1163 116.053 95.9928 115.906L80.3596 99.04C80.11 99.2813 79.9615 99.6084 79.9441 99.955C79.9267 100.302 80.0417 100.642 80.2657 100.907L95.9928 117.874C96.1163 118.021 96.2705 118.139 96.4445 118.22C96.6186 118.301 96.8082 118.343 97.0001 118.343C97.1921 118.343 97.3817 118.301 97.5557 118.22C97.7297 118.139 97.8839 118.021 98.0075 117.874L113.734 100.907C113.959 100.642 114.074 100.302 114.056 99.955C114.039 99.6084 113.89 99.2813 113.641 99.04Z" fill="#E68C15"/>
<path d="M85.8438 79.625H108.156C108.504 79.625 108.838 79.7633 109.084 80.0094C109.33 80.2556 109.469 80.5894 109.469 80.9375V78.9688C109.469 78.6207 109.33 78.2868 109.084 78.0407C108.838 77.7945 108.504 77.6562 108.156 77.6562H85.8438C85.4957 77.6562 85.1618 77.7945 84.9157 78.0407C84.6695 78.2868 84.5312 78.6207 84.5312 78.9688V80.9375C84.5312 80.5894 84.6695 80.2556 84.9157 80.0094C85.1618 79.7633 85.4957 79.625 85.8438 79.625Z" fill="#FFC568"/>
<path d="M85.1875 94.0625H83.875V95.375H85.1875V94.0625Z" fill="black"/>
<path d="M114.527 99.1603C114.371 98.8136 114.118 98.5195 113.798 98.3136C113.479 98.1077 113.106 97.9988 112.726 98H110.125V78.9688C110.125 78.4466 109.917 77.9458 109.548 77.5766C109.179 77.2074 108.678 77 108.156 77H85.8434C85.3213 77 84.8205 77.2074 84.4513 77.5766C84.0821 77.9458 83.8747 78.4466 83.8747 78.9688V92.75H85.1872V78.9688C85.1872 78.7947 85.2563 78.6278 85.3794 78.5047C85.5024 78.3816 85.6694 78.3125 85.8434 78.3125H108.156C108.33 78.3125 108.497 78.3816 108.62 78.5047C108.743 78.6278 108.812 78.7947 108.812 78.9688V98.6562C108.812 98.8303 108.881 98.9972 109.004 99.1203C109.127 99.2434 109.294 99.3125 109.468 99.3125H112.726C112.855 99.313 112.982 99.3509 113.09 99.4215C113.198 99.4922 113.284 99.5927 113.336 99.7108C113.395 99.831 113.418 99.9655 113.404 100.098C113.389 100.231 113.336 100.357 113.252 100.462L97.5076 117.45C97.4434 117.525 97.3633 117.586 97.2729 117.626C97.1826 117.667 97.0844 117.687 96.9853 117.685C96.8863 117.683 96.789 117.659 96.7005 117.614C96.6119 117.57 96.5343 117.506 96.4734 117.428L80.766 100.483C80.6761 100.378 80.6185 100.249 80.6002 100.112C80.5819 99.975 80.6037 99.8357 80.663 99.7108C80.7155 99.5927 80.801 99.4922 80.9093 99.4215C81.0176 99.3509 81.144 99.313 81.2733 99.3125H84.5309C84.705 99.3125 84.8719 99.2434 84.995 99.1203C85.118 98.9972 85.1872 98.8303 85.1872 98.6562V96.6875H83.8747V98H81.2733C80.8931 97.9988 80.5206 98.1077 80.2009 98.3136C79.8812 98.5195 79.628 98.8136 79.4719 99.1603C79.3052 99.5166 79.246 99.9139 79.3015 100.303C79.357 100.693 79.5247 101.058 79.7843 101.353L95.4903 118.3C95.6739 118.517 95.9025 118.693 96.1603 118.814C96.418 118.934 96.699 118.998 96.9837 119C97.2684 119.002 97.5502 118.942 97.8096 118.825C98.0691 118.708 98.3001 118.536 98.4867 118.321L114.234 101.332C114.487 101.037 114.65 100.675 114.702 100.29C114.754 99.9043 114.693 99.512 114.527 99.1603Z" fill="black"/>
<path d="M100.473 98.8479L92.5977 106.723L93.5257 107.651L101.401 99.776L100.473 98.8479Z" fill="white"/>
<path d="M97 106.531C97 106.921 97.1155 107.301 97.3318 107.625C97.5481 107.949 97.8556 108.201 98.2153 108.35C98.5751 108.499 98.9709 108.538 99.3528 108.462C99.7347 108.386 100.086 108.199 100.361 107.923C100.636 107.648 100.824 107.297 100.9 106.915C100.976 106.533 100.937 106.138 100.788 105.778C100.639 105.418 100.386 105.111 100.063 104.894C99.7388 104.678 99.3581 104.562 98.9688 104.562C98.4466 104.562 97.9458 104.77 97.5766 105.139C97.2074 105.508 97 106.009 97 106.531ZM99.625 106.531C99.625 106.661 99.5865 106.788 99.5144 106.896C99.4423 107.004 99.3398 107.088 99.2199 107.138C99.1 107.187 98.968 107.2 98.8407 107.175C98.7134 107.15 98.5965 107.087 98.5047 106.995C98.4129 106.904 98.3504 106.787 98.3251 106.659C98.2998 106.532 98.3128 106.4 98.3625 106.28C98.4121 106.16 98.4962 106.058 98.6042 105.986C98.7121 105.913 98.839 105.875 98.9688 105.875C99.1428 105.875 99.3097 105.944 99.4328 106.067C99.5559 106.19 99.625 106.357 99.625 106.531Z" fill="white"/>
<path d="M95.0313 98C94.6419 98 94.2612 98.1155 93.9375 98.3318C93.6137 98.5481 93.3614 98.8556 93.2124 99.2153C93.0634 99.5751 93.0244 99.9709 93.1003 100.353C93.1763 100.735 93.3638 101.086 93.6391 101.361C93.9145 101.636 94.2653 101.824 94.6472 101.9C95.0291 101.976 95.4249 101.937 95.7847 101.788C96.1444 101.639 96.4519 101.386 96.6682 101.063C96.8845 100.739 97 100.358 97 99.9688C97 99.4466 96.7926 98.9458 96.4234 98.5766C96.0542 98.2074 95.5534 98 95.0313 98ZM95.0313 100.625C94.9015 100.625 94.7746 100.587 94.6667 100.514C94.5587 100.442 94.4746 100.34 94.425 100.22C94.3753 100.1 94.3623 99.968 94.3876 99.8407C94.4129 99.7134 94.4754 99.5965 94.5672 99.5047C94.659 99.4129 94.7759 99.3504 94.9032 99.3251C95.0305 99.2998 95.1625 99.3128 95.2824 99.3625C95.4023 99.4121 95.5048 99.4962 95.5769 99.6042C95.649 99.7121 95.6875 99.839 95.6875 99.9688C95.6875 100.143 95.6184 100.31 95.4953 100.433C95.3722 100.556 95.2053 100.625 95.0313 100.625Z" fill="white"/>
<path d="M103.562 88.2253V85.6003C103.562 85.0782 103.355 84.5774 102.986 84.2082C102.617 83.839 102.116 83.6316 101.594 83.6316H98.9687C98.4466 83.6316 97.9458 83.839 97.5766 84.2082C97.2074 84.5774 97 85.0782 97 85.6003V93.4753C97 93.9975 97.2074 94.4982 97.5766 94.8675C97.9458 95.2367 98.4466 95.4441 98.9687 95.4441H101.594C102.116 95.4441 102.617 95.2367 102.986 94.8675C103.355 94.4982 103.562 93.9975 103.562 93.4753V88.2253H102.25V93.4753C102.25 93.6494 102.181 93.8163 102.058 93.9394C101.935 94.0625 101.768 94.1316 101.594 94.1316H98.9687C98.7947 94.1316 98.6278 94.0625 98.5047 93.9394C98.3816 93.8163 98.3125 93.6494 98.3125 93.4753V85.6003C98.3125 85.4263 98.3816 85.2594 98.5047 85.1363C98.6278 85.0132 98.7947 84.9441 98.9687 84.9441H101.594C101.768 84.9441 101.935 85.0132 102.058 85.1363C102.181 85.2594 102.25 85.4263 102.25 85.6003V88.2253H103.562Z" fill="white"/>
<rect x="91.4736" y="83.6316" width="1.65789" height="11.6053" fill="white"/>
</g>
<defs>
<clipPath id="clip0_776_229">
<rect width="42" height="42" fill="white" transform="translate(76 77)"/>
</clipPath>
</defs>
</svg>
