<svg width="281" height="52" viewBox="0 0 281 52" fill="none" xmlns="http://www.w3.org/2000/svg">
<path d="M8.15521 9.43382L13.065 11.5335C13.2132 11.597 13.3658 11.6272 13.517 11.6272C13.9644 11.6272 14.3907 11.3642 14.5767 10.9273C14.8276 10.3423 14.5555 9.6651 13.9705 9.41416L9.06068 7.31449C8.47567 7.06356 7.79846 7.33566 7.54753 7.92066C7.29659 8.50567 7.56869 9.18288 8.15369 9.43382H8.15521Z" fill="#D02E7D"/>
<path d="M16.1261 6.72482C16.3196 7.14959 16.7383 7.40204 17.1767 7.40204C17.3354 7.40204 17.4971 7.36878 17.6513 7.29925C18.2318 7.03622 18.4888 6.35296 18.2258 5.774L16.1306 1.1514C15.8676 0.572441 15.1843 0.313951 14.6054 0.576976C14.0249 0.840002 13.7679 1.52326 14.0309 2.10222L16.1261 6.72482Z" fill="#D02E7D"/>
<path d="M22.4076 6.90307C22.5406 6.95295 22.6751 6.97563 22.8082 6.97563C23.2768 6.97563 23.7166 6.68842 23.889 6.22434L25.6228 1.55337C25.845 0.956273 25.5397 0.292663 24.9441 0.0719632C24.347 -0.148736 23.6834 0.155103 23.4627 0.752202L21.7288 5.42317C21.5066 6.02027 21.812 6.68388 22.4076 6.90458V6.90307Z" fill="#D02E7D"/>
<path d="M34.5326 33.2978C33.9612 33.0181 33.2718 33.2555 32.9907 33.8269C32.9801 33.848 32.5508 34.7097 31.6514 36.0807C31.8947 36.1336 32.1411 36.1623 32.389 36.1623C33.2764 36.1623 34.1652 35.8237 34.8409 35.148L34.9709 35.018C35.0208 34.9213 35.0526 34.8578 35.0616 34.8381C35.3398 34.2667 35.1024 33.5774 34.531 33.2978H34.5326Z" fill="#D02E7D"/>
<path d="M32.2341 36.1608C31.9862 36.1608 31.7398 36.1321 31.4964 36.0792C30.1268 38.1668 27.6614 41.4395 23.9034 44.75C23.4802 45.0175 20.3571 46.8542 16.7549 45.4015C16.3165 45.2246 15.8161 45.3335 15.4896 45.6751L11.7649 49.5797C10.9698 49.43 9.39316 49.043 7.77117 48.136C4.95498 46.5594 3.23776 44.1574 2.66182 40.989L6.39406 37.1978C6.54069 37.0497 6.64348 36.8637 6.69186 36.6612C6.74023 36.4616 7.8664 31.706 7.05012 24.5741C7.03651 24.4607 7.00628 24.3488 6.96093 24.243C6.88232 24.0631 4.99731 19.7867 2.58321 16.8889C2.56659 16.8692 2.58321 16.8859 2.56508 16.8677C2.4638 16.7483 2.25972 16.4097 2.31263 16.1799C2.36856 15.9411 2.73438 15.6554 3.29066 15.415C5.1258 14.6229 8.16571 15.3788 12.2184 23.4857C12.3832 23.8152 12.6961 24.0465 13.0604 24.107C13.4247 24.1674 13.7951 24.0495 14.0581 23.791L31.1532 6.96497C31.1774 6.94078 31.2001 6.91659 31.2228 6.8909C31.2258 6.88787 31.5009 6.60973 31.9091 6.58706C32.4381 6.55531 32.9914 6.96799 33.3617 7.31718C33.7865 7.71776 33.9981 8.11684 34.0072 8.53859C34.0223 9.20673 33.528 9.87034 33.3391 10.0669L19.9943 23.011C19.6708 23.3255 19.5605 23.7986 19.7101 24.2234C19.7146 24.237 20.1848 25.6353 19.9762 27.6155C19.6874 30.3591 18.2952 32.814 15.8418 34.9152C15.3581 35.3294 15.3022 36.0565 15.7148 36.5402C16.129 37.024 16.8561 37.0814 17.3399 36.6672C20.5884 33.8873 21.8219 30.9033 22.2013 28.4741C21.8189 28.2882 21.4651 28.0388 21.1552 27.7289C19.6451 26.2187 19.6451 23.7623 21.1552 22.2522L26.7483 16.6591C27.4769 15.9305 28.4504 15.5284 29.4859 15.5284C29.9379 15.5284 30.3763 15.604 30.7889 15.7506L34.9535 11.7115C34.9535 11.7115 34.9626 11.704 34.9656 11.6994C35.1062 11.5588 36.3382 10.2755 36.3125 8.5144C36.3019 7.78125 36.054 6.68683 34.9414 5.63926C33.9241 4.68239 32.8614 4.2289 31.7821 4.28634C30.5214 4.35587 29.7232 5.12077 29.5146 5.346L13.5547 21.0565C11.8405 17.8987 10.0991 15.6357 8.36676 14.3176C5.86952 12.4175 3.73206 12.7153 2.37914 13.3003C1.06553 13.8671 0.28552 14.6728 0.0617968 15.6947C-0.23902 17.0688 0.646802 18.1753 0.823664 18.3794C2.77822 20.73 4.42893 24.2415 4.78114 25.0155C5.40091 30.6463 4.73126 34.7232 4.51509 35.8237L0.612034 39.7903C0.361102 40.0442 0.243194 40.401 0.291566 40.7547C1.01111 46.0228 4.18858 48.7966 6.72814 50.1964C9.43397 51.6869 11.9645 51.9514 12.0703 51.962C12.1081 51.9665 12.1459 51.968 12.1837 51.968C12.4966 51.968 12.7989 51.8396 13.0181 51.6113L16.6415 47.8125C21.2943 49.2788 25.087 46.7393 25.2548 46.6259C25.2926 46.6002 25.3289 46.5715 25.3637 46.5413C31.4329 41.2142 34.2823 36.052 34.8175 35.021L34.6875 35.151C34.0118 35.8267 33.1229 36.1653 32.2356 36.1653L32.2341 36.1608Z" fill="#D02E7D"/>
<path d="M22.2014 28.4729C22.7214 28.7253 23.2973 28.8583 23.8929 28.8583C23.9972 28.8583 24.1 28.8538 24.2013 28.8447C24.2814 27.9725 24.6578 27.1653 25.2821 26.541L30.2206 21.6025C30.9281 20.895 31.8713 20.505 32.8781 20.505C32.9839 20.505 33.0882 20.5095 33.191 20.5186C33.5886 19.1959 33.2666 17.7009 32.2235 16.6579C31.8124 16.2467 31.3226 15.9399 30.789 15.7494L22.085 24.1919C22.2769 25.0551 22.4931 26.5984 22.1998 28.4714L22.2014 28.4729ZM28.3779 18.2889C28.6712 17.9957 29.0657 17.8339 29.486 17.8339C29.9062 17.8339 30.3007 17.9957 30.594 18.2889C31.2047 18.8997 31.2047 19.8943 30.594 20.505L25.0009 26.0981C24.7077 26.3913 24.3131 26.5531 23.8929 26.5531C23.4726 26.5531 23.0781 26.3913 22.7848 26.0981C22.1741 25.4874 22.1741 24.4927 22.7848 23.882L28.3779 18.2889Z" fill="#D02E7D"/>
<path d="M26.7481 16.6596L21.1551 22.2527C19.6449 23.7628 19.6449 26.2192 21.1551 27.7293C21.4649 28.0392 21.8172 28.2887 22.2011 28.4746C22.4929 26.6017 22.2767 25.0583 22.0862 24.1951L30.7903 15.7526C30.3776 15.606 29.9392 15.5304 29.4872 15.5304C28.4502 15.5304 27.4783 15.9325 26.7496 16.6611L26.7481 16.6596Z" fill="#D02E7D"/>
<path d="M26.6324 27.7275C25.9763 28.3835 25.1222 28.7735 24.2032 28.8446C24.1926 28.961 24.1865 29.0789 24.1865 29.1983C24.1865 30.2035 24.5765 31.1468 25.284 31.8558L25.4472 32.019C26.1547 32.7265 27.0979 33.1165 28.1047 33.1165C28.2876 33.1165 28.469 33.1029 28.6474 33.0772C28.6187 32.8958 28.6005 32.7114 28.6005 32.5254C28.6005 31.5973 28.9603 30.7266 29.6133 30.0735L33.8232 25.8636C34.4763 25.2106 35.347 24.8508 36.2751 24.8508C36.4429 24.8508 36.6062 24.8659 36.7694 24.8901C36.907 23.7791 36.5518 22.6196 35.7007 21.7686L35.5374 21.6053C34.9041 20.972 34.0802 20.594 33.1929 20.5215C33.0145 21.1125 32.6925 21.6703 32.2254 22.1374L26.6324 27.7305V27.7275ZM33.9049 23.2334L34.0681 23.3966C34.6335 23.9635 34.6335 24.8841 34.0681 25.4494L29.1296 30.388C28.8575 30.6601 28.4932 30.8097 28.1032 30.8097C27.7132 30.8097 27.3489 30.6601 27.0768 30.388L26.9135 30.2247C26.6414 29.9526 26.4918 29.5883 26.4918 29.1983C26.4918 28.8083 26.6414 28.444 26.9135 28.1719L31.8521 23.2334C32.1242 22.9613 32.4885 22.8116 32.8785 22.8116C33.2685 22.8116 33.6328 22.9613 33.9049 23.2334Z" fill="#D02E7D"/>
<path d="M30.2205 21.6039L25.282 26.5425C24.6577 27.1668 24.2813 27.974 24.2012 28.8462C25.1202 28.7751 25.9743 28.3851 26.6304 27.7291L32.2235 22.136C32.6905 21.6689 33.0125 21.1126 33.1909 20.5201C33.0866 20.511 32.9838 20.5065 32.878 20.5065C31.8728 20.5065 30.9295 20.8965 30.2205 21.6039Z" fill="#D02E7D"/>
<path d="M38.8955 26.0333L38.7247 25.8625C38.1896 25.3273 37.5063 24.9933 36.7656 24.8875C36.6658 25.6886 36.3106 26.4656 35.6969 27.0793L30.7583 32.0179C30.1794 32.5968 29.4432 32.9626 28.6436 33.076C28.7569 33.794 29.088 34.4546 29.6095 34.9761L29.7803 35.147C30.2686 35.6352 30.8657 35.9436 31.4945 36.0796C32.3939 34.7086 32.8232 33.8485 32.8338 33.8258C33.1135 33.2544 33.8043 33.0171 34.3757 33.2967C34.9471 33.5764 35.1844 34.2642 34.9063 34.8371C34.8957 34.8567 34.8655 34.9202 34.8156 35.017L38.8955 30.937C39.5485 30.284 39.9083 29.4133 39.9083 28.4852C39.9083 27.557 39.5485 26.6863 38.8955 26.0333ZM37.266 29.3075L33.056 33.5174C32.6025 33.9709 31.8649 33.9709 31.4114 33.5174L31.2406 33.3466C31.0229 33.1289 30.9035 32.8372 30.9035 32.5243C30.9035 32.2114 31.0229 31.9196 31.2406 31.7019L35.4505 27.492C35.6682 27.2743 35.9599 27.1549 36.2728 27.1549C36.5857 27.1549 36.8775 27.2743 37.0951 27.492L37.266 27.6628C37.4836 27.8805 37.6031 28.1722 37.6031 28.4852C37.6031 28.7981 37.4836 29.0898 37.266 29.3075Z" fill="#D02E7D"/>
<path d="M33.8194 25.8627L29.6095 30.0726C28.9565 30.7257 28.5967 31.5964 28.5967 32.5245C28.5967 32.7119 28.6148 32.8964 28.6435 33.0763C29.4432 32.9614 30.1794 32.5971 30.7583 32.0181L35.6969 27.0796C36.3106 26.4658 36.6673 25.6889 36.7656 24.8877C36.6038 24.865 36.4391 24.8484 36.2713 24.8484C35.3431 24.8484 34.4724 25.2082 33.8194 25.8612V25.8627Z" fill="#D02E7D"/>
<path d="M51.9476 39.3246C51.9279 39.4626 51.9082 39.5414 51.9082 39.6005C51.9082 39.9749 52.1449 40.1523 52.5985 40.1523H58.2196C58.7915 40.1523 59.1268 39.8764 59.2451 39.3246L61.1583 30.3389H67.1541C67.2132 30.3389 67.2724 30.3389 67.3316 30.3389C72.9723 30.3389 77.627 25.314 77.627 19.7768C77.6664 15.5598 74.9249 12.0522 70.5267 12.0522H58.5746C58.1012 12.0522 57.7068 12.3675 57.5687 12.8996L51.9476 39.3246ZM68.2585 18.0624C69.7378 18.0624 70.5661 19.1659 70.5661 20.5256C70.5661 22.437 68.8897 24.3682 66.9174 24.3682H62.4403L63.7814 18.0624H68.2585Z" fill="white"/>
<path d="M76.7083 39.3246C76.6886 39.4626 76.6689 39.5414 76.6689 39.5808C76.6689 39.9552 76.9055 40.1523 77.3789 40.1523H96.5693C97.1216 40.1523 97.4569 39.8764 97.5752 39.3246L98.6205 34.4968C98.6402 34.4377 98.6402 34.3786 98.6402 34.28C98.6402 33.8662 98.4036 33.6692 97.9302 33.6692H85.2286L86.2739 28.8413H95.6424C96.2538 28.8413 96.6088 28.5654 96.7271 28.0137L97.5752 24.112C97.5949 23.974 97.6147 23.8952 97.6147 23.8558C97.6147 23.442 97.3583 23.2449 96.8257 23.2449H87.4573L88.4435 18.5747H100.79C101.342 18.5747 101.678 18.2989 101.796 17.7471L102.822 12.8996C102.841 12.7616 102.861 12.6828 102.861 12.6237C102.861 12.2493 102.644 12.0522 102.19 12.0522H83.3549C82.783 12.0522 82.4477 12.3281 82.3294 12.8996L76.7083 39.3246Z" fill="white"/>
<path d="M98.8557 39.3246C98.7373 39.5217 98.6782 39.6793 98.6782 39.7976C98.6782 40.034 98.8557 40.1523 99.2304 40.1523H105.068C105.64 40.1523 106.074 39.8764 106.37 39.3246L108.441 35.62H118.776L119.308 39.3246C119.387 39.8764 119.703 40.1523 120.275 40.1523H125.718C126.192 40.1523 126.428 39.9552 126.428 39.5414C126.428 39.4429 126.428 39.3838 126.409 39.3246L121.695 12.8996C121.596 12.3281 121.281 12.0522 120.748 12.0522H116.113C115.541 12.0522 115.088 12.3281 114.752 12.8996L98.8557 39.3246ZM116.685 20.9394L117.908 29.531H111.873L116.685 20.9394Z" fill="white"/>
<path d="M128.855 35.6397C130.847 38.3394 134.476 40.507 138.243 40.507C144.555 40.507 149.15 37.3147 150.294 31.8168C150.432 31.1666 150.511 30.4966 150.511 29.8266C150.452 26.0234 147.927 24.2105 143.312 22.5158C140.63 21.5897 139.585 21.1168 139.486 19.9541C139.486 19.895 139.506 19.7768 139.525 19.6191C139.821 18.2989 141.241 17.7274 142.878 17.7274C143.588 17.7274 144.18 17.8259 144.673 18.0033C145.718 18.4565 146.823 19.1068 147.316 19.6783C147.632 20.0132 147.927 20.1906 148.203 20.1906C148.401 20.1906 148.618 20.0921 148.874 19.895L151.931 17.0771C152.385 16.7027 152.602 16.3283 152.602 15.9736C152.602 15.7569 152.523 15.5598 152.345 15.343C150.235 12.8996 146.645 11.4611 143.45 11.4611C137.415 11.4611 133.332 14.5351 132.307 19.2447C132.169 19.895 132.11 20.4665 132.11 20.9197C132.11 24.2893 134.595 26.6146 139.624 28.5063C141.577 29.2354 142.937 29.9054 142.937 31.1074C142.937 31.2454 142.937 31.3439 142.918 31.403C142.523 33.1568 141.222 34.0436 139.032 34.0436C136.863 34.0436 135.344 32.5656 133.944 31.0877C133.687 30.7922 133.431 30.6542 133.175 30.6542C132.958 30.6542 132.741 30.7527 132.524 30.9301L128.993 33.9647C128.658 34.2406 128.481 34.5165 128.481 34.7924C128.481 35.0091 128.599 35.285 128.855 35.6397Z" fill="white"/>
<path d="M158.86 39.3246C158.84 39.4626 158.82 39.5414 158.82 39.5808C158.82 39.9552 159.057 40.1523 159.53 40.1523H165.191C165.723 40.1523 166.059 39.8764 166.177 39.3246L168.445 28.664L180.792 12.8996C180.93 12.7222 181.009 12.5449 181.009 12.4069C181.009 12.1705 180.831 12.0522 180.456 12.0522H173.593C173.06 12.0522 172.686 12.2887 172.271 12.8996L165.783 22.0429L163.002 12.8996C162.824 12.2887 162.607 12.0522 162.075 12.0522H156.276C155.803 12.0522 155.507 12.269 155.507 12.6434C155.507 12.7419 155.527 12.8404 155.546 12.8996L161.128 28.7034L158.86 39.3246Z" fill="white"/>
<path d="M180.846 39.3606C180.826 39.4985 180.807 39.5772 180.807 39.6166C180.807 39.9909 181.043 40.1878 181.515 40.1878H191.508C200.301 40.1878 208.425 33.2153 208.425 24.0959C208.543 17.281 202.937 12.0024 196.583 12.1008H187.475C186.905 12.1008 186.57 12.3766 186.452 12.9478L180.846 39.3606ZM201.107 24.608C201.107 29.3351 196.701 33.4911 192.039 33.4911H189.403L192.511 18.7976H195.147C198.747 18.7976 201.107 21.2596 201.107 24.608Z" fill="#D02E7D"/>
<path d="M209.336 39.3606C209.316 39.4985 209.296 39.5772 209.296 39.6166C209.296 39.9909 209.532 40.1878 210.005 40.1878H229.145C229.695 40.1878 230.03 39.9121 230.148 39.3606L231.191 34.535C231.21 34.4759 231.21 34.4168 231.21 34.3183C231.21 33.9047 230.974 33.7077 230.502 33.7077H217.834L218.876 28.8821H228.22C228.83 28.8821 229.184 28.6064 229.302 28.0549L230.148 24.155C230.168 24.0171 230.187 23.9383 230.187 23.899C230.187 23.4853 229.932 23.2884 229.4 23.2884H220.057L221.04 18.6203H233.354C233.905 18.6203 234.24 18.3446 234.358 17.7931L235.38 12.9478C235.4 12.8099 235.42 12.7311 235.42 12.672C235.42 12.2978 235.203 12.1008 234.751 12.1008H215.965C215.394 12.1008 215.06 12.3766 214.942 12.9478L209.336 39.3606Z" fill="#D02E7D"/>
<path d="M231.422 39.3606C231.304 39.5576 231.245 39.7151 231.245 39.8333C231.245 40.0697 231.422 40.1878 231.796 40.1878H237.619C238.189 40.1878 238.622 39.9121 238.917 39.3606L240.983 35.6577H251.29L251.822 39.3606C251.9 39.9121 252.215 40.1878 252.785 40.1878H258.215C258.687 40.1878 258.923 39.9909 258.923 39.5772C258.923 39.4788 258.923 39.4197 258.903 39.3606L254.202 12.9478C254.103 12.3766 253.789 12.1008 253.258 12.1008H248.635C248.064 12.1008 247.612 12.3766 247.277 12.9478L231.422 39.3606ZM249.205 20.9839L250.425 29.5715H244.405L249.205 20.9839Z" fill="#D02E7D"/>
<path d="M261.053 39.3606C261.033 39.4985 261.014 39.5772 261.014 39.6363C261.014 40.0106 261.25 40.1878 261.702 40.1878H278.639C279.17 40.1878 279.505 39.9121 279.623 39.3606L280.705 34.3183C280.724 34.1804 280.744 34.1017 280.744 34.0426C280.744 33.6683 280.508 33.4911 280.056 33.4911H269.59L273.938 12.9478C273.957 12.8099 273.977 12.7311 273.977 12.672C273.977 12.2978 273.761 12.1008 273.308 12.1008H267.663C267.191 12.1008 266.797 12.416 266.659 12.9478L261.053 39.3606Z" fill="#D02E7D"/>
</svg>
